{
.appVersion = "3109";
.formatVersion = 3;
DisplayStrings = (
"The quick brown fox
jumps over the lazy dog.
Hasta la vista, baby!
Velvet Underground",
"/zero.tf/zero.tf/one.tf/zero.tf/zero.tf H"
);
axes = (
{
name = Production;
tag = PDCT;
},
{
name = Weight;
tag = wght;
}
);
classes = (
{
code = " slash fraction ";
name = fractionSlashes;
},
{
code = "
t t_t tbar tcaron tcedilla 
tcommaaccent f fi fl 
f_f f_i f_l  tdotaccent";
name = ss01_source;
},
{
code = "
t.ss01 t_t.ss01 tbar.ss01 tcaron.ss01 tcedilla.ss01 
tcommaaccent.ss01 f.ss01 fi.ss01 fl.ss01 
f_f.ss01 f_i.ss01 f_l.ss01  tdotaccent.ss01";
name = ss01_target;
},
{
code = "
zero one two three four five six seven eight nine
one.latn_ENG zero_zero zero_seven
";
name = tnum_source;
},
{
code = "
zero.tf one.tf two.tf three.tf four.tf five.tf six.tf seven.tf eight.tf nine.tf
one.latn_ENG.tf zero_zero.tf zero_seven.tf
";
name = tnum_target;
},
{
code = "zero one two three four five six seven eight nine";
name = num_default;
},
{
code = "zero.dnom one.dnom two.dnom three.dnom four.dnom five.dnom six.dnom seven.dnom eight.dnom nine.dnom";
name = num_dnom;
},
{
code = "zero.numr one.numr two.numr three.numr four.numr five.numr six.numr seven.numr eight.numr nine.numr";
name = num_numr;
},
{
code = "zerosuperior onesuperior twosuperior threesuperior foursuperior fivesuperior sixsuperior sevensuperior eightsuperior ninesuperior";
name = num_sups;
},
{
code = "zeroinferior oneinferior twoinferior threeinferior fourinferior fiveinferior sixinferior seveninferior eightinferior nineinferior";
name = num_subs;
},
{
automatic = 1;

glyphs = (
{
color = 4;
glyphname = A;
kernLeft = A;
kernRight = A;
layers = (
{
anchors = (
{
name = bottom;
pos = (321,0);
},
{
name = top;
pos = (365,725);
}
);
layerId = master01;
shapes = (
{
closed = 1;
nodes = (
(-7,-32,o),
(93,-43,o),
(112,21,cs),
(173,230,o),
(257,438,o),
(357,646,c),
(335,644,l),
(376,549,o),
(411,451,o),
(441,348,cs),
(476,229,o),
(511,93,o),
(540,-8,cs),
(556,-65,o),
(643,-45,o),
(632,18,cs),
(617,104,o),
(575,251,o),
(538,374,cs),
(509,471,o),
(470,577,o),
(433,660,c),
(421,698,o),
(397,722,o),
(351,722,cs),
(321,722,o),
(283,706,o),
(268,661,c),
(165,471,o),
(74,255,o),
(15,46,cs)
);
},
{
closed = 1;
nodes = (
(270,208,o),
(402,216,o),
(537,221,c),
(521,311,l),
(395,306,o),
(268,298,o),
(145,283,c),
(139,193,l)
);
}
);
userData = {
com.typemytype.robofont.mark = (
0.619,
1,
0.6,
1
);
};
width = 652;
},
{
layerId = "8E39700C-2F6D-4A17-B4B3-161F49A69C4C";
shapes = (
{
closed = 1;
nodes = (
(154,149,o),
(125,67,o),
(111,19,q),
(104,-2,o),
(77,-22,o),
(62,-22,q,{
name = ab01;
}),
(43,-22,o),
(13,7,o),
(13,34,q),
(13,49,o),
(24,89,o),
(41,136,o),
(59,184,o),
(66,207,q),
(81,256,o),
(120,350,o),
(138,398,q),
(153,439,o),
(181,519,o),
(201,557,q),
(217,588,o),
(245,647,o),
(281,693,o),
(331,721,o),
(368,721,q,{
name = at01;
}),
(394,721,o),
(433,688,o),
(463,639,o),
(484,584,o),
(491,563,q),
(505,519,o),
(526,429,o),
(544,338,o),
(561,246,o),
(572,201,q),
(580,168,o),
(602,112,o),
(619,83,q),
(627,69,o),
(651,28,o),
(651,11,q),
(651,-12,o),
(622,-40,o),
(603,-40,q,{
name = ab02;
}),
(582,-40,o),
(557,-11,o),
(544,14,q),
(533,35,o),
(506,74,o),
(498,96,q),
(487,124,o),
(473,182,o),
(467,211,q),
(439,211,l),
(410,211,o),
(339,208,o),
(267,203,o),
(196,197,o),
(167,194,q,{
name = dv01;
})
);
},
{
closed = 1;
nodes = (
(220,330,o),
(213,311,o),
(208,301,q,{
name = dv02;
}),
(254,301,o),
(313,305,o),
(358,308,o),
(400,311,o),
(430,311,q),
(447,311,l),
(442,343,o),
(430,401,o),
(424,430,q),
(419,451,o),
(408,502,o),
(391,553,o),
(370,600,o),
(355,617,q,{
name = sv01;
}),
(329,590,o),
(291,522,o),
(262,450,o),
(237,375,o),
(224,340,q)
);
}
);
width = 652;
},
{
anchors = (
{
name = bottom;
pos = (321,0);
},
{
name = top;
pos = (365,725);
}
);
background = {
shapes = (
{
closed = 1;
nodes = (
(617,104,o),
(575,251,o),
(538,374,cs),
(509,471,o),
(470,577,o),
(433,660,c),
(421,698,o),
(397,722,o),
(351,722,cs),
(321,722,o),
(283,706,o),
(268,661,c),
(165,471,o),
(74,255,o),
(15,46,cs),
(3,2,o),
(29,-21,o),
(58,-21,cs),
(81,-21,o),
(104,-7,o),
(112,21,cs),
(129,79,o),
(148,138,o),
(168,196,c),
(271,207,o),
(373,214,o),
(478,219,c),
(500,138,o),
(521,58,o),
(540,-8,cs),
(546,-31,o),
(565,-42,o),
(583,-42,cs),
(610,-42,o),
(639,-20,o),
(632,18,cs)
);
},
{
closed = 1;
nodes = (
(245,400,o),
(293,510,o),
(345,621,c),
(382,533,o),
(413,443,o),
(441,348,cs),
(453,308,l),
(369,304,o),
(285,298,o),
(203,290,c)
);
}
);
};
hints = (
{
horizontal = 1;
origin = (0,14);
type = TTSnap;
},
{
horizontal = 1;
origin = (0,36);
type = TTSnap;
},
{
horizontal = 1;
options = 4;
origin = (0,23);
target = (1,5);
type = TTShift;
},
{
horizontal = 1;
options = 8;
origin = (0,36);
other1 = (0,5);
target = (0,23);
type = TTInterpolate;
},
{
horizontal = 1;
options = 4;
origin = (0,5);
target = (1,1);
type = TTStem;
}
);
layerId = "92936CB7-D294-4857-B41D-63B9425360A1";
shapes = (
{
closed = 1;
nodes = (
(568,-42,o),
(544,-24,o),
(540,-8,q),
(527,39,o),
(484,195,o),
(478,219,q,{
name = dv01;
}),
(391,215,o),
(239,204,o),
(168,196,q),
(152,151,o),
(124,63,o),
(112,21,q),
(106,1,o),
(76,-21,o),
(58,-21,q,{
name = ab01;
}),
(33,-21,o),
(7,16,o),
(15,46,q),
(58,197,o),
(188,513,o),
(268,661,q),
(278,690,o),
(323,722,o),
(351,722,q,{
name = at01;
}),
(414,722,o),
(433,660,q),
(461,597,o),
(516,446,o),
(538,374,q),
(557,311,o),
(588,204,o),
(611,115,o),
(627,44,o),
(632,18,q),
(637,-8,o),
(606,-42,o),
(583,-42,q,{
name = ab02;
})
);
},
{
closed = 1;
nodes = (
(325,302,o),
(453,308,q,{
name = dv02;
}),
(441,348,l),
(419,424,o),
(371,559,o),
(345,621,q,{
name = sv01;
}),
(302,530,o),
(232,366,o),
(203,290,q)
);
}
);
userData = {
com.typemytype.robofont.mark = (
0.656,
1,
0.6,
1
);
};
width = 652;
}
);
unicode = 65;
},
{
glyphname = Aacute;
kernLeft = A;
kernRight = A;
layers = (
{
color = 6;
layerId = master01;
shapes = (
{
alignment = -1;
ref = Adieresis.comp;
},
{
pos = (712,24);
ref = acutecomb.case;
}
);
userData = {
com.typemytype.robofont.mark = (
0.6,
0.741,
1,
1
);
};
width = 675;
},
{
layerId = "8E39700C-2F6D-4A17-B4B3-161F49A69C4C";
shapes = (
{
closed = 1;
nodes = (
(182,193,o),
(178,193,q),
(173,193,o),
(170,195,q),
(150,151,o),
(121,61,o),
(117,12,q),
(113,-14,o),
(83,-38,o),
(66,-38,q,{
name = ab01;
}),
(47,-38,o),
(17,-9,o),
(17,20,q),
(21,66,o),
(45,151,o),
(78,233,o),
(116,312,o),
(136,353,q),
(159,402,o),
(205,497,o),
(234,542,q),
(257,578,o),
(310,646,o),
(336,681,q),
(343,690,o),
(354,707,o),
(365,719,o),
(378,726,o),
(388,726,q,{
name = at01;
}),
(409,726,o),
(428,707,q),
(522,560,o),
(638,218,o),
(652,44,q),
(648,19,o),
(620,-6,o),
(603,-6,q,{
name = ab02;
}),
(588,-6,o),
(560,14,o),
(552,36,q),
(547,86,o),
(532,184,o),
(520,233,q,{
name = dv01;
}),
(439,233,o),
(267,217,o),
(188,195,q)
);
},
{
closed = 1;
nodes = (
(290,319,o),
(425,329,o),
(493,331,q,{
name = dv02;
}),
(450,464,o),
(386,582,q,{
name = sv01;
}),
(363,553,o),
(319,491,o),
(300,459,q),
(279,424,o),
(245,351,o),
(227,313,q),
(224,306,l)
);
},
{
closed = 1;
nodes = (
(400,741,o),
(384,741,q,{
name = sv02;
}),
(365,741,o),
(338,768,o),
(338,788,q),
(339,797,o),
(345,818,o),
(353,828,q),
(366,843,o),
(408,879,o),
(454,911,o),
(500,933,o),
(516,933,q,{
name = sv03;
}),
(539,933,o),
(566,907,o),
(566,888,q),
(566,877,o),
(555,854,o),
(544,843,q),
(514,829,o),
(459,786,o),
(433,766,q),
(417,753,l)
);
}
);
width = 675;
},
{
color = 6;
layerId = "92936CB7-D294-4857-B41D-63B9425360A1";
shapes = (
{
alignment = -1;
ref = Adieresis.comp;
},
{
pos = (712,24);
ref = acutecomb.case;
}
);
userData = {
com.typemytype.robofont.mark = (
0.6,
0.986,
1,
1
);
};
width = 675;
}
);
unicode = 193;
},
{
glyphname = Adieresis;
kernLeft = A;
kernRight = A;
layers = (
{
color = 6;
layerId = master01;
shapes = (
{
pos = (513,-45);
ref = dieresiscomb.case;
},
{
ref = Adieresis.comp;
}
);
userData = {
com.typemytype.robofont.mark = (
0.6,
0.741,
1,
1
);
};
width = 712;
},
{
layerId = "8E39700C-2F6D-4A17-B4B3-161F49A69C4C";
shapes = (
{
closed = 1;
nodes = (
(118,-36,o),
(88,-60,o),
(71,-60,q,{
name = av01;
}),
(52,-60,o),
(22,-31,o),
(22,-2,q),
(30,52,o),
(71,156,o),
(89,207,q),
(99,235,o),
(113,291,o),
(124,318,q),
(153,397,o),
(229,541,o),
(274,611,q),
(284,627,o),
(306,669,o),
(331,706,o),
(361,732,o),
(381,732,q,{
name = at01;
}),
(392,732,o),
(413,723,o),
(427,715,q),
(446,702,o),
(480,639,o),
(508,565,o),
(528,494,o),
(534,474,q),
(539,457,o),
(550,413,o),
(560,369,o),
(568,333,o),
(570,323,q),
(577,286,o),
(600,223,o),
(627,165,o),
(656,109,o),
(669,78,q),
(685,59,o),
(685,39,q),
(685,20,o),
(658,-5,o),
(635,-5,q,{
name = ab01;
}),
(630,-5,o),
(621,-5,o),
(616,-3,q),
(600,6,o),
(566,58,o),
(536,119,o),
(511,179,o),
(504,196,q),
(494,226,l),
(421,227,o),
(276,233,o),
(203,235,q,{
name = dv01;
}),
(192,200,l),
(175,147,o),
(135,44,o),
(122,-10,q)
);
},
{
closed = 1;
nodes = (
(300,469,o),
(256,381,o),
(238,334,q,{
name = dv02;
}),
(296,332,o),
(411,328,o),
(468,326,q),
(459,386,o),
(424,506,o),
(403,560,q),
(399,570,o),
(391,594,o),
(385,605,q,{
name = sv01;
}),
(380,595,l),
(368,573,o),
(341,532,o),
(327,511,q)
);
},
{
closed = 1;
nodes = (
(145,953,o),
(173,973,o),
(188,973,q,{
name = sv02;
}),
(205,973,o),
(233,949,o),
(235,926,q),
(235,922,o),
(237,916,q),
(248,892,o),
(272,843,o),
(272,817,q),
(272,793,o),
(244,765,o),
(225,765,q,{
name = at02;
}),
(213,765,o),
(190,776,o),
(180,789,q),
(174,802,o),
(168,826,o),
(165,839,q),
(156,858,o),
(135,896,o),
(135,917,q),
(135,921,o),
(136,927,o),
(137,931,q)
);
},
{
closed = 1;
nodes = (
(427,930,o),
(458,959,o),
(477,959,q,{
name = sv04;
}),
(500,959,o),
(523,926,o),
(531,893,q),
(535,876,o),
(548,837,o),
(548,826,q),
(548,802,o),
(520,774,o),
(501,774,q,{
name = sv03;
}),
(489,774,o),
(466,785,o),
(456,798,q),
(445,822,o),
(432,875,o),
(427,901,q)
);
}
);
width = 712;
},
{
color = 6;
layerId = "92936CB7-D294-4857-B41D-63B9425360A1";
shapes = (
{
pos = (513,-45);
ref = dieresiscomb.case;
},
{
ref = Adieresis.comp;
}
);
userData = {
com.typemytype.robofont.mark = (
0.6,
0.986,
1,
1
);
};
width = 712;
}
);
unicode = 196;
},
{
glyphname = Agrave;
kernLeft = A;
kernRight = A;
layers = (
{
color = 6;
layerId = master01;
shapes = (
{
alignment = -1;
ref = A;
},
{
pos = (699,11);
ref = gravecomb.case;
}
);
userData = {
com.typemytype.robofont.mark = (
0.6,
0.741,
1,
1
);
};
width = 653;
},
{
layerId = "8E39700C-2F6D-4A17-B4B3-161F49A69C4C";
shapes = (
{
closed = 1;
nodes = (
(109,-2,o),
(79,-26,o),
(62,-26,q,{
name = ab01;
}),
(43,-26,o),
(13,3,o),
(13,32,q),
(24,107,o),
(79,248,o),
(152,381,o),
(239,506,o),
(283,565,q),
(297,584,o),
(328,639,o),
(361,691,o),
(397,728,o),
(416,728,q,{
name = at01;
}),
(444,728,o),
(486,681,o),
(516,614,o),
(536,542,o),
(542,518,q),
(571,405,o),
(611,173,o),
(619,56,q),
(615,31,o),
(587,6,o),
(570,6,q,{
name = ab02;
}),
(555,6,o),
(527,26,o),
(519,48,q),
(516,86,o),
(508,162,o),
(502,200,q),
(417,199,o),
(250,195,o),
(165,194,q,{
name = dv01;
}),
(146,153,o),
(120,69,o),
(113,24,q)
);
},
{
closed = 1;
nodes = (
(371,514,o),
(266,370,o),
(220,294,q,{
name = dv02;
}),
(286,296,o),
(419,299,o),
(486,300,q),
(469,388,l),
(465,410,o),
(455,461,o),
(442,514,o),
(426,566,o),
(416,589,q,{
name = sv01;
})
);
},
{
closed = 1;
nodes = (
(230,898,o),
(224,918,o),
(224,927,q),
(224,947,o),
(251,974,o),
(272,974,q,{
name = sv03;
}),
(285,974,o),
(299,968,q),
(343,937,o),
(413,856,o),
(449,818,q),
(458,801,o),
(458,787,q),
(458,767,o),
(430,740,o),
(410,740,q,{
name = sv02;
}),
(402,740,o),
(385,745,o),
(376,751,q),
(342,786,o),
(278,861,o),
(238,889,q)
);
}
);
width = 653;
},
{
color = 6;
layerId = "92936CB7-D294-4857-B41D-63B9425360A1";
shapes = (
{
alignment = -1;
ref = A;
},
{
pos = (699,11);
ref = gravecomb.case;
}
);
userData = {
com.typemytype.robofont.mark = (
0.6,
0.986,
1,
1
);
};
width = 653;
}
);
unicode = 192;
},
{
color = 1;
glyphname = Aring;
kernLeft = A;
kernRight = A;
layers = (
{
anchors = (
{
name = top;
pos = (373,1021);
}
);
layerId = master01;
shapes = (
{
alignment = -1;
pos = (1,0);
ref = A;
},
{
alignment = -1;
pos = (564,199);
ref = ringcomb;
}
);
width = 654;
},
{
anchors = (
{
name = bottom;
pos = (314,0);
},
{
name = top;
pos = (372,799);
}
);
layerId = "8E39700C-2F6D-4A17-B4B3-161F49A69C4C";
shapes = (
{
closed = 1;
nodes = (
(402,824,o),
(417,806,q),
(422,806,l),
(428,806,o),
(448,798,o),
(457,792,q),
(481,775,o),
(505,716,o),
(505,684,q),
(505,630,o),
(450,559,o),
(403,548,q),
(433,509,o),
(477,420,o),
(513,326,o),
(543,231,o),
(560,185,q),
(572,151,o),
(597,78,o),
(622,51,q),
(631,34,o),
(631,20,q),
(631,0,o),
(603,-27,o),
(583,-27,q,{
name = ab02;
}),
(559,-27,o),
(523,11,o),
(496,65,o),
(476,124,o),
(468,145,q),
(456,178,l),
(383,178,o),
(238,176,o),
(166,176,q,{
name = dv03;
}),
(141,132,o),
(102,44,o),
(91,-4,q),
(81,-21,o),
(55,-38,o),
(41,-38,q,{
name = ab01;
}),
(23,-38,o),
(-6,-8,o),
(-6,20,q),
(3,60,o),
(35,136,o),
(74,210,o),
(116,282,o),
(136,318,q),
(160,363,o),
(206,451,o),
(238,493,q),
(252,512,o),
(283,555,o),
(303,570,q),
(280,593,o),
(259,665,o),
(259,698,q),
(259,731,o),
(277,775,o),
(309,804,o),
(350,821,o),
(374,827,q,{
name = dv02;
})
);
},
{
closed = 1;
nodes = (
(257,337,o),
(235,296,o),
(224,276,q,{
name = dv04;
}),
(274,276,o),
(373,278,o),
(423,278,q),
(406,326,o),
(368,420,o),
(341,462,q,{
name = sv01;
}),
(320,439,o),
(282,386,o),
(268,357,q)
);
},
{
closed = 1;
nodes = (
(385,714,o),
(379,720,o),
(376,723,q,{
name = dv01;
}),
(356,713,o),
(356,690,q),
(356,669,o),
(372,647,q,{
name = av01;
}),
(388,647,o),
(405,671,o),
(405,685,q),
(405,694,o),
(398,709,o),
(390,712,q)
);
}
);
width = 654;
},
{
anchors = (
{
name = top;
pos = (373,1021);
}
);
layerId = "92936CB7-D294-4857-B41D-63B9425360A1";
shapes = (
{
alignment = -1;
pos = (1,0);
ref = A;
},
{
alignment = -1;
pos = (564,199);
ref = ringcomb;
}
);
width = 654;
}
);
unicode = 197;
},
{
glyphname = AE;
kernLeft = A;
kernRight = E;
layers = (
{
layerId = master01;
shapes = (
{
closed = 1;
nodes = (
(245,146,o),
(322,149,o),
(401,150,c),
(401,107,o),
(401,67,o),
(404,24,c),
(413,-1,o),
(423,-11,o),
(450,-18,c),
(558,-13,o),
(666,-1,o),
(775,3,c),
(811,6,o),
(829,30,o),
(829,53,cs),
(829,76,o),
(811,99,o),
(775,103,c),
(683,100,o),
(594,92,o),
(502,85,c),
(499,161,o),
(501,238,o),
(498,315,c),
(555,318,o),
(610,325,o),
(669,326,c),
(705,329,o),
(723,353,o),
(723,376,cs),
(723,399,o),
(705,422,o),
(669,426,c),
(609,425,o),
(552,418,o),
(492,415,c),
(485,487,o),
(478,557,o),
(463,628,c),
(486,632,o),
(508,633,o),
(533,633,cs),
(606,633,o),
(685,621,o),
(745,618,c),
(781,621,o),
(799,645,o),
(799,668,cs),
(799,691,o),
(781,714,o),
(745,718,c),
(674,721,o),
(601,733,o),
(528,733,cs),
(476,733,o),
(421,725,o),
(374,705,cs),
(353,696,o),
(340,682,o),
(335,665,c),
(314,632,o),
(299,588,o),
(288,568,cs),
(225,456,o),
(164,348,o),
(104,236,cs),
(64,161,o),
(12,96,o),
(-23,19,c),
(-26,9,o),
(-28,1,o),
(-28,-6,cs),
(-28,-37,o),
(-6,-55,o),
(18,-55,cs),
(35,-55,o),
(57,-45,o),
(68,-21,cs),
(96,38,o),
(131,90,o),
(166,146,c)
);
},
{
closed = 1;
nodes = (
(397,440,o),
(399,342,o),
(400,250,c),
(223,246,l),
(254,303,o),
(281,359,o),
(314,415,cs),
(382,532,l)
);
}
);
width = 858;
},
{
layerId = "8E39700C-2F6D-4A17-B4B3-161F49A69C4C";
shapes = (
{
closed = 1;
nodes = (
(140,104,o),
(89,23,o),
(68,-21,q),
(60,-39,o),
(31,-55,o),
(18,-55,q,{
name = av01;
}),
(0,-55,o),
(-28,-29,o),
(-28,-6,q),
(-28,4,o),
(-23,19,q),
(3,77,o),
(74,180,o),
(104,236,q),
(149,320,o),
(241,484,o),
(288,568,q),
(296,583,o),
(319,640,o),
(335,665,q),
(342,691,o),
(374,705,q),
(409,720,o),
(489,733,o),
(528,733,q,{
name = at01;
}),
(583,733,o),
(692,720,o),
(745,718,q),
(772,715,o),
(799,685,o),
(799,668,q),
(799,651,o),
(772,620,o),
(745,618,q),
(700,620,o),
(588,633,o),
(533,633,q,{
name = sv01;
}),
(514,633,o),
(480,631,o),
(463,628,q),
(474,575,o),
(487,469,o),
(492,415,q,{
name = dv02;
}),
(537,417,o),
(624,425,o),
(669,426,q),
(696,423,o),
(723,393,o),
(723,376,q),
(723,359,o),
(696,328,o),
(669,326,q),
(625,325,o),
(541,317,o),
(498,315,q,{
name = dv01;
}),
(500,257,o),
(500,142,o),
(502,85,q,{
name = sv02;
}),
(571,90,o),
(706,101,o),
(775,103,q),
(802,100,o),
(829,70,o),
(829,53,q),
(829,36,o),
(802,5,o),
(775,3,q),
(693,0,o),
(531,-14,o),
(450,-18,q,{
name = ab01;
}),
(430,-13,o),
(411,5,o),
(404,24,q),
(402,56,o),
(401,118,o),
(401,150,q,{
name = dv03;
}),
(342,149,o),
(225,146,o),
(166,146,q)
);
},
{
closed = 1;
nodes = (
(289,373,o),
(246,289,o),
(223,246,q),
(400,250,l,{
name = dv04;
}),
(399,319,o),
(393,463,o),
(382,532,q,{
name = sv03;
}),
(365,503,o),
(331,444,o),
(314,415,q)
);
}
);
width = 858;
},
{
layerId = "92936CB7-D294-4857-B41D-63B9425360A1";
shapes = (
{
closed = 1;
nodes = (
(0,-55,o),
(-28,-29,o),
(-28,-6,q),
(-28,4,o),
(-23,19,q),
(3,77,o),
(74,180,o),
(104,236,q),
(149,320,o),
(241,484,o),
(288,568,q),
(296,583,o),
(319,640,o),
(335,665,q),
(342,691,o),
(374,705,q),
(409,720,o),
(489,733,o),
(528,733,q,{
name = at01;
}),
(583,733,o),
(692,720,o),
(745,718,q),
(772,715,o),
(799,685,o),
(799,668,q),
(799,651,o),
(772,620,o),
(745,618,q),
(700,620,o),
(588,633,o),
(533,633,q,{
name = sv01;
}),
(514,633,o),
(480,631,o),
(463,628,q),
(474,575,o),
(487,469,o),
(492,415,q,{
name = dv02;
}),
(537,417,o),
(624,425,o),
(669,426,q),
(696,423,o),
(723,393,o),
(723,376,q),
(723,359,o),
(696,328,o),
(669,326,q),
(625,325,o),
(541,317,o),
(498,315,q,{
name = dv01;
}),
(500,257,o),
(500,142,o),
(502,85,q,{
name = sv02;
}),
(571,90,o),
(706,101,o),
(775,103,q),
(802,100,o),
(829,70,o),
(829,53,q),
(829,36,o),
(802,5,o),
(775,3,q),
(693,0,o),
(531,-14,o),
(450,-18,q,{
name = ab01;
}),
(430,-13,o),
(411,5,o),
(404,24,q),
(402,56,o),
(401,118,o),
(401,150,q,{
name = dv03;
}),
(342,149,o),
(225,146,o),
(166,146,q),
(140,104,o),
(89,23,o),
(68,-21,q),
(60,-39,o),
(31,-55,o),
(18,-55,q,{
name = av01;
})
);
},
{
closed = 1;
nodes = (
(400,250,l,{
name = dv04;
}),
(399,319,o),
(393,463,o),
(382,532,q,{
name = sv03;
}),
(365,503,o),
(331,444,o),
(314,415,q),
(289,373,o),
(246,289,o),
(223,246,q)
);
}
);
width = 858;
}
);
unicode = 198;
},
{
color = 4;
glyphname = B;
kernLeft = B;
kernRight = B;
layers = (
{
anchors = (
{
name = bottom;
pos = (341,-13);
},
{
name = top;
pos = (337,725);
}
);
background = {
shapes = (
{
closed = 1;
nodes = (
(475,-32,o),
(600,49,o),
(617,172,cs),
(636,310,o),
(530,398,o),
(350,423,c),
(348,397,l),
(502,405,o),
(590,460,o),
(600,548,cs),
(616,695,o),
(481,747,o),
(354,747,cs),
(221,747,o),
(103,707,o),
(55,664,cs),
(20,633,o),
(39,588,o),
(100,607,cs),
(172,630,o),
(249,653,o),
(335,653,cs),
(435,653,o),
(497,627,o),
(493,558,cs),
(489,495,o),
(419,459,o),
(322,446,cs),
(268,439,o),
(261,373,o),
(321,358,cs),
(465,322,o),
(516,277,o),
(506,188,cs),
(497,106,o),
(413,60,o),
(337,60,cs),
(282,60,o),
(242,81,o),
(227,86,cs),
(166,107,o),
(136,56,o),
(178,20,cs),
(212,-9,o),
(276,-32,o),
(348,-32,cs)
);
},
{
closed = 1;
nodes = (
(144,440,o),
(132,236,o),
(122,79,cs),
(118,14,o),
(214,11,o),
(222,84,cs),
(237,222,o),
(252,474,o),
(246,658,c),
(143,634,l)
);
}
);
};
layerId = master01;
shapes = (
{
closed = 1;
nodes = (
(475,-32,o),
(600,49,o),
(617,172,cs),
(636,310,o),
(530,398,o),
(350,423,c),
(348,397,l),
(502,405,o),
(590,460,o),
(600,548,cs),
(616,695,o),
(481,747,o),
(354,747,cs),
(221,747,o),
(103,707,o),
(55,664,cs),
(20,633,o),
(39,588,o),
(100,607,cs),
(172,630,o),
(249,653,o),
(335,653,cs),
(435,653,o),
(497,627,o),
(493,558,cs),
(489,495,o),
(419,454,o),
(291,442,cs),
(230,436,o),
(206,416,o),
(206,388,cs),
(206,358,o),
(235,338,o),
(321,358,c),
(465,322,o),
(516,277,o),
(506,188,cs),
(497,106,o),
(413,60,o),
(337,60,cs),
(282,60,o),
(242,81,o),
(227,86,cs),
(166,107,o),
(136,56,o),
(178,20,cs),
(212,-9,o),
(276,-32,o),
(348,-32,cs)
);
},
{
closed = 1;
nodes = (
(144,440,o),
(132,236,o),
(122,79,cs),
(118,14,o),
(214,11,o),
(222,84,cs),
(237,222,o),
(252,474,o),
(246,658,c),
(143,634,l)
);
}
);
userData = {
com.typemytype.robofont.mark = (
0.619,
1,
0.6,
1
);
};
width = 666;
},
{
layerId = "8E39700C-2F6D-4A17-B4B3-161F49A69C4C";
shapes = (
{
closed = 1;
nodes = (
(497,601,o),
(461,626,o),
(408,641,o),
(350,648,o),
(329,648,q,{
name = sv01;
}),
(289,648,o),
(243,640,q),
(249,601,o),
(249,562,q),
(249,514,o),
(238,420,o),
(238,372,q),
(238,364,o),
(239,336,o),
(239,301,o),
(240,262,o),
(240,243,q),
(240,176,o),
(222,114,o),
(187,114,q),
(163,114,o),
(137,143,o),
(125,183,o),
(120,225,o),
(116,239,q),
(108,268,o),
(86,324,o),
(77,353,q),
(71,372,o),
(52,427,o),
(35,488,o),
(23,551,o),
(23,579,q),
(23,599,o),
(31,635,o),
(40,649,q),
(57,676,o),
(130,713,o),
(217,737,o),
(306,748,o),
(341,748,q,{
name = at01;
}),
(395,748,o),
(490,721,o),
(559,674,o),
(599,611,o),
(599,575,q),
(599,533,o),
(538,444,o),
(475,414,q),
(493,404,l),
(544,373,o),
(615,280,o),
(615,220,q),
(615,171,o),
(566,79,o),
(488,7,o),
(390,-36,o),
(341,-36,q,{
name = ab01;
}),
(323,-36,o),
(261,-30,o),
(202,-11,o),
(158,23,o),
(158,51,q),
(158,74,o),
(186,101,o),
(205,101,q),
(216,101,o),
(241,89,o),
(249,79,q),
(269,71,o),
(310,63,o),
(326,63,q,{
name = sv02;
}),
(365,63,o),
(435,93,o),
(486,140,o),
(516,197,o),
(516,224,q),
(516,253,o),
(485,292,o),
(438,320,o),
(383,342,o),
(336,366,o),
(305,396,o),
(305,418,q),
(305,437,o),
(333,462,o),
(376,482,o),
(426,501,o),
(469,525,o),
(497,558,o),
(497,583,q)
);
},
{
closed = 1;
nodes = (
(147,484,o),
(151,533,o),
(151,557,q),
(151,582,o),
(148,608,q),
(134,602,o),
(124,588,o),
(124,569,q),
(124,546,o),
(136,489,o),
(145,460,q)
);
}
);
width = 666;
},
{
anchors = (
{
name = bottom;
pos = (341,-13);
},
{
name = top;
pos = (337,725);
}
);
background = {
shapes = (
{
closed = 1;
nodes = (
(475,-32,o),
(600,49,o),
(617,172,cs),
(633,288,o),
(560,369,o),
(429,407,c,{
name = iv02;
}),
(533,427,o),
(592,477,o),
(600,548,cs),
(616,695,o),
(481,747,o),
(354,747,cs),
(221,747,o),
(103,707,o),
(55,664,cs),
(20,633,o),
(39,588,o),
(100,607,c),
(114,612,o),
(128,616,o),
(143,620,c,{
name = sv02;
}),
(143,430,o),
(132,232,o),
(122,79,cs),
(120,46,o),
(144,29,o),
(169,30,c),
(171,26,o),
(174,23,o),
(178,20,c),
(212,-9,o),
(276,-32,o),
(348,-32,cs)
);
},
{
closed = 1;
nodes = (
(282,60,o),
(242,81,o),
(227,86,c),
(225,87,o),
(224,87,o),
(222,87,c),
(230,156,o),
(237,251,o),
(242,352,c),
(260,348,o),
(286,350,o),
(321,358,c),
(465,322,o),
(516,277,o),
(506,188,cs),
(497,106,o),
(413,60,o),
(337,60,cs)
);
},
{
closed = 1;
nodes = (
(247,506,o),
(248,580,o),
(246,645,c),
(275,650,o),
(304,653,o),
(335,653,cs),
(435,653,o),
(497,627,o),
(493,558,cs),
(489,495,o),
(419,454,o),
(291,442,cs),
(272,440,o),
(257,437,o),
(245,433,c)
);
}
);
};
hints = (
{
horizontal = 1;
options = 4;
origin = (2,6);
target = (0,9);
type = TTShift;
},
{
horizontal = 1;
options = 4;
origin = (0,31);
other1 = (1,5);
target = (0,19);
type = TTInterpolate;
},
{
horizontal = 1;
options = 4;
origin = (1,5);
target = (2,1);
type = TTStem;
},
{
horizontal = 1;
options = 4;
origin = (1,5);
other1 = (0,25);
target = (2,1);
type = TTInterpolate;
},
{
horizontal = 1;
options = 4;
origin = (0,19);
target = (2,6);
type = TTStem;
},
{
horizontal = 1;
options = 4;
origin = (0,31);
target = (1,13);
type = TTStem;
}
);
layerId = "92936CB7-D294-4857-B41D-63B9425360A1";
shapes = (
{
closed = 1;
nodes = (
(297,-32,o),
(205,-3,o),
(178,20,q),
(172,25,o),
(169,30,q),
(148,29,o),
(120,56,o),
(122,79,qs),
(143,400,o),
(143,620,q,{
name = sv02;
}),
(117,613,o),
(100,607,q),
(78,600,o),
(47,607,o),
(35,628,o),
(43,653,o),
(55,664,qs),
(95,700,o),
(262,747,o),
(354,747,qs),
(474,747,o),
(610,642,o),
(600,548,qs),
(594,494,o),
(507,422,o),
(429,407,q,{
name = iv02;
}),
(531,377,o),
(629,256,o),
(617,172,qs),
(604,84,o),
(449,-32,o),
(348,-32,qs)
);
},
{
closed = 1;
nodes = (
(401,60,o),
(500,132,o),
(506,188,qs),
(513,254,o),
(430,331,o),
(321,358,q),
(269,346,o),
(242,352,q),
(234,191,o),
(222,87,q),
(229,86,o),
(267,70,o),
(314,60,o),
(337,60,qs)
);
},
{
closed = 1;
nodes = (
(263,439,o),
(291,442,qs),
(387,451,o),
(490,511,o),
(493,558,qs),
(499,653,o),
(335,653,qs),
(292,653,o),
(246,645,q),
(249,562,o),
(245,433,q)
);
}
);
userData = {
com.typemytype.robofont.mark = (
0.656,
1,
0.6,
1
);
};
width = 666;
}
);
unicode = 66;
},
{
color = 4;
glyphname = C;
kernLeft = C;
kernRight = C;
layers = (
{
anchors = (
{
name = bottom;
pos = (336,0);
},
{
name = top;
pos = (341,725);
}
);
layerId = master01;
shapes = (
{
closed = 1;
nodes = (
(34,102,o),
(209,-27,o),
(404,-27,cs),
(436,-27,o),
(473,-22,o),
(503,-7,cs),
(550,16,o),
(554,76,o),
(492,72,cs),
(467,70,o),
(437,67,o),
(412,67,cs),
(262,67,o),
(145,160,o),
(145,314,cs),
(145,400,o),
(178,473,o),
(234,521,cs),
(286,565,o),
(358,591,o),
(439,609,cs),
(504,623,o),
(495,697,o),
(423,697,cs),
(346,697,o),
(245,666,o),
(166,601,cs),
(88,537,o),
(34,438,o),
(34,317,cs)
);
}
);
userData = {
com.typemytype.robofont.mark = (
0.619,
1,
0.6,
1
);
};
width = 576;
},
{
layerId = "8E39700C-2F6D-4A17-B4B3-161F49A69C4C";
shapes = (
{
closed = 1;
nodes = (
(456,702,o),
(484,670,o),
(484,653,q),
(484,639,o),
(468,606,o),
(446,603,q,{
name = sv01;
}),
(399,597,o),
(328,579,o),
(271,553,o),
(224,517,o),
(202,492,q),
(174,460,o),
(138,368,o),
(138,327,q),
(138,263,o),
(182,167,o),
(257,104,o),
(356,73,o),
(411,73,q,{
name = sv02;
}),
(483,73,l),
(510,73,o),
(537,40,o),
(537,23,q),
(537,6,o),
(508,-27,o),
(483,-27,q),
(411,-27,l,{
name = ab01;
}),
(335,-27,o),
(199,20,o),
(97,110,o),
(37,240,o),
(37,322,q),
(37,403,o),
(113,556,o),
(185,613,q),
(242,657,o),
(374,701,o),
(430,702,q,{
name = av01;
})
);
}
);
width = 576;
},
{
anchors = (
{
name = bottom;
pos = (336,0);
},
{
name = top;
pos = (341,725);
}
);
background = {
shapes = (
{
closed = 1;
nodes = (
(34,102,o),
(209,-27,o),
(404,-27,cs),
(436,-27,o),
(473,-22,o),
(503,-7,cs),
(550,16,o),
(554,76,o),
(492,72,cs),
(467,70,o),
(437,67,o),
(412,67,cs),
(262,67,o),
(145,160,o),
(145,314,cs),
(145,400,o),
(178,473,o),
(234,521,cs),
(286,565,o),
(358,591,o),
(439,609,cs),
(504,623,o),
(495,697,o),
(423,697,cs),
(346,697,o),
(245,666,o),
(166,601,cs),
(88,537,o),
(34,438,o),
(34,317,cs)
);
}
);
};
hints = (
{
horizontal = 1;
options = 4;
origin = (0,32);
target = (0,22);
type = TTStem;
},
{
horizontal = 1;
options = 4;
origin = (0,8);
target = (0,13);
type = TTStem;
},
{
horizontal = 1;
origin = (0,8);
type = TTSnap;
}
);
layerId = "92936CB7-D294-4857-B41D-63B9425360A1";
shapes = (
{
closed = 1;
nodes = (
(246,-27,o),
(34,166,o),
(34,317,q),
(34,402,o),
(103,549,o),
(166,601,q),
(220,646,o),
(359,697,o),
(423,697,q,{
name = av01;
}),
(449,697,o),
(481,674,o),
(484,640,o),
(461,614,o),
(439,609,q,{
name = sv01;
}),
(369,593,o),
(268,550,o),
(234,521,q),
(191,484,o),
(145,377,o),
(145,314,q),
(145,203,o),
(294,67,o),
(412,67,q,{
name = sv02;
}),
(432,67,o),
(487,72,o),
(492,72,q),
(514,73,o),
(538,57,o),
(539,28,o),
(519,1,o),
(503,-7,q),
(463,-27,o),
(404,-27,qs,{
name = ab01;
})
);
}
);
userData = {
com.typemytype.robofont.mark = (
0.656,
1,
0.6,
1
);
};
width = 576;
}
);
unicode = 67;
},
{
glyphname = Ccedilla;
kernLeft = C;
kernRight = C;
layers = (
{
color = 6;
layerId = master01;
shapes = (
{
alignment = -1;
ref = C;
},
{
pos = (490,0);
ref = cedillacomb;
}
);
userData = {
com.typemytype.robofont.mark = (
0.6,
0.741,
1,
1
);
};
width = 577;
},
{
layerId = "8E39700C-2F6D-4A17-B4B3-161F49A69C4C";
shapes = (
{
closed = 1;
nodes = (
(456,702,o),
(484,670,o),
(484,653,q),
(484,639,o),
(466,611,o),
(446,603,q,{
name = sv01;
}),
(410,599,o),
(343,586,o),
(283,561,o),
(227,522,o),
(202,492,q),
(171,457,o),
(141,372,o),
(141,327,q),
(141,252,o),
(203,141,o),
(269,104,q),
(304,84,o),
(388,73,o),
(430,73,q,{
name = sv02;
}),
(483,73,l),
(510,70,o),
(537,40,o),
(537,23,q),
(537,6,o),
(510,-27,o),
(483,-27,q),
(442,-27,l,{
name = ab01;
}),
(422,-27,o),
(380,-26,o),
(359,-24,q,{
name = sv03;
}),
(357,-29,o),
(356,-41,o),
(355,-47,q,{
name = dv01;
}),
(396,-58,o),
(437,-104,o),
(437,-132,q),
(437,-178,o),
(387,-219,q),
(367,-236,o),
(320,-245,o),
(296,-245,q,{
name = sv05;
}),
(287,-245,o),
(270,-244,o),
(261,-244,q),
(238,-239,o),
(217,-210,o),
(217,-194,q),
(217,-178,o),
(238,-150,o),
(261,-144,q),
(275,-145,o),
(303,-145,o,{
name = sv04;
}),
(317,-145,q),
(323,-142,l),
(309,-138,o,{
name = dv02;
}),
(284,-129,o),
(264,-111,o),
(252,-83,o),
(252,-61,q),
(252,-32,o),
(261,-3,q,{
name = sv06;
}),
(152,45,o),
(37,217,o),
(37,322,q),
(37,393,o),
(99,529,o),
(205,636,o),
(349,702,o),
(430,702,q,{
name = av01;
})
);
}
);
width = 577;
},
{
color = 6;
layerId = "92936CB7-D294-4857-B41D-63B9425360A1";
shapes = (
{
alignment = -1;
ref = C;
},
{
pos = (490,0);
ref = cedillacomb;
}
);
userData = {
com.typemytype.robofont.mark = (
0.6,
0.986,
1,
1
);
};
width = 577;
}
);
unicode = 199;
},
{
color = 4;
glyphname = D;
kernRight = D;
layers = (
{
anchors = (
{
name = bottom;
pos = (316,0);
},
{
name = top;
pos = (389,725);
}
);
layerId = master01;
shapes = (
{
closed = 1;
nodes = (
(544,628,o),
(642,537,o),
(626,363,cs),
(608,172,o),
(435,84,o),
(173,65,cs),
(137,62,o),
(124,46,o),
(124,25,cs),
(124,-2,o),
(145,-24,o),
(184,-24,cs),
(360,-24,o),
(716,63,o),
(739,362,cs),
(756,584,o),
(599,725,o),
(333,725,cs),
(224,725,o),
(130,705,o),
(80,680,cs),
(50,665,o),
(36,650,o),
(36,628,cs),
(36,600,o),
(57,580,o),
(98,593,cs),
(179,618,o),
(259,628,o),
(341,628,cs)
);
},
{
closed = 1;
nodes = (
(154,505,o),
(147,286,o),
(158,116,cs),
(161,65,o),
(181,50,o),
(203,50,cs),
(245,50,o),
(257,85,o),
(259,117,cs),
(262,173,o),
(254,224,o),
(256,335,cs),
(258,426,o),
(261,534,o),
(269,664,c),
(167,654,l)
);
}
);
userData = {
com.typemytype.robofont.mark = (
0.619,
1,
0.6,
1
);
};
width = 782;
},
{
layerId = "8E39700C-2F6D-4A17-B4B3-161F49A69C4C";
shapes = (
{
closed = 1;
nodes = (
(445,619,o),
(376,628,o),
(341,628,q,{
name = sv01;
}),
(328,628,o),
(303,627,o),
(290,626,q),
(291,624,o),
(291,620,q),
(287,547,o),
(281,401,o),
(281,328,q),
(281,312,o),
(283,281,o),
(283,265,q),
(283,246,o),
(277,209,o),
(268,192,q),
(268,161,l),
(268,148,o),
(265,121,o),
(255,99,o),
(237,85,o),
(221,85,q,{
name = sv03;
}),
(188,85,o),
(152,132,o),
(131,187,q),
(114,231,o),
(89,326,o),
(81,361,q),
(73,393,o),
(63,458,o),
(58,491,q),
(52,534,l),
(49,552,o),
(44,577,o),
(39,596,o),
(36,613,o),
(36,624,q),
(36,675,o),
(181,725,o),
(333,725,q,{
name = at01;
}),
(417,725,o),
(574,684,o),
(633,635,q),
(681,595,o),
(741,481,o),
(741,406,q),
(741,331,o),
(685,217,o),
(644,172,q),
(595,118,o),
(474,43,o),
(349,-3,o),
(231,-24,o),
(184,-24,q,{
name = ab01;
}),
(155,-24,o),
(124,5,o),
(124,25,q),
(124,42,o),
(147,74,o),
(173,76,q,{
name = sv02;
}),
(208,78,o),
(271,85,o),
(333,99,o),
(394,120,o),
(427,136,q),
(473,158,o),
(551,218,o),
(607,287,o),
(638,362,o),
(638,400,q),
(638,468,o),
(553,580,o),
(477,608,q)
);
},
{
closed = 1;
nodes = (
(185,421,o),
(186,550,o),
(190,616,q),
(179,614,o),
(152,608,o),
(142,605,q),
(153,542,o),
(168,419,o),
(184,355,q)
);
}
);
width = 782;
},
{
anchors = (
{
name = bottom;
pos = (316,0);
},
{
name = top;
pos = (389,725);
}
);
background = {
shapes = (
{
closed = 1;
nodes = (
(360,-24,o),
(716,63,o),
(739,362,cs),
(756,584,o),
(599,725,o),
(333,725,cs),
(224,725,o),
(130,705,o),
(80,680,cs),
(50,665,o),
(36,650,o),
(36,628,cs),
(36,600,o),
(57,580,o),
(98,593,cs),
(120,600,o),
(142,605,o),
(163,610,c,{
name = sv03;
}),
(153,464,o),
(148,270,o),
(158,116,cs),
(159,91,o),
(165,75,o),
(173,65,c),
(137,62,o),
(124,46,o),
(124,25,cs),
(124,-2,o),
(145,-24,o),
(184,-24,cs)
);
},
{
closed = 1;
nodes = (
(255,85,o),
(258,101,o),
(259,117,cs),
(262,173,o),
(254,224,o),
(256,335,cs),
(258,417,o),
(260,512,o),
(267,625,c),
(291,627,o),
(316,628,o),
(341,628,cs),
(544,628,o),
(642,537,o),
(626,363,cs),
(610,191,o),
(467,102,o),
(247,73,c,{
name = sv04;
})
);
}
);
};
hints = (
{
horizontal = 1;
options = 4;
origin = (0,28);
target = (0,4);
type = TTStem;
},
{
horizontal = 1;
options = 4;
origin = (0,20);
target = (1,5);
type = TTStem;
},
{
horizontal = 1;
options = 4;
origin = (1,5);
target = (0,9);
type = TTShift;
},
{
horizontal = 1;
options = 4;
origin = (0,4);
target = (1,14);
type = TTShift;
}
);
layerId = "92936CB7-D294-4857-B41D-63B9425360A1";
shapes = (
{
closed = 1;
nodes = (
(157,-24,o),
(124,3,o),
(124,25,qs),
(124,61,o),
(173,65,q),
(160,82,o),
(158,116,qs),
(151,218,o),
(154,482,o),
(163,610,q,{
name = sv03;
}),
(125,601,o),
(98,593,qs),
(70,585,o),
(36,604,o),
(36,628,qs),
(36,644,o),
(57,669,o),
(80,680,qs),
(121,700,o),
(257,725,o),
(333,725,qs),
(464,725,o),
(654,637,o),
(748,472,o),
(739,362,qs),
(730,247,o),
(581,75,o),
(316,-24,o),
(184,-24,qs)
);
},
{
closed = 1;
nodes = (
(424,96,o),
(615,242,o),
(626,363,qs),
(638,493,o),
(493,628,o),
(341,628,qs),
(303,628,o),
(267,625,q),
(259,520,o),
(256,335,qs),
(255,277,o),
(260,144,o),
(259,117,qs),
(258,88,o),
(247,73,q,{
name = sv04;
})
);
}
);
userData = {
com.typemytype.robofont.mark = (
0.656,
1,
0.6,
1
);
};
width = 782;
}
);
unicode = 68;
},
{
color = 4;
glyphname = Eth;
kernRight = D;
layers = (
{
anchors = (
{
name = bottom;
pos = (334,0);
},
{
name = top;
pos = (407,725);
}
);
background = {
shapes = (
{
closed = 1;
nodes = (
(94,321,o),
(130,322,o),
(166,324,c),
(163,264,o),
(162,205,o),
(162,145,cs),
(162,132,o),
(165,121,o),
(170,112,c),
(151,117,o),
(136,126,o),
(121,126,cs),
(92,126,o),
(72,104,o),
(72,80,cs),
(72,18,o),
(182,5,o),
(242,5,cs),
(339,5,o),
(497,19,o),
(585,75,cs),
(669,128,o),
(710,206,o),
(710,321,cs),
(710,604,o),
(534,767,o),
(147,767,cs),
(84,767,o),
(32,752,o),
(32,709,cs),
(32,684,o),
(51,661,o),
(87,661,cs),
(108,661,o),
(128,667,o),
(149,667,cs),
(166,667,o),
(188,666,o),
(199,665,c),
(188,658,o),
(174,640,o),
(174,628,cs),
(173,559,o),
(170,493,o),
(169,424,c),
(107,421,o),
(14,434,o),
(14,371,cs),
(14,350,o),
(27,328,o),
(58,321,c)
);
},
{
closed = 1;
nodes = (
(262,201,o),
(263,264,o),
(266,328,c),
(336,331,o),
(442,318,o),
(442,382,cs),
(442,405,o),
(424,428,o),
(388,432,c),
(348,431,o),
(309,431,o),
(270,428,c),
(273,493,o),
(273,558,o),
(274,623,c),
(271,642,o),
(262,656,o),
(251,664,c),
(495,651,o),
(610,521,o),
(610,312,cs),
(610,130,o),
(419,108,o),
(247,103,c),
(255,112,o),
(260,124,o),
(262,137,c)
);
}
);
};
layerId = master01;
shapes = (
{
closed = 1;
nodes = (
(369,-24,o),
(708,63,o),
(730,362,cs),
(746,584,o),
(599,725,o),
(351,725,cs),
(242,725,o),
(148,705,o),
(98,680,cs),
(68,665,o),
(54,650,o),
(54,628,cs),
(54,600,o),
(75,580,o),
(116,593,cs),
(197,619,o),
(277,628,o),
(359,628,cs),
(543,628,o),
(631,537,o),
(617,363,cs),
(602,172,o),
(437,85,o),
(191,65,cs),
(155,62,o),
(142,46,o),
(142,25,cs),
(142,-2,o),
(163,-24,o),
(202,-24,cs)
);
},
{
closed = 1;
nodes = (
(257,50,o),
(269,85,o),
(271,117,cs),
(274,173,o),
(266,224,o),
(268,335,cs),
(270,426,o),
(273,534,o),
(281,664,c),
(179,654,l),
(166,505,o),
(160,286,o),
(170,116,cs),
(173,65,o),
(193,50,o),
(215,50,cs)
);
},
{
closed = 1;
nodes = (
(138,322,o),
(288,333,o),
(401,338,cs),
(469,341,o),
(459,433,o),
(391,433,cs),
(293,433,o),
(173,420,o),
(75,407,cs),
(0,397,o),
(10,311,o),
(80,317,cs)
);
}
);
width = 758;
},
{
layerId = "8E39700C-2F6D-4A17-B4B3-161F49A69C4C";
shapes = (
{
closed = 1;
nodes = (
(35,326,o),
(14,355,o),
(14,371,q),
(14,395,o),
(45,416,o),
(91,424,o),
(146,423,o),
(169,424,q,{
name = sv01;
}),
(170,476,o),
(173,576,o),
(174,628,q),
(174,637,o),
(191,660,o),
(199,665,q),
(191,666,o),
(162,667,o),
(149,667,q,{
name = sv02;
}),
(133,667,o),
(103,661,o),
(87,661,q),
(60,661,o),
(32,690,o),
(32,709,q),
(32,725,o),
(50,747,o),
(82,761,o),
(123,767,o),
(147,767,q,{
name = at01;
}),
(292,767,o),
(504,707,o),
(643,593,o),
(710,427,o),
(710,321,q),
(710,235,o),
(648,115,o),
(585,75,q),
(552,54,o),
(464,27,o),
(370,11,o),
(278,5,o),
(242,5,q,{
name = ab01;
}),
(219,5,o),
(161,11,o),
(108,27,o),
(72,57,o),
(72,80,q),
(72,98,o),
(99,126,o),
(121,126,q),
(132,126,o),
(156,116,o),
(170,112,q,{
name = sv04;
}),
(162,126,o),
(162,145,q),
(162,190,o),
(164,279,o),
(166,324,q,{
name = sv05;
}),
(112,321,o),
(58,321,q)
);
},
{
closed = 1;
nodes = (
(259,117,o),
(247,103,q,{
name = sv03;
}),
(311,105,o),
(441,120,o),
(545,163,o),
(610,243,o),
(610,312,q),
(610,469,o),
(434,654,o),
(251,664,q,{
name = sv06;
}),
(259,658,o),
(272,637,o),
(274,623,q),
(273,574,o),
(272,477,o),
(270,428,q,{
name = dv02;
}),
(299,430,o),
(358,431,o),
(388,432,q),
(415,429,o),
(442,399,o),
(442,382,q),
(442,358,o),
(407,336,o),
(354,328,o),
(292,329,o),
(266,328,q,{
name = dv01;
}),
(264,280,o),
(262,185,o),
(262,137,q)
);
}
);
width = 758;
},
{
background = {
shapes = (
{
closed = 1;
nodes = (
(369,-24,o),
(708,63,o),
(730,362,cs),
(746,584,o),
(599,725,o),
(351,725,cs),
(242,725,o),
(148,705,o),
(98,680,cs),
(68,665,o),
(54,650,o),
(54,628,cs),
(54,600,o),
(75,580,o),
(116,593,cs),
(136,599,o),
(156,605,o),
(175,609,c),
(171,551,o),
(168,486,o),
(166,418,c),
(135,415,o),
(104,411,o),
(75,407,cs),
(0,397,o),
(10,311,o),
(80,317,cs),
(100,319,o),
(130,321,o),
(165,324,c,{
name = sv05;
}),
(165,252,o),
(166,180,o),
(170,116,cs),
(171,91,o),
(177,75,o),
(185,64,c),
(154,60,o),
(142,45,o),
(142,25,cs),
(142,-2,o),
(163,-24,o),
(202,-24,cs)
);
},
{
closed = 1;
nodes = (
(267,85,o),
(270,101,o),
(271,117,cs),
(274,172,o),
(266,223,o),
(268,331,c),
(313,334,o),
(360,336,o),
(401,338,cs),
(469,341,o),
(459,433,o),
(391,433,cs),
(353,433,o),
(312,431,o),
(270,428,c,{
name = dv02;
}),
(272,487,o),
(275,552,o),
(279,625,c),
(305,627,o),
(332,628,o),
(359,628,cs),
(543,628,o),
(631,537,o),
(617,363,cs),
(603,190,o),
(467,102,o),
(259,73,c)
);
}
);
};
hints = (
{
horizontal = 1;
options = 4;
origin = (0,37);
target = (0,4);
type = TTStem;
},
{
horizontal = 1;
options = 4;
origin = (0,4);
target = (1,22);
type = TTShift;
},
{
horizontal = 1;
options = 4;
origin = (0,29);
target = (1,4);
type = TTStem;
},
{
horizontal = 1;
options = 8;
origin = (0,37);
other1 = (1,16);
target = (0,29);
type = TTInterpolate;
},
{
horizontal = 1;
options = 4;
origin = (1,16);
target = (1,8);
type = TTStem;
},
{
horizontal = 1;
options = 4;
origin = (1,16);
target = (0,8);
type = TTShift;
},
{
horizontal = 1;
options = 4;
origin = (1,8);
target = (0,16);
type = TTShift;
},
{
horizontal = 1;
options = 4;
origin = (1,4);
target = (0,18);
type = TTShift;
}
);
layerId = "92936CB7-D294-4857-B41D-63B9425360A1";
shapes = (
{
closed = 1;
nodes = (
(175,-24,o),
(142,3,o),
(142,25,qs),
(142,58,o),
(185,64,q),
(171,83,o),
(170,116,qs),
(165,196,o),
(165,324,q,{
name = sv05;
}),
(80,317,ls),
(55,315,o),
(24,339,o),
(22,377,o),
(51,404,o),
(75,407,qs),
(128,414,o),
(166,418,q),
(169,523,o),
(175,609,q),
(156,606,o),
(116,593,qs),
(88,584,o),
(54,604,o),
(54,628,qs),
(54,644,o),
(75,669,o),
(98,680,qs),
(139,700,o),
(275,725,o),
(351,725,qs),
(473,725,o),
(651,636,o),
(738,472,o),
(730,362,qs),
(722,247,o),
(580,76,o),
(328,-24,o),
(202,-24,qs)
);
},
{
closed = 1;
nodes = (
(597,120,o),
(617,363,qs),
(628,494,o),
(497,628,o),
(359,628,qs),
(318,628,o),
(279,625,q),
(273,514,o),
(270,428,q,{
name = dv02;
}),
(340,433,o),
(391,433,qs),
(415,433,o),
(446,405,o),
(449,365,o),
(423,339,o),
(401,338,qs),
(268,331,l),
(266,291,o),
(270,199,qs),
(273,140,o),
(271,117,qs),
(269,88,o),
(259,73,q)
);
}
);
width = 758;
}
);
unicode = 208;
},
{
color = 4;
glyphname = E;
kernLeft = E;
kernRight = E;
layers = (
{
anchors = (
{
name = bottom;
pos = (291,0);
},
{
name = top;
pos = (300,725);
}
);
layerId = master01;
shapes = (
{
closed = 1;
nodes = (
(121,649,l),
(224,648,o),
(370,641,o),
(475,641,cs),
(512,641,o),
(529,661,o),
(529,687,cs),
(529,715,o),
(507,735,o),
(475,737,cs),
(395,743,o),
(216,743,o),
(151,743,cs),
(106,743,o),
(73,727,o),
(70,678,cs),
(60,491,o),
(56,223,o),
(59,75,cs),
(60,33,o),
(67,-8,o),
(134,-8,cs),
(245,-8,o),
(383,-6,o),
(458,-2,cs),
(495,0,o),
(518,20,o),
(518,50,cs),
(518,80,o),
(495,96,o),
(457,96,cs),
(391,96,o),
(254,92,o),
(118,85,c),
(164,32,l),
(153,224,o),
(167,486,o),
(172,684,c)
);
},
{
closed = 1;
nodes = (
(393,338,o),
(416,357,o),
(416,385,cs),
(416,411,o),
(396,429,o),
(362,431,cs),
(296,435,o),
(187,436,o),
(117,432,c),
(117,341,l),
(199,339,o),
(286,335,o),
(362,337,cs)
);
}
);
userData = {
com.typemytype.robofont.mark = (
0.619,
1,
0.6,
1
);
};
width = 566;
},
{
layerId = "8E39700C-2F6D-4A17-B4B3-161F49A69C4C";
shapes = (
{
closed = 1;
nodes = (
(70,715,o),
(136,744,o),
(208,744,q,{
name = at01;
}),
(274,744,o),
(407,737,o),
(475,737,q,{
name = at02;
}),
(499,737,o),
(529,704,o),
(529,687,q),
(529,670,o),
(499,637,o),
(475,637,q,{
name = sv01;
}),
(396,637,o),
(247,643,o),
(170,644,q,{
name = sv02;
}),
(168,592,o),
(163,489,o),
(161,437,q,{
name = dv02;
}),
(211,436,o),
(311,435,o),
(362,435,q),
(385,435,o),
(416,406,o),
(416,385,q),
(416,364,o),
(385,335,o),
(362,335,q),
(311,335,o),
(209,336,o),
(158,337,q,{
name = dv01;
}),
(156,296,o),
(156,216,o),
(156,175,q),
(156,154,o),
(158,112,o),
(160,91,q,{
name = sv03;
}),
(198,91,o),
(280,93,o),
(360,96,o),
(434,98,o),
(464,98,q,{
name = sv04;
}),
(487,98,o),
(518,69,o),
(518,48,q),
(518,27,o),
(487,-2,o),
(464,-2,q,{
name = ab01;
}),
(433,-2,o),
(353,-4,o),
(262,-6,o),
(165,-8,o),
(117,-8,q,{
name = ab02;
}),
(78,-8,o),
(56,85,o),
(56,170,q),
(56,232,o),
(60,365,o),
(66,497,o),
(70,623,o),
(70,678,q)
);
}
);
width = 566;
},
{
anchors = (
{
name = bottom;
pos = (291,0);
},
{
name = top;
pos = (300,725);
}
);
background = {
shapes = (
{
closed = 1;
nodes = (
(245,-8,o),
(383,-6,o),
(458,-2,cs),
(495,0,o),
(518,20,o),
(518,50,cs),
(518,80,o),
(495,96,o),
(457,96,cs),
(398,96,o),
(282,93,o),
(162,87,c,{
name = sv02;
}),
(159,165,o),
(160,252,o),
(162,340,c),
(230,338,o),
(300,335,o),
(362,337,cs),
(393,338,o),
(416,357,o),
(416,385,cs),
(416,411,o),
(396,429,o),
(362,431,cs),
(309,434,o),
(230,435,o),
(164,434,c),
(166,508,o),
(169,581,o),
(171,648,c,{
name = sv01;
}),
(268,646,o),
(386,641,o),
(475,641,cs),
(512,641,o),
(529,661,o),
(529,687,cs),
(529,715,o),
(507,735,o),
(475,737,cs),
(395,743,o),
(216,743,o),
(151,743,cs),
(106,743,o),
(73,727,o),
(70,678,cs),
(60,491,o),
(56,223,o),
(59,75,cs),
(60,33,o),
(67,-8,o),
(134,-8,cs)
);
}
);
};
hints = (
{
horizontal = 1;
options = 4;
origin = (0,38);
target = (0,32);
type = TTStem;
},
{
horizontal = 1;
options = 4;
origin = (0,7);
target = (0,17);
type = TTStem;
},
{
horizontal = 1;
options = 8;
origin = (0,38);
other1 = (0,26);
target = (0,7);
type = TTInterpolate;
},
{
horizontal = 1;
options = 4;
origin = (0,26);
target = (0,20);
type = TTStem;
}
);
layerId = "92936CB7-D294-4857-B41D-63B9425360A1";
shapes = (
{
closed = 1;
nodes = (
(96,-8,o),
(60,28,o),
(59,75,qs),
(57,193,o),
(63,545,o),
(70,678,qs),
(73,743,o),
(151,743,qs),
(395,743,o),
(475,737,qs),
(499,735,o),
(529,708,o),
(529,687,qs),
(529,666,o),
(501,641,o),
(475,641,qs),
(387,641,o),
(171,648,q,{
name = sv01;
}),
(164,434,l),
(278,437,o),
(362,431,qs),
(387,429,o),
(416,405,o),
(416,385,qs),
(416,364,o),
(385,338,o),
(362,337,qs),
(264,334,o),
(162,340,q),
(158,181,o),
(162,87,q,{
name = sv02;
}),
(342,96,o),
(457,96,qs),
(486,96,o),
(518,72,o),
(518,50,qs),
(518,27,o),
(486,-1,o),
(458,-2,qs),
(346,-8,o),
(134,-8,qs)
);
}
);
userData = {
com.typemytype.robofont.mark = (
0.656,
1,
0.6,
1
);
};
width = 566;
}
);
unicode = 69;
},
{
color = 4;
glyphname = Eacute;
kernLeft = E;
kernRight = E;
layers = (
{
background = {
shapes = (
{
closed = 1;
nodes = (
(255,-5,o),
(327,4,o),
(395,5,c),
(431,8,o),
(449,32,o),
(449,55,cs),
(449,78,o),
(431,101,o),
(395,105,c),
(308,102,o),
(225,99,o),
(138,99,c),
(142,163,o),
(147,227,o),
(154,291,c),
(333,291,l),
(369,294,o),
(387,318,o),
(387,341,cs),
(387,364,o),
(369,387,o),
(333,391,c),
(164,391,l),
(171,451,o),
(175,509,o),
(178,569,c),
(195,569,o),
(211,571,o),
(228,571,cs),
(469,572,l),
(505,575,o),
(523,599,o),
(523,622,cs),
(523,645,o),
(505,668,o),
(469,672,c),
(192,671,ls),
(155,671,o),
(76,667,o),
(76,611,cs),
(76,606,o),
(77,601,o),
(79,596,c),
(71,428,o),
(37,257,o),
(37,90,cs),
(37,75,o),
(37,60,o),
(38,45,c),
(47,20,o),
(57,10,o),
(84,3,cs),
(116,-4,o),
(149,-5,o),
(184,-5,cs)
);
},
{
closed = 1;
nodes = (
(309,691,o),
(336,723,o),
(353,735,c),
(409,767,o),
(500,784,o),
(500,835,cs),
(500,860,o),
(480,882,o),
(449,882,cs),
(442,882,o),
(437,883,o),
(430,880,cs),
(367,855,o),
(311,831,o),
(260,788,c),
(253,786,l),
(233,773,o),
(225,756,o),
(225,739,cs),
(225,714,o),
(245,691,o),
(272,691,cs)
);
}
);
};
layerId = master01;
shapes = (
{
closed = 1;
nodes = (
(153,243,o),
(171,409,o),
(178,576,c),
(463,576,ls),
(505,576,o),
(523,599,o),
(523,622,cs),
(523,645,o),
(510,672,o),
(459,672,cs),
(377,672,o),
(253,672,o),
(150,668,cs),
(102,666,o),
(68,646,o),
(79,596,c),
(70,426,o),
(54,259,o),
(36,75,cs),
(32,38,o),
(45,7,o),
(98,-1,cs),
(119,-4,o),
(149,-5,o),
(184,-5,cs),
(255,-5,o),
(332,0,o),
(395,5,cs),
(431,8,o),
(449,32,o),
(449,55,cs),
(449,78,o),
(431,100,o),
(395,100,cs),
(336,100,o),
(188,93,o),
(89,86,c),
(134,76,l)
);
},
{
closed = 1;
nodes = (
(252,689,o),
(307,715,cs),
(411,764,o),
(500,784,o),
(500,838,cs),
(500,870,o),
(473,895,o),
(430,880,cs),
(359,855,o),
(302,824,o),
(253,786,cs),
(234,771,o),
(225,756,o),
(225,739,cs),
(225,714,o)
);
},
{
closed = 1;
nodes = (
(328,294,ls),
(369,294,o),
(387,315,o),
(387,341,cs),
(387,367,o),
(369,392,o),
(324,391,cs),
(148,388,l),
(138,295,l)
);
}
);
width = 549;
},
{
layerId = "8E39700C-2F6D-4A17-B4B3-161F49A69C4C";
shapes = (
{
closed = 1;
nodes = (
(37,56,o),
(37,79,o),
(37,90,q),
(37,153,o),
(48,279,o),
(62,406,o),
(76,533,o),
(79,596,q),
(76,603,o),
(76,611,q),
(76,632,o),
(102,656,o),
(138,668,o),
(178,671,o),
(192,671,q,{
name = av01;
}),
(469,672,l),
(496,669,o),
(523,639,o),
(523,622,q),
(523,605,o),
(496,574,o),
(469,572,q),
(228,571,l,{
name = sv01;
}),
(215,571,o),
(191,569,o),
(178,569,q),
(176,524,o),
(169,436,o),
(164,391,q,{
name = dv02;
}),
(333,391,l),
(360,388,o),
(387,358,o),
(387,341,q),
(387,324,o),
(360,293,o),
(333,291,q),
(154,291,l,{
name = dv01;
}),
(149,243,o),
(141,147,o),
(138,99,q,{
name = sv02;
}),
(203,99,o),
(330,103,o),
(395,105,q),
(422,102,o),
(449,72,o),
(449,55,q),
(449,38,o),
(422,7,o),
(395,5,q),
(344,4,o),
(237,-5,o),
(184,-5,q,{
name = ab01;
}),
(158,-5,o),
(108,-2,o),
(84,3,q),
(64,8,o),
(45,26,o),
(38,45,q)
);
},
{
closed = 1;
nodes = (
(346,730,o),
(330,716,o),
(310,701,o),
(286,691,o),
(272,691,q,{
name = av02;
}),
(252,691,o),
(225,720,o),
(225,739,q),
(225,752,o),
(238,776,o),
(253,786,q),
(260,788,l),
(298,820,o),
(383,861,o),
(430,880,q),
(435,882,o),
(444,882,o),
(449,882,q,{
name = sv03;
}),
(472,882,o),
(500,854,o),
(500,835,q),
(500,816,o),
(470,789,o),
(425,767,o),
(374,747,o),
(353,735,q)
);
}
);
width = 549;
},
{
background = {
shapes = (
{
closed = 1;
nodes = (
(411,764,o),
(500,784,o),
(500,838,cs),
(500,870,o),
(473,895,o),
(430,880,cs),
(359,855,o),
(302,824,o),
(253,786,cs),
(234,771,o),
(225,756,o),
(225,739,cs),
(225,714,o),
(252,689,o),
(307,715,cs)
);
},
{
closed = 1;
nodes = (
(377,672,o),
(253,672,o),
(150,668,cs),
(102,666,o),
(68,646,o),
(79,596,c),
(70,426,o),
(54,259,o),
(36,75,cs),
(32,38,o),
(45,7,o),
(98,-1,cs),
(119,-4,o),
(149,-5,o),
(184,-5,cs),
(255,-5,o),
(332,0,o),
(395,5,cs),
(431,8,o),
(449,32,o),
(449,55,cs),
(449,78,o),
(431,100,o),
(395,100,cs),
(345,100,o),
(230,95,o),
(135,89,c),
(143,158,o),
(151,226,o),
(158,295,c),
(328,294,ls),
(369,294,o),
(387,315,o),
(387,341,cs),
(387,367,o),
(369,392,o),
(324,391,cs),
(166,388,l),
(171,451,o),
(175,513,o),
(178,576,c),
(463,576,ls),
(505,576,o),
(523,599,o),
(523,622,cs),
(523,645,o),
(510,672,o),
(459,672,cs)
);
}
);
};
hints = (
{
horizontal = 1;
options = 4;
origin = (0,40);
target = (0,31);
type = TTStem;
},
{
horizontal = 1;
options = 4;
origin = (0,11);
target = (0,17);
type = TTStem;
},
{
horizontal = 1;
origin = (1,0);
stem = -1;
target = (1,7);
type = TTStem;
},
{
horizontal = 1;
options = 8;
origin = (0,40);
other1 = (0,27);
target = (0,11);
type = TTInterpolate;
},
{
horizontal = 1;
options = 4;
origin = (0,27);
target = (0,21);
type = TTStem;
},
{
horizontal = 1;
origin = (0,11);
type = TTSnap;
}
);
layerId = "92936CB7-D294-4857-B41D-63B9425360A1";
shapes = (
{
closed = 1;
nodes = (
(126,-5,o),
(98,-1,qs),
(29,9,o),
(36,75,qs),
(58,281,o),
(74,501,o),
(79,596,q),
(72,630,o),
(109,666,o),
(150,668,qs),
(253,672,o),
(459,672,qs),
(491,672,o),
(523,645,o),
(523,622,qs),
(523,602,o),
(491,576,o),
(463,576,qs),
(178,576,l),
(174,484,o),
(166,388,q),
(324,391,ls),
(354,392,o),
(387,364,o),
(387,341,qs),
(387,319,o),
(356,294,o),
(328,294,qs),
(158,295,l),
(152,234,o),
(135,89,q),
(309,100,o),
(395,100,qs),
(420,100,o),
(449,74,o),
(449,55,qs),
(449,35,o),
(420,7,o),
(393,5,qs),
(269,-5,o),
(184,-5,qs)
);
},
{
closed = 1;
nodes = (
(283,704,o),
(246,704,o),
(225,724,o),
(225,739,qs),
(225,764,o),
(253,786,qs),
(328,845,o),
(430,880,qs),
(460,890,o),
(500,864,o),
(500,838,qs),
(500,810,o),
(445,774,o),
(379,746,qs),
(339,729,o),
(307,715,qs)
);
}
);
width = 549;
}
);
unicode = 201;
},
{
color = 4;
glyphname = Ecircumflex;
kernLeft = E;
kernRight = E;
layers = (
{
background = {
shapes = (
{
closed = 1;
nodes = (
(73,521,o),
(40,338,o),
(40,151,cs),
(40,83,o),
(43,-16,o),
(124,-16,cs),
(229,-16,o),
(330,10,o),
(435,15,c),
(471,18,o),
(489,42,o),
(489,65,cs),
(489,88,o),
(471,111,o),
(435,115,c),
(336,110,o),
(242,94,o),
(143,86,c),
(142,109,o),
(141,132,o),
(141,155,cs),
(141,216,o),
(145,277,o),
(150,338,c),
(206,337,o),
(259,335,o),
(315,335,c),
(351,338,o),
(369,362,o),
(369,385,cs),
(369,408,o),
(351,431,o),
(315,435,c),
(263,435,o),
(211,437,o),
(160,438,c),
(182,646,l),
(201,646,o),
(217,647,o),
(236,647,cs),
(275,647,o),
(315,646,o),
(354,646,cs),
(407,646,o),
(460,647,o),
(513,654,c),
(540,665,o),
(551,685,o),
(551,704,cs),
(551,727,o),
(532,750,o),
(497,753,c),
(450,746,o),
(403,745,o),
(356,745,cs),
(312,745,o),
(269,747,o),
(225,747,cs),
(200,747,o),
(175,748,o),
(151,745,c),
(146,746,o),
(142,747,o),
(137,747,cs),
(117,747,o),
(97,733,o),
(86,705,c)
);
},
{
closed = 1;
nodes = (
(247,837,o),
(285,852,o),
(317,869,c),
(340,842,o),
(364,820,o),
(391,800,cs),
(402,792,o),
(411,784,o),
(420,775,cs),
(435,760,o),
(444,754,o),
(460,754,cs),
(487,754,o),
(508,775,o),
(508,807,cs),
(508,851,o),
(458,869,o),
(431,894,c),
(399,921,o),
(379,972,o),
(328,972,cs),
(268,972,o),
(179,912,o),
(147,878,c),
(137,864,o),
(132,851,o),
(132,839,cs),
(132,812,o),
(153,791,o),
(178,791,cs),
(193,791,o),
(207,797,o),
(220,810,cs)
);
}
);
};
color = 6;
layerId = master01;
shapes = (
{
alignment = -1;
ref = E;
},
{
pos = (666,45);
ref = circumflexcomb.case;
}
);
width = 571;
},
{
layerId = "8E39700C-2F6D-4A17-B4B3-161F49A69C4C";
shapes = (
{
closed = 1;
nodes = (
(94,726,o),
(122,747,o),
(137,747,q),
(141,747,o),
(147,746,o),
(151,745,q),
(169,747,o),
(206,747,o),
(225,747,q),
(258,747,o),
(323,745,o),
(356,745,q,{
name = at01;
}),
(391,745,o),
(462,748,o),
(497,753,q),
(523,751,o),
(551,721,o),
(551,704,q),
(551,690,o),
(533,662,o),
(513,654,q),
(473,649,o),
(394,646,o),
(354,646,q,{
name = sv01;
}),
(325,646,o),
(265,647,o),
(236,647,q),
(222,647,o),
(196,646,o),
(182,646,q),
(177,594,o),
(165,490,o),
(160,438,q,{
name = dv02;
}),
(198,437,o),
(276,435,o),
(315,435,q),
(342,432,o),
(369,402,o),
(369,385,q),
(369,368,o),
(342,337,o),
(315,335,q),
(273,335,o),
(192,337,o),
(150,338,q,{
name = dv01;
}),
(146,292,o),
(141,201,o),
(141,155,q),
(141,138,o),
(142,103,o),
(143,86,q,{
name = sv02;
}),
(217,92,o),
(361,111,o),
(435,115,q),
(462,112,o),
(489,82,o),
(489,65,q),
(489,48,o),
(462,17,o),
(435,15,q),
(396,13,o),
(318,3,o),
(241,-8,o),
(163,-16,o),
(124,-16,q,{
name = ab01;
}),
(94,-16,o),
(60,17,o),
(43,67,o),
(40,125,o),
(40,151,q),
(40,221,o),
(51,360,o),
(66,498,o),
(81,636,o),
(86,705,q)
);
},
{
closed = 1;
nodes = (
(200,791,o),
(178,791,q),
(159,791,o),
(132,819,o),
(132,839,q),
(132,857,o),
(147,878,q),
(159,891,o),
(202,923,o),
(252,952,o),
(305,972,o),
(328,972,q,{
name = dv04;
}),
(347,972,o),
(375,955,o),
(398,931,o),
(419,904,o),
(431,894,q),
(441,885,o),
(468,868,o),
(492,848,o),
(508,823,o),
(508,807,q),
(508,783,o),
(480,754,o),
(460,754,q),
(448,754,o),
(431,764,o),
(420,775,q),
(407,788,o),
(391,800,q),
(371,815,o),
(334,849,o),
(317,869,q,{
name = dv03;
}),
(293,856,o),
(240,830,o),
(220,810,q)
);
}
);
width = 571;
},
{
color = 6;
layerId = "92936CB7-D294-4857-B41D-63B9425360A1";
shapes = (
{
alignment = -1;
ref = E;
},
{
pos = (666,45);
ref = circumflexcomb.case;
}
);
width = 571;
}
);
unicode = 202;
},
{
glyphname = Egrave;
kernLeft = E;
kernRight = E;
layers = (
{
color = 6;
layerId = master01;
shapes = (
{
alignment = -1;
ref = E.001;
},
{
pos = (690,68);
ref = gravecomb.case;
}
);
userData = {
com.typemytype.robofont.mark = (
0.6,
0.741,
1,
1
);
};
width = 541;
},
{
layerId = "8E39700C-2F6D-4A17-B4B3-161F49A69C4C";
shapes = (
{
closed = 1;
nodes = (
(71,739,o),
(97,769,o),
(120,776,q,{
name = at01;
}),
(204,774,o),
(368,760,o),
(452,758,q),
(479,755,o),
(506,725,o),
(506,708,q),
(506,691,o),
(479,660,o),
(452,658,q),
(379,660,o),
(236,671,o),
(163,674,q,{
name = sv01;
}),
(161,616,o),
(155,501,o),
(152,444,q,{
name = dv02;
}),
(193,443,o),
(273,441,o),
(314,441,q),
(341,438,o),
(368,408,o),
(368,391,q),
(368,374,o),
(341,343,o),
(314,341,q),
(272,341,o),
(190,343,o),
(148,344,q,{
name = dv01;
}),
(146,308,o),
(146,238,o),
(146,205,q),
(146,179,o),
(149,130,o),
(154,105,q,{
name = sv02;
}),
(177,107,l),
(249,114,o),
(395,119,o),
(473,119,q),
(493,119,o),
(530,116,o),
(559,105,o),
(576,85,o),
(576,68,q),
(576,51,o),
(547,18,o),
(522,18,q),
(481,18,o),
(380,18,o),
(275,15,o),
(176,9,o),
(137,4,q,{
name = ab01;
}),
(134,3,o),
(127,3,o),
(124,3,q),
(101,3,o),
(71,30,o),
(53,77,o),
(46,142,o),
(46,180,q),
(46,317,o),
(61,586,o),
(65,722,q)
);
},
{
closed = 1;
nodes = (
(211,899,o),
(197,924,o),
(197,937,q),
(197,955,o),
(224,983,o),
(246,983,q,{
name = sv03;
}),
(256,983,o),
(291,968,o),
(331,942,o),
(374,909,o),
(408,875,o),
(430,841,o),
(430,828,q),
(430,808,o),
(402,781,o),
(382,781,q,{
name = at02;
}),
(374,781,o),
(357,786,o),
(348,792,q),
(320,820,o),
(262,870,o),
(227,889,q)
);
}
);
width = 541;
},
{
color = 6;
layerId = "92936CB7-D294-4857-B41D-63B9425360A1";
shapes = (
{
alignment = -1;
ref = E.001;
},
{
pos = (690,68);
ref = gravecomb.case;
}
);
userData = {
com.typemytype.robofont.mark = (
0.6,
0.986,
1,
1
);
};
width = 541;
}
);
unicode = 200;
},
{
glyphname = Schwa;
layers = (
{
anchors = (
{
name = bottom;
pos = (330,0);
},
{
name = top;
pos = (305,695);
}
);
layerId = master01;
shapes = (
{
closed = 1;
nodes = (
(199,602,o),
(259,621,o),
(302,621,cs),
(415,621,o),
(488,503,o),
(501,359,c),
(426,356,o),
(353,354,o),
(278,354,cs),
(223,354,o),
(166,359,o),
(117,359,cs),
(62,359,o),
(22,348,o),
(22,299,cs),
(22,282,o),
(26,262,o),
(35,238,c),
(83,91,o),
(188,-26,o),
(356,-26,cs),
(415,-26,o),
(494,-10,o),
(528,42,cs),
(584,125,o),
(604,229,o),
(604,311,cs),
(604,457,o),
(548,616,o),
(446,683,c),
(402,710,o),
(367,720,o),
(297,720,cs),
(176,720,o),
(50,628,o),
(50,549,cs),
(50,518,o),
(74,498,o),
(99,498,cs),
(126,498,o),
(143,515,o),
(151,549,c)
);
},
{
closed = 1;
nodes = (
(476,159,o),
(461,130,o),
(446,99,c),
(404,78,l),
(395,75,o),
(384,73,o),
(369,73,cs),
(278,73,o),
(188,127,o),
(150,210,cs),
(143,225,o),
(139,243,o),
(132,260,c),
(176,260,o),
(221,253,o),
(262,253,cs),
(342,253,o),
(421,259,o),
(501,259,c),
(498,236,o),
(494,214,o),
(487,191,cs)
);
}
);
width = 649;
},
{
layerId = "8E39700C-2F6D-4A17-B4B3-161F49A69C4C";
shapes = (
{
closed = 1;
nodes = (
(139,498,o),
(99,498,q),
(80,498,o),
(50,526,o),
(50,549,q),
(50,579,o),
(93,639,o),
(163,689,o),
(252,720,o),
(297,720,q,{
name = at01;
}),
(323,720,o),
(364,716,o),
(399,708,o),
(430,693,o),
(446,683,q),
(484,658,o),
(543,576,o),
(583,477,o),
(604,366,o),
(604,311,q),
(604,280,o),
(596,212,o),
(578,142,o),
(549,73,o),
(528,42,q),
(515,22,o),
(475,-4,o),
(428,-19,o),
(378,-26,o),
(356,-26,q,{
name = ab01;
}),
(293,-26,o),
(190,15,o),
(111,87,o),
(53,183,o),
(35,238,q),
(22,274,o),
(22,299,q,{
name = iv01;
}),
(22,336,o),
(76,359,o),
(117,359,q),
(154,359,o),
(237,354,o),
(278,354,q),
(334,354,o),
(445,357,o),
(501,359,q,{
name = dv02;
}),
(496,413,o),
(465,508,o),
(413,580,o),
(344,621,o),
(302,621,q,{
name = sv01;
}),
(270,621,o),
(187,589,o),
(151,549,q)
);
},
{
closed = 1;
nodes = (
(497,225,o),
(501,259,q,{
name = dv01;
}),
(441,259,o),
(322,253,o),
(262,253,q),
(231,253,o),
(165,260,o),
(132,260,q),
(137,247,o),
(145,221,o),
(150,210,q),
(164,179,o),
(210,128,o),
(269,92,o),
(335,73,o),
(369,73,q,{
name = sv02;
}),
(391,73,o),
(404,78,q),
(446,99,l),
(457,122,o),
(479,167,o),
(487,191,q)
);
}
);
width = 649;
},
{
anchors = (
{
name = bottom;
pos = (330,0);
},
{
name = top;
pos = (305,695);
}
);
layerId = "92936CB7-D294-4857-B41D-63B9425360A1";
shapes = (
{
closed = 1;
nodes = (
(293,-26,o),
(190,15,o),
(111,87,o),
(53,183,o),
(35,238,q),
(22,274,o),
(22,299,q,{
name = iv01;
}),
(22,336,o),
(76,359,o),
(117,359,q),
(154,359,o),
(237,354,o),
(278,354,q),
(334,354,o),
(445,357,o),
(501,359,q,{
name = dv02;
}),
(496,413,o),
(465,508,o),
(413,580,o),
(344,621,o),
(302,621,q,{
name = sv01;
}),
(270,621,o),
(187,589,o),
(151,549,q),
(139,498,o),
(99,498,q),
(80,498,o),
(50,526,o),
(50,549,q),
(50,579,o),
(93,639,o),
(163,689,o),
(252,720,o),
(297,720,q,{
name = at01;
}),
(323,720,o),
(364,716,o),
(399,708,o),
(430,693,o),
(446,683,q),
(484,658,o),
(543,576,o),
(583,477,o),
(604,366,o),
(604,311,q),
(604,280,o),
(596,212,o),
(578,142,o),
(549,73,o),
(528,42,q),
(515,22,o),
(475,-4,o),
(428,-19,o),
(378,-26,o),
(356,-26,q,{
name = ab01;
})
);
},
{
closed = 1;
nodes = (
(391,73,o),
(404,78,q),
(446,99,l),
(457,122,o),
(479,167,o),
(487,191,q),
(497,225,o),
(501,259,q,{
name = dv01;
}),
(441,259,o),
(322,253,o),
(262,253,q),
(231,253,o),
(165,260,o),
(132,260,q),
(137,247,o),
(145,221,o),
(150,210,q),
(164,179,o),
(210,128,o),
(269,92,o),
(335,73,o),
(369,73,q,{
name = sv02;
})
);
}
);
width = 649;
}
);
unicode = 399;
},
{
color = 4;
glyphname = F;
kernLeft = F;
kernRight = F;
layers = (
{
anchors = (
{
name = bottom;
pos = (162,5);
},
{
name = top;
pos = (338,725);
}
);
layerId = master01;
shapes = (
{
closed = 1;
nodes = (
(190,635,o),
(432,633,o),
(544,638,cs),
(580,640,o),
(597,659,o),
(597,684,cs),
(597,714,o),
(579,735,o),
(527,734,cs),
(389,730,o),
(258,727,o),
(112,734,cs),
(39,737,o),
(34,650,o),
(100,644,cs)
);
},
{
closed = 1;
nodes = (
(466,309,o),
(487,328,o),
(487,359,cs),
(487,392,o),
(466,407,o),
(425,409,cs),
(376,411,o),
(258,408,o),
(174,403,c),
(174,311,l),
(259,313,o),
(396,309,o),
(425,309,cs)
);
},
{
closed = 1;
nodes = (
(192,-14,o),
(211,11,o),
(210,51,cs),
(208,173,o),
(214,428,o),
(229,665,c),
(127,676,l),
(113,435,o),
(103,171,o),
(106,44,cs),
(107,8,o),
(128,-14,o),
(159,-14,cs)
);
}
);
userData = {
com.typemytype.robofont.mark = (
0.619,
1,
0.6,
1
);
};
width = 625;
},
{
layerId = "8E39700C-2F6D-4A17-B4B3-161F49A69C4C";
shapes = (
{
closed = 1;
nodes = (
(74,304,o),
(45,333,o),
(45,354,q),
(45,375,o),
(74,404,o),
(94,404,q),
(126,404,l,{
name = sv01;
}),
(125,434,o),
(121,495,o),
(121,526,q),
(121,555,o),
(128,610,o),
(131,639,q),
(123,640,o),
(107,640,o),
(100,640,q,{
name = sv02;
}),
(80,640,o),
(52,667,o),
(52,687,q),
(52,710,o),
(83,741,o),
(105,741,q,{
name = at02;
}),
(165,741,o),
(282,730,o),
(342,730,q,{
name = at01;
}),
(396,730,o),
(513,734,o),
(559,734,q),
(584,734,o),
(613,701,o),
(613,684,q),
(613,667,o),
(584,634,o),
(559,634,q),
(506,634,o),
(402,630,o),
(349,630,q,{
name = sv03;
}),
(320,630,o),
(262,632,o),
(231,634,q),
(226,603,o),
(221,544,o),
(221,515,q),
(221,487,o),
(224,433,o),
(225,405,q,{
name = dv02;
}),
(277,407,o),
(380,409,o),
(433,409,q),
(458,409,o),
(487,380,o),
(487,359,q),
(487,338,o),
(458,309,o),
(433,309,q),
(380,309,o),
(276,307,o),
(223,305,q,{
name = dv01;
}),
(221,237,o),
(212,108,o),
(212,40,q),
(212,18,o),
(185,-14,o),
(161,-14,q,{
name = ab01;
}),
(141,-14,o),
(112,17,o),
(112,44,q),
(112,110,o),
(120,238,o),
(124,304,q,{
name = sv04;
}),
(94,304,l)
);
}
);
width = 625;
},
{
anchors = (
{
name = bottom;
pos = (162,5);
},
{
name = top;
pos = (338,725);
}
);
background = {
shapes = (
{
closed = 1;
nodes = (
(192,-14,o),
(211,11,o),
(210,51,cs),
(209,111,o),
(210,204,o),
(213,312,c),
(296,312,o),
(400,309,o),
(425,309,cs),
(466,309,o),
(487,328,o),
(487,359,cs),
(487,392,o),
(466,407,o),
(425,409,cs),
(384,411,o),
(294,409,o),
(216,405,c),
(219,480,o),
(223,560,o),
(227,637,c),
(334,634,o),
(469,636,o),
(544,638,cs),
(580,639,o),
(597,659,o),
(597,684,cs),
(597,714,o),
(579,735,o),
(527,734,cs),
(389,731,o),
(258,728,o),
(112,734,cs),
(39,737,o),
(34,650,o),
(100,644,c),
(107,643,o),
(116,643,o),
(125,642,c,{
name = sv02;
}),
(112,411,o),
(103,165,o),
(106,44,cs),
(107,8,o),
(128,-14,o),
(159,-14,cs)
);
}
);
};
hints = (
{
horizontal = 1;
origin = (0,40);
type = TTSnap;
},
{
horizontal = 1;
options = 4;
origin = (0,14);
target = (0,20);
type = TTStem;
},
{
horizontal = 1;
options = 4;
origin = (0,20);
target = (0,5);
type = TTShift;
},
{
horizontal = 1;
options = 4;
origin = (0,40);
other1 = (0,31);
target = (0,14);
type = TTInterpolate;
},
{
horizontal = 1;
options = 4;
origin = (0,31);
target = (0,26);
type = TTStem;
}
);
layerId = "92936CB7-D294-4857-B41D-63B9425360A1";
shapes = (
{
closed = 1;
nodes = (
(136,-14,o),
(107,17,o),
(106,44,qs),
(104,128,o),
(114,452,o),
(125,642,q,{
name = sv02;
}),
(100,644,l),
(76,646,o),
(51,676,o),
(57,713,o),
(89,735,o),
(112,734,qs),
(256,730,o),
(388,731,o),
(527,734,qs),
(562,735,o),
(597,710,o),
(597,684,qs),
(597,664,o),
(569,639,o),
(544,638,qs),
(363,633,o),
(227,637,q),
(220,493,o),
(216,405,q),
(358,412,o),
(425,409,qs),
(457,407,o),
(487,383,o),
(487,335,o),
(455,309,o),
(425,309,qs),
(397,309,o),
(373,310,qs),
(285,312,o),
(213,312,q),
(208,147,o),
(210,51,qs),
(211,21,o),
(184,-14,o),
(159,-14,qs)
);
}
);
userData = {
com.typemytype.robofont.mark = (
0.656,
1,
0.6,
1
);
};
width = 625;
}
);
unicode = 70;
},
{
color = 4;
glyphname = G;
kernLeft = G;
kernRight = G;
layers = (
{
anchors = (
{
name = bottom;
pos = (248,-5);
},
{
name = top;
pos = (449,725);
}
);
layerId = master01;
shapes = (
{
closed = 1;
nodes = (
(352,-25,o),
(437,33,o),
(501,128,c),
(511,41,o),
(578,-37,o),
(646,-37,cs),
(707,-37,o),
(709,22,o),
(673,46,cs),
(598,96,o),
(582,138,o),
(590,268,cs),
(592,306,o),
(576,328,o),
(538,335,cs),
(499,342,o),
(421,349,o),
(347,346,cs),
(314,345,o),
(292,325,o),
(292,298,cs),
(292,272,o),
(308,253,o),
(345,252,cs),
(413,250,o),
(477,250,o),
(545,249,c),
(482,277,l),
(453,176,o),
(359,69,o),
(246,69,cs),
(149,69,o),
(130,203,o),
(187,374,cs),
(238,526,o),
(341,655,o),
(448,655,cs),
(496,655,o),
(538,630,o),
(575,609,cs),
(622,582,o),
(658,651,o),
(618,687,cs),
(573,727,o),
(512,749,o),
(451,749,cs),
(271,749,o),
(142,572,o),
(83,394,cs),
(-7,123,o),
(78,-25,o),
(246,-25,cs)
);
}
);
userData = {
com.typemytype.robofont.mark = (
0.619,
1,
0.6,
1
);
};
width = 728;
},
{
layerId = "8E39700C-2F6D-4A17-B4B3-161F49A69C4C";
shapes = (
{
closed = 1;
nodes = (
(639,677,o),
(639,650,q),
(639,632,o),
(611,603,o),
(588,603,q),
(574,603,o),
(545,617,o),
(511,633,o),
(472,647,o),
(448,647,q,{
name = sv01;
}),
(410,647,o),
(346,615,o),
(293,564,o),
(250,501,o),
(232,470,q),
(217,444,o),
(189,376,o),
(167,300,o),
(154,221,o),
(154,184,q),
(154,158,o),
(169,118,o),
(195,89,o),
(226,74,o),
(243,74,q,{
name = sv02;
}),
(287,74,o),
(364,109,o),
(426,166,o),
(471,239,o),
(482,277,q),
(482,300,o),
(513,333,o),
(536,333,q),
(559,333,o),
(591,302,o),
(591,279,q),
(591,272,o),
(590,268,q),
(590,235,o),
(589,197,o),
(589,180,q),
(589,139,o),
(625,79,o),
(655,58,q,{
name = sv03;
}),
(671,56,o),
(698,29,o),
(698,8,q),
(698,-10,o),
(674,-40,o),
(651,-40,q,{
name = ab02;
}),
(625,-40,o),
(577,-13,o),
(536,29,o),
(506,81,o),
(499,107,q),
(477,80,o),
(423,32,o),
(358,-4,o),
(286,-25,o),
(246,-25,q,{
name = ab01;
}),
(206,-25,o),
(135,1,o),
(81,52,o),
(50,126,o),
(50,173,q),
(50,246,o),
(82,390,o),
(140,521,o),
(221,634,o),
(270,678,q),
(306,710,o),
(400,749,o),
(451,749,q,{
name = at01;
}),
(497,749,o),
(574,717,o),
(601,700,q)
);
}
);
width = 728;
},
{
anchors = (
{
name = bottom;
pos = (248,-5);
},
{
name = top;
pos = (449,725);
}
);
background = {
shapes = (
{
closed = 1;
nodes = (
(707,-37,o),
(709,22,o),
(673,46,cs),
(598,96,o),
(583,138,o),
(590,268,cs),
(592,306,o),
(576,328,o),
(538,335,cs),
(499,342,o),
(421,348,o),
(347,346,cs),
(314,345,o),
(292,325,o),
(292,298,cs),
(292,272,o),
(308,253,o),
(345,252,cs),
(389,251,o),
(430,250,o),
(473,250,c),
(436,158,o),
(349,69,o),
(246,69,cs),
(149,69,o),
(130,203,o),
(187,374,cs),
(238,526,o),
(341,655,o),
(448,655,cs),
(496,655,o),
(538,630,o),
(575,609,cs),
(622,582,o),
(658,651,o),
(618,687,cs),
(573,727,o),
(512,749,o),
(451,749,cs),
(271,749,o),
(142,572,o),
(83,394,cs),
(-7,123,o),
(78,-25,o),
(246,-25,cs),
(352,-25,o),
(437,33,o),
(501,128,c),
(511,41,o),
(578,-37,o),
(646,-37,cs)
);
}
);
};
hints = (
{
horizontal = 1;
options = 4;
origin = (0,5);
target = (0,27);
type = TTStem;
},
{
horizontal = 1;
origin = (0,51);
type = TTSnap;
},
{
horizontal = 1;
options = 4;
origin = (0,11);
target = (0,21);
type = TTStem;
},
{
horizontal = 1;
origin = (0,5);
other1 = (0,37);
target = (0,11);
type = TTInterpolate;
},
{
horizontal = 1;
options = 4;
origin = (0,37);
target = (0,32);
type = TTStem;
}
);
layerId = "92936CB7-D294-4857-B41D-63B9425360A1";
shapes = (
{
closed = 1;
nodes = (
(596,-37,o),
(509,62,o),
(501,128,q),
(450,53,o),
(322,-25,o),
(246,-25,qs,{
name = ab01;
}),
(111,-25,o),
(20,203,o),
(83,394,qs),
(136,554,o),
(333,749,o),
(451,749,qs,{
name = at01;
}),
(497,749,o),
(584,717,o),
(618,687,qs),
(637,670,o),
(634,621,o),
(597,596,o),
(575,609,qs),
(535,633,o),
(476,655,o),
(448,655,qs,{
name = sv01;
}),
(373,655,o),
(228,497,o),
(187,374,qs),
(143,242,o),
(175,69,o),
(246,69,qs,{
name = sv02;
}),
(316,69,o),
(442,172,o),
(473,250,q),
(433,250,o),
(345,252,qs,{
name = dv02;
}),
(319,253,o),
(292,277,o),
(292,318,o),
(322,345,o),
(347,346,qs,{
name = dv01;
}),
(397,347,o),
(505,341,o),
(538,335,qs),
(593,325,o),
(590,268,qs,{
name = sv03;
}),
(586,199,o),
(598,124,o),
(634,72,o),
(673,46,qs),
(687,37,o),
(699,6,o),
(691,-22,o),
(665,-37,o),
(646,-37,qs,{
name = ab02;
})
);
}
);
userData = {
com.typemytype.robofont.mark = (
0.656,
1,
0.6,
1
);
};
width = 728;
}
);
unicode = 71;
},
{
color = 4;
glyphname = H;
layers = (
{
anchors = (
{
name = bottom;
pos = (284,0);
},
{
name = top;
pos = (309,725);
}
);
layerId = master01;
shapes = (
{
closed = 1;
nodes = (
(410,-16,o),
(432,-35,o),
(459,-35,cs),
(487,-35,o),
(508,-18,o),
(510,17,cs),
(522,240,o),
(531,464,o),
(534,687,cs),
(535,719,o),
(510,737,o),
(484,737,cs),
(455,737,o),
(432,719,o),
(431,686,cs),
(428,469,o),
(425,245,o),
(412,23,cs)
);
},
{
closed = 1;
nodes = (
(181,707,o),
(160,728,o),
(129,728,cs),
(101,728,o),
(79,707,o),
(79,676,cs),
(79,460,o),
(71,243,o),
(67,27,cs),
(66,-4,o),
(89,-25,o),
(117,-25,cs),
(145,-25,o),
(164,-5,o),
(165,26,cs),
(174,242,o),
(180,460,o),
(181,668,cs)
);
},
{
closed = 1;
nodes = (
(233,323,o),
(348,328,o),
(462,330,c),
(462,423,l),
(350,423,o),
(237,420,o),
(125,414,c),
(119,317,l)
);
}
);
userData = {
com.typemytype.robofont.mark = (
0.619,
1,
0.6,
1
);
};
width = 604;
},
{
layerId = "8E39700C-2F6D-4A17-B4B3-161F49A69C4C";
shapes = (
{
closed = 1;
nodes = (
(434,712,o),
(466,737,o),
(485,737,q,{
name = at02;
}),
(504,737,o),
(534,711,o),
(534,687,q),
(534,518,o),
(513,180,o),
(513,17,q),
(513,-9,o),
(483,-35,o),
(462,-35,q,{
name = ab01;
}),
(442,-35,o),
(413,-6,o),
(413,23,q),
(413,99,o),
(419,251,o),
(422,328,q),
(359,327,o),
(235,320,o),
(172,319,q,{
name = dv01;
}),
(170,245,o),
(167,101,o),
(167,27,q),
(167,4,o),
(138,-25,o),
(117,-25,q,{
name = ab02;
}),
(96,-25,o),
(67,4,o),
(67,27,q),
(67,192,o),
(79,511,o),
(79,676,q),
(79,699,o),
(108,728,o),
(129,728,q,{
name = at01;
}),
(150,728,o),
(179,699,o),
(179,676,q),
(179,611,o),
(177,484,o),
(175,419,q,{
name = dv02;
}),
(238,421,o),
(364,427,o),
(427,428,q),
(429,495,o),
(434,624,o),
(434,691,q)
);
}
);
width = 604;
},
{
anchors = (
{
name = bottom;
pos = (284,0);
},
{
name = top;
pos = (309,725);
}
);
hints = (
{
horizontal = 1;
origin = (0,12);
type = TTSnap;
},
{
horizontal = 1;
origin = (0,45);
type = TTSnap;
},
{
horizontal = 1;
origin = (0,21);
type = TTSnap;
},
{
horizontal = 1;
origin = (0,36);
type = TTSnap;
},
{
horizontal = 1;
options = 8;
origin = (0,12);
other1 = (0,4);
target = (0,21);
type = TTInterpolate;
},
{
horizontal = 1;
options = 4;
origin = (0,4);
target = (0,30);
type = TTStem;
}
);
layerId = "92936CB7-D294-4857-B41D-63B9425360A1";
shapes = (
{
closed = 1;
nodes = (
(439,-35,o),
(410,-6,o),
(412,23,q),
(421,176,o),
(424,329,q),
(296,327,o),
(175,320,q,{
name = dv02;
}),
(173,246,o),
(168,100,o),
(165,26,q),
(164,3,o),
(138,-25,o),
(117,-25,q,{
name = ab02;
}),
(96,-25,o),
(66,4,o),
(67,27,q),
(70,190,o),
(79,513,o),
(79,676,q),
(79,699,o),
(108,728,o),
(129,728,q,{
name = at01;
}),
(152,728,o),
(181,697,o),
(181,668,q),
(180,605,o),
(179,480,o),
(177,416,q,{
name = dv01;
}),
(240,419,o),
(364,422,o),
(427,423,q),
(429,489,o),
(430,620,o),
(431,686,q),
(432,711,o),
(462,737,o),
(484,737,q,{
name = at02;
}),
(504,737,o),
(535,711,o),
(534,687,q),
(532,519,o),
(519,185,o),
(510,17,q),
(508,-9,o),
(480,-35,o),
(459,-35,q,{
name = ab01;
})
);
}
);
userData = {
com.typemytype.robofont.mark = (
0.656,
1,
0.6,
1
);
};
width = 604;
}
);
unicode = 72;
},
{
glyphname = Hbar;
layers = (
{
layerId = master01;
shapes = (
{
closed = 1;
nodes = (
(434,667,o),
(434,643,o),
(433,619,c),
(179,615,l),
(179,676,ls),
(179,707,o),
(157,728,o),
(129,728,cs),
(101,728,o),
(79,707,o),
(79,676,cs),
(79,615,l),
(48,615,l),
(17,607,o),
(4,586,o),
(4,565,cs),
(4,544,o),
(17,522,o),
(48,515,c),
(77,515,l),
(74,351,o),
(67,192,o),
(67,27,cs),
(67,-4,o),
(89,-25,o),
(117,-25,cs),
(145,-25,o),
(167,-4,o),
(167,27,cs),
(167,126,o),
(169,220,o),
(172,319,c),
(256,320,o),
(338,327,o),
(422,328,c),
(418,225,o),
(413,124,o),
(413,23,cs),
(413,-16,o),
(435,-35,o),
(462,-35,cs),
(490,-35,o),
(513,-18,o),
(513,17,cs),
(513,180,o),
(524,349,o),
(531,520,c),
(536,520,ls),
(572,523,o),
(590,547,o),
(590,570,cs),
(590,593,o),
(572,616,o),
(536,620,cs),
(533,620,l),
(534,643,o),
(534,664,o),
(534,687,cs),
(534,719,o),
(510,737,o),
(485,737,cs),
(458,737,o),
(435,719,o),
(434,691,cs)
);
},
{
closed = 1;
nodes = (
(427,428,l),
(343,427,o),
(259,422,o),
(175,419,c),
(176,451,o),
(177,483,o),
(177,515,c),
(430,519,l)
);
}
);
width = 604;
},
{
layerId = "8E39700C-2F6D-4A17-B4B3-161F49A69C4C";
shapes = (
{
closed = 1;
nodes = (
(435,712,o),
(465,737,o),
(485,737,q,{
name = at01;
}),
(504,737,o),
(534,711,o),
(534,687,q),
(534,670,o),
(534,637,o),
(533,620,q,{
name = sv02;
}),
(536,620,l),
(563,617,o),
(590,587,o),
(590,570,q),
(590,553,o),
(563,522,o),
(536,520,q),
(531,520,l,{
name = sv05;
}),
(526,392,o),
(513,139,o),
(513,17,q),
(513,-9,o),
(483,-35,o),
(462,-35,q,{
name = ab02;
}),
(442,-35,o),
(413,-6,o),
(413,23,q),
(413,99,o),
(419,251,o),
(422,328,q,{
name = sv07;
}),
(359,327,o),
(235,320,o),
(172,319,q,{
name = sv09;
}),
(170,245,o),
(167,101,o),
(167,27,q),
(167,4,o),
(138,-25,o),
(117,-25,q,{
name = ab01;
}),
(96,-25,o),
(67,4,o),
(67,27,q),
(67,151,o),
(75,392,o),
(77,515,q,{
name = sv10;
}),
(48,515,l),
(25,520,o),
(4,549,o),
(4,565,q),
(4,581,o),
(25,609,o),
(48,615,q),
(79,615,l,{
name = sv11;
}),
(79,676,l),
(79,699,o),
(108,728,o),
(129,728,q,{
name = at02;
}),
(150,728,o),
(179,699,o),
(179,676,q),
(179,615,l,{
name = sv01;
}),
(433,619,l),
(434,637,o),
(434,673,o),
(434,691,q)
);
},
{
closed = 1;
nodes = (
(177,491,o),
(176,443,o),
(175,419,q,{
name = sv08;
}),
(238,421,o),
(364,427,o),
(427,428,q,{
name = sv06;
}),
(430,519,l,{
name = sv04;
}),
(177,515,l,{
name = sv03;
})
);
}
);
width = 604;
},
{
layerId = "92936CB7-D294-4857-B41D-63B9425360A1";
shapes = (
{
closed = 1;
nodes = (
(442,-35,o),
(413,-6,o),
(413,23,q),
(413,99,o),
(419,251,o),
(422,328,q,{
name = sv07;
}),
(359,327,o),
(235,320,o),
(172,319,q,{
name = sv09;
}),
(170,245,o),
(167,101,o),
(167,27,q),
(167,4,o),
(138,-25,o),
(117,-25,q,{
name = ab01;
}),
(96,-25,o),
(67,4,o),
(67,27,q),
(67,151,o),
(75,392,o),
(77,515,q,{
name = sv10;
}),
(48,515,l),
(25,520,o),
(4,549,o),
(4,565,q),
(4,581,o),
(25,609,o),
(48,615,q),
(79,615,l,{
name = sv11;
}),
(79,676,l),
(79,699,o),
(108,728,o),
(129,728,q,{
name = at02;
}),
(150,728,o),
(179,699,o),
(179,676,q),
(179,615,l,{
name = sv01;
}),
(433,619,l),
(434,637,o),
(434,673,o),
(434,691,q),
(435,712,o),
(465,737,o),
(485,737,q,{
name = at01;
}),
(504,737,o),
(534,711,o),
(534,687,q),
(534,670,o),
(534,637,o),
(533,620,q,{
name = sv02;
}),
(536,620,l),
(563,617,o),
(590,587,o),
(590,570,q),
(590,553,o),
(563,522,o),
(536,520,q),
(531,520,l,{
name = sv05;
}),
(526,392,o),
(513,139,o),
(513,17,q),
(513,-9,o),
(483,-35,o),
(462,-35,q,{
name = ab02;
})
);
},
{
closed = 1;
nodes = (
(238,421,o),
(364,427,o),
(427,428,q,{
name = sv06;
}),
(430,519,l,{
name = sv04;
}),
(177,515,l,{
name = sv03;
}),
(177,491,o),
(176,443,o),
(175,419,q,{
name = sv08;
})
);
}
);
width = 604;
}
);
unicode = 294;
},
{
color = 4;
glyphname = I;
kernLeft = I;
kernRight = I;
layers = (
{
anchors = (
{
name = bottom;
pos = (131,0);
},
{
name = top;
pos = (159,690);
}
);
layerId = master01;
shapes = (
{
closed = 1;
nodes = (
(97,455,o),
(84,262,o),
(86,41,cs),
(86,2,o),
(107,-17,o),
(132,-17,cs),
(160,-17,o),
(182,2,o),
(183,41,cs),
(189,264,o),
(201,451,o),
(209,667,cs),
(210,700,o),
(187,722,o),
(160,722,cs),
(128,722,o),
(110,699,o),
(109,673,cs)
);
}
);
userData = {
com.typemytype.robofont.mark = (
0.619,
1,
0.6,
1
);
};
width = 297;
},
{
layerId = "8E39700C-2F6D-4A17-B4B3-161F49A69C4C";
shapes = (
{
closed = 1;
nodes = (
(109,693,o),
(139,722,o),
(160,722,q,{
name = at01;
}),
(180,722,o),
(209,693,o),
(209,672,q),
(209,589,o),
(201,431,o),
(191,275,o),
(183,118,o),
(183,35,q),
(183,9,o),
(153,-17,o),
(132,-17,q,{
name = ab01;
}),
(112,-17,o),
(83,12,o),
(83,41,q),
(83,124,o),
(91,281,o),
(101,436,o),
(109,593,o),
(109,676,q)
);
}
);
width = 297;
},
{
anchors = (
{
name = bottom;
pos = (131,0);
},
{
name = top;
pos = (159,690);
}
);
hints = (
{
horizontal = 1;
origin = (0,22);
type = TTSnap;
},
{
horizontal = 1;
origin = (0,11);
type = TTSnap;
}
);
layerId = "92936CB7-D294-4857-B41D-63B9425360A1";
shapes = (
{
closed = 1;
nodes = (
(113,-17,o),
(86,12,o),
(86,41,q),
(85,124,o),
(89,281,o),
(96,435,o),
(104,591,o),
(109,673,q),
(110,693,o),
(136,722,o),
(160,722,q,{
name = at01;
}),
(180,722,o),
(210,692,o),
(209,667,q),
(206,586,o),
(202,509,q),
(195,356,l),
(192,280,o),
(185,125,o),
(183,41,q),
(182,12,o),
(153,-17,o),
(132,-17,q,{
name = ab01;
})
);
}
);
userData = {
com.typemytype.robofont.mark = (
0.656,
1,
0.6,
1
);
};
width = 297;
}
);
unicode = 73;
},
{
glyphname = Iacute;
kernLeft = I;
kernRight = I;
layers = (
{
color = 6;
layerId = master01;
shapes = (
{
alignment = -1;
ref = I;
},
{
pos = (511,-4);
ref = acutecomb.case;
}
);
userData = {
com.typemytype.robofont.mark = (
0.6,
0.741,
1,
1
);
};
width = 273;
},
{
layerId = "8E39700C-2F6D-4A17-B4B3-161F49A69C4C";
shapes = (
{
closed = 1;
nodes = (
(165,734,o),
(158,732,o),
(154,731,q),
(166,726,o),
(186,703,o),
(189,683,q),
(188,520,o),
(183,198,o),
(182,35,q),
(178,9,o),
(148,-15,o),
(131,-15,q,{
name = ab01;
}),
(112,-15,o),
(82,14,o),
(82,43,q),
(84,206,o),
(88,528,o),
(89,691,q),
(95,708,o),
(117,729,o),
(129,732,q,{
name = at01;
}),
(113,736,o),
(95,760,o),
(95,776,q),
(95,797,o),
(109,815,q),
(122,824,o),
(161,845,o),
(202,866,o),
(236,884,o),
(244,892,q),
(262,903,o),
(280,903,q,{
name = sv01;
}),
(300,903,o),
(327,877,o),
(327,858,q),
(327,834,o),
(293,801,o),
(244,774,o),
(190,750,o),
(170,736,q)
);
}
);
width = 273;
},
{
color = 6;
layerId = "92936CB7-D294-4857-B41D-63B9425360A1";
shapes = (
{
alignment = -1;
ref = I;
},
{
pos = (511,-4);
ref = acutecomb.case;
}
);
userData = {
com.typemytype.robofont.mark = (
0.6,
0.986,
1,
1
);
};
width = 273;
}
);
unicode = 205;
},
{
glyphname = Igrave;
kernLeft = I;
kernRight = I;
layers = (
{
color = 6;
layerId = master01;
shapes = (
{
ref = I;
},
{
pos = (520,22);
ref = gravecomb.case;
}
);
userData = {
com.typemytype.robofont.mark = (
0.6,
0.741,
1,
1
);
};
width = 297;
},
{
layerId = "8E39700C-2F6D-4A17-B4B3-161F49A69C4C";
shapes = (
{
closed = 1;
nodes = (
(113,704,o),
(143,733,o),
(162,733,q,{
name = at01;
}),
(179,733,o),
(209,709,o),
(213,683,q),
(214,631,o),
(216,528,o),
(216,475,q),
(216,421,o),
(209,312,o),
(200,204,o),
(192,95,o),
(191,40,q),
(187,14,o),
(157,-10,o),
(140,-10,q,{
name = ab01;
}),
(121,-10,o),
(91,19,o),
(91,48,q),
(92,101,o),
(100,206,o),
(109,311,o),
(117,416,o),
(117,469,q),
(117,521,o),
(114,624,o),
(113,675,q)
);
},
{
closed = 1;
nodes = (
(37,875,o),
(31,896,o),
(31,905,q),
(31,925,o),
(58,952,o),
(79,952,q,{
name = sv02;
}),
(90,952,o),
(135,927,o),
(180,889,o),
(213,842,o),
(213,820,q),
(213,795,o),
(184,767,o),
(166,767,q,{
name = sv01;
}),
(151,767,o),
(124,787,o),
(116,807,q),
(87,833,o),
(56,856,o),
(45,867,q)
);
}
);
width = 297;
},
{
color = 6;
layerId = "92936CB7-D294-4857-B41D-63B9425360A1";
shapes = (
{
ref = I;
},
{
pos = (520,22);
ref = gravecomb.case;
}
);
userData = {
com.typemytype.robofont.mark = (
0.6,
0.986,
1,
1
);
};
width = 297;
}
);
unicode = 204;
},
{
color = 4;
glyphname = J;
kernLeft = J;
kernRight = J;
layers = (
{
anchors = (
{
name = bottom;
pos = (283,-16);
},
{
name = top;
pos = (280,725);
}
);
layerId = master01;
shapes = (
{
closed = 1;
nodes = (
(406,-35,o),
(484,51,o),
(505,221,cs),
(522,360,o),
(513,535,o),
(498,663,cs),
(494,697,o),
(477,720,o),
(430,723,cs),
(340,729,o),
(224,728,o),
(135,725,cs),
(96,724,o),
(79,703,o),
(79,676,cs),
(79,650,o),
(98,630,o),
(134,630,cs),
(225,630,o),
(355,632,o),
(453,631,c),
(399,649,l),
(412,533,o),
(423,360,o),
(407,228,cs),
(393,112,o),
(342,59,o),
(266,59,cs),
(174,59,o),
(126,127,o),
(129,223,cs),
(130,262,o),
(107,275,o),
(85,275,cs),
(50,275,o),
(36,243,o),
(36,196,cs),
(36,60,o),
(124,-35,o),
(275,-35,cs)
);
}
);
userData = {
com.typemytype.robofont.mark = (
0.619,
1,
0.6,
1
);
};
width = 578;
},
{
layerId = "8E39700C-2F6D-4A17-B4B3-161F49A69C4C";
shapes = (
{
closed = 1;
nodes = (
(105,628,o),
(79,662,o),
(79,678,q),
(79,694,o),
(105,728,o),
(128,728,q,{
name = at01;
}),
(208,728,o),
(360,725,o),
(440,725,q),
(463,725,o),
(488,700,o),
(500,661,o),
(502,615,o),
(502,594,q),
(502,556,o),
(496,478,o),
(496,443,q),
(496,386,o),
(507,289,o),
(507,241,q),
(507,198,o),
(484,100,o),
(434,16,o),
(356,-40,o),
(301,-40,q,{
name = ab01;
}),
(251,-40,o),
(155,1,o),
(79,67,o),
(32,151,o),
(32,194,q),
(32,211,o),
(34,253,o),
(40,270,q),
(45,283,o),
(72,301,o),
(86,301,q),
(103,301,o),
(135,273,o),
(135,247,q),
(135,235,o),
(132,212,o),
(132,199,q),
(132,185,o),
(137,160,o),
(145,149,q),
(155,135,o),
(192,104,o),
(236,77,o),
(284,59,o),
(305,59,q,{
name = sv02;
}),
(329,59,o),
(357,86,o),
(368,103,q),
(392,140,o),
(409,218,o),
(409,260,q),
(409,308,o),
(397,403,o),
(397,449,q),
(397,481,o),
(402,552,o),
(402,587,q),
(402,596,o),
(402,614,o),
(401,623,q),
(387,622,o),
(357,622,o),
(343,622,q),
(287,622,o),
(186,628,o),
(131,628,q,{
name = sv01;
})
);
}
);
width = 578;
},
{
anchors = (
{
name = bottom;
pos = (283,-16);
},
{
name = top;
pos = (280,725);
}
);
background = {
shapes = (
{
closed = 1;
nodes = (
(406,-35,o),
(484,51,o),
(505,221,cs),
(522,360,o),
(513,535,o),
(498,663,cs),
(494,697,o),
(477,720,o),
(430,723,cs),
(340,729,o),
(224,728,o),
(135,725,cs),
(96,724,o),
(79,703,o),
(79,676,cs),
(79,650,o),
(98,630,o),
(134,630,cs),
(210,630,o),
(312,631,o),
(401,631,c),
(413,516,o),
(422,353,o),
(407,228,cs),
(393,112,o),
(342,59,o),
(266,59,cs),
(174,59,o),
(126,127,o),
(129,223,cs),
(130,262,o),
(107,275,o),
(85,275,cs),
(50,275,o),
(36,243,o),
(36,196,cs),
(36,60,o),
(124,-35,o),
(275,-35,cs)
);
}
);
};
hints = (
{
horizontal = 1;
options = 4;
origin = (0,24);
target = (0,18);
type = TTStem;
},
{
horizontal = 1;
options = 4;
origin = (0,35);
target = (0,11);
type = TTStem;
},
{
horizontal = 1;
origin = (0,24);
other1 = (0,5);
target = (0,35);
type = TTInterpolate;
}
);
layerId = "92936CB7-D294-4857-B41D-63B9425360A1";
shapes = (
{
closed = 1;
nodes = (
(202,-35,o),
(94,22,o),
(36,127,o),
(36,196,qs),
(36,275,o),
(85,275,qs),
(106,275,o),
(130,248,o),
(129,223,qs),
(127,148,o),
(200,59,o),
(266,59,qs),
(325,59,o),
(397,144,o),
(407,228,qs),
(416,306,o),
(413,518,o),
(401,631,q),
(134,630,ls),
(109,630,o),
(79,655,o),
(79,676,qs),
(79,698,o),
(108,724,o),
(135,725,qs),
(311,731,o),
(430,723,qs),
(462,721,o),
(495,692,o),
(498,663,qs),
(512,545,o),
(516,311,o),
(505,221,qs),
(489,94,o),
(373,-35,o),
(275,-35,qs)
);
}
);
userData = {
com.typemytype.robofont.mark = (
0.656,
1,
0.6,
1
);
};
width = 578;
}
);
unicode = 74;
},
{
color = 4;
glyphname = K;
kernRight = K;
layers = (
{
anchors = (
{
name = bottom;
pos = (293,0);
},
{
name = top;
pos = (294,725);
}
);
background = {
shapes = (
{
closed = 1;
nodes = (
(76,505,o),
(51,304,o),
(51,101,cs),
(51,74,o),
(54,51,o),
(54,24,cs),
(54,1,o),
(76,-17,o),
(103,-17,cs),
(130,-17,o),
(153,3,o),
(165,36,c),
(184,56,o),
(194,78,o),
(207,110,cs),
(229,162,o),
(256,237,o),
(285,290,c),
(341,165,o),
(427,30,o),
(478,-16,cs),
(488,-24,o),
(500,-28,o),
(514,-28,cs),
(541,-28,o),
(561,-7,o),
(561,18,cs),
(561,33,o),
(554,48,o),
(539,63,c),
(490,106,o),
(393,271,o),
(353,389,c),
(426,493,o),
(478,575,o),
(537,651,cs),
(544,660,o),
(548,675,o),
(548,684,cs),
(548,712,o),
(527,732,o),
(500,732,cs),
(475,732,o),
(459,720,o),
(443,699,cs),
(400,640,o),
(362,579,o),
(318,519,cs),
(257,434,o),
(185,330,o),
(155,247,c),
(162,400,o),
(177,550,o),
(177,703,cs),
(177,731,o),
(155,753,o),
(128,753,cs),
(100,753,o),
(76,734,o),
(76,707,cs)
);
}
);
};
layerId = master01;
shapes = (
{
closed = 1;
nodes = (
(114,-24,o),
(132,-10,o),
(142,12,c),
(231,132,o),
(425,454,o),
(548,651,cs),
(589,717,o),
(499,767,o),
(454,694,cs),
(333,495,o),
(201,271,o),
(81,65,c),
(110,56,l),
(127,110,o),
(145,237,o),
(159,393,cs),
(170,516,o),
(180,636,o),
(182,687,cs),
(183,721,o),
(160,743,o),
(133,743,cs),
(105,743,o),
(83,724,o),
(81,697,cs),
(58,417,o),
(32,134,o),
(41,24,cs),
(43,-7,o),
(60,-24,o),
(91,-24,cs)
);
},
{
closed = 1;
nodes = (
(531,-55,o),
(592,13,o),
(545,61,cs),
(495,113,o),
(374,256,o),
(340,394,c),
(278,307,l),
(319,169,o),
(428,27,o),
(478,-13,cs)
);
}
);
width = 582;
},
{
layerId = "8E39700C-2F6D-4A17-B4B3-161F49A69C4C";
shapes = (
{
closed = 1;
nodes = (
(76,727,o),
(107,753,o),
(128,753,q,{
name = at01;
}),
(148,753,o),
(177,724,o),
(177,703,q,{
name = sv02;
}),
(177,588,o),
(160,362,o),
(155,247,q,{
name = sv03;
}),
(166,278,o),
(202,347,o),
(246,418,o),
(295,487,o),
(318,519,q),
(351,564,o),
(411,655,o),
(443,699,q,{
name = sv04;
}),
(455,715,o),
(481,732,o),
(500,732,q,{
name = at02;
}),
(520,732,o),
(548,705,o),
(548,684,q,{
name = sv05;
}),
(548,677,o),
(542,658,o),
(537,651,q),
(493,594,o),
(408,467,o),
(353,389,q,{
name = sv07;
}),
(368,345,o),
(416,244,o),
(469,152,o),
(521,79,o),
(539,63,q),
(550,52,o),
(561,29,o),
(561,18,q),
(561,-1,o),
(534,-28,o),
(514,-28,q,{
name = ab02;
}),
(493,-28,o),
(478,-16,q),
(459,1,o),
(409,66,o),
(357,149,o),
(306,243,o),
(285,290,q,{
name = sv06;
}),
(274,270,o),
(252,224,o),
(233,176,o),
(215,129,o),
(207,110,q),
(197,86,o),
(179,51,o),
(165,36,q),
(156,11,o),
(123,-17,o),
(103,-17,q,{
name = ab01;
}),
(83,-17,o),
(54,7,o),
(54,24,q),
(54,44,o),
(51,81,o),
(51,101,q),
(51,177,o),
(59,329,o),
(68,480,o),
(76,631,o),
(76,707,q,{
name = sv01;
})
);
}
);
width = 582;
},
{
anchors = (
{
name = bottom;
pos = (293,0);
},
{
name = top;
pos = (294,725);
}
);
background = {
shapes = (
{
closed = 1;
nodes = (
(501,106,o),
(403,221,o),
(357,342,c),
(423,450,o),
(493,563,o),
(548,651,cs),
(575,694,o),
(546,730,o),
(510,730,cs),
(491,730,o),
(469,719,o),
(454,694,cs),
(349,522,o),
(236,331,o),
(130,149,c),
(140,212,o),
(150,297,o),
(159,393,cs),
(170,516,o),
(180,636,o),
(182,687,cs),
(183,721,o),
(160,743,o),
(133,743,cs),
(105,743,o),
(83,724,o),
(81,697,cs),
(56,417,o),
(32,134,o),
(41,24,cs),
(43,-7,o),
(60,-24,o),
(91,-24,cs),
(114,-24,o),
(132,-10,o),
(142,12,c),
(180,63,o),
(237,150,o),
(299,249,c),
(348,131,o),
(435,21,o),
(478,-13,cs),
(490,-22,o),
(502,-26,o),
(513,-26,cs),
(553,-26,o),
(582,24,o),
(545,61,cs)
);
}
);
};
hints = (
{
horizontal = 1;
origin = (0,9);
type = TTSnap;
},
{
horizontal = 1;
origin = (0,42);
type = TTSnap;
},
{
horizontal = 1;
origin = (0,17);
type = TTSnap;
},
{
horizontal = 1;
origin = (0,29);
type = TTSnap;
},
{
horizontal = 1;
options = 4;
origin = (0,9);
other1 = (0,24);
target = (0,17);
type = TTInterpolate;
},
{
horizontal = 1;
options = 4;
origin = (0,9);
other1 = (0,4);
target = (0,29);
type = TTInterpolate;
},
{
horizontal = 1;
options = 4;
origin = (0,9);
other1 = (0,35);
target = (0,29);
type = TTInterpolate;
}
);
layerId = "92936CB7-D294-4857-B41D-63B9425360A1";
shapes = (
{
closed = 1;
nodes = (
(495,-26,o),
(478,-13,qs),
(438,19,o),
(331,172,o),
(299,249,q),
(196,84,o),
(142,12,q),
(134,-5,o),
(108,-24,o),
(91,-24,qs),
(45,-24,o),
(41,24,qs),
(36,86,o),
(52,377,o),
(81,697,qs),
(82,717,o),
(112,743,o),
(133,743,qs),
(154,743,o),
(183,712,o),
(182,687,qs),
(179,621,o),
(159,393,qs),
(146,243,o),
(130,149,q),
(311,459,o),
(454,694,qs),
(464,711,o),
(494,730,o),
(510,730,qs),
(528,730,o),
(556,708,o),
(560,671,o),
(548,651,qs),
(451,495,o),
(357,342,q),
(383,273,o),
(487,120,o),
(545,61,qs),
(562,44,o),
(562,3,o),
(533,-26,o),
(513,-26,qs)
);
}
);
width = 582;
}
);
unicode = 75;
},
{
color = 4;
glyphname = L;
kernLeft = L;
kernRight = L;
layers = (
{
anchors = (
{
name = bottom;
pos = (288,-3);
},
{
name = top;
pos = (159,675);
}
);
layerId = master01;
shapes = (
{
closed = 1;
nodes = (
(101,472,o),
(64,252,o),
(64,81,cs),
(64,22,o),
(72,-3,o),
(113,-12,cs),
(146,-19,o),
(179,-20,o),
(212,-20,cs),
(284,-20,o),
(404,-12,o),
(463,-6,cs),
(496,-3,o),
(517,14,o),
(517,44,cs),
(517,73,o),
(496,92,o),
(463,90,cs),
(397,86,o),
(289,76,o),
(203,76,cs),
(190,76,o),
(178,76,o),
(166,77,c),
(174,276,o),
(202,471,o),
(206,671,cs),
(207,704,o),
(180,721,o),
(157,721,cs),
(130,721,o),
(107,704,o),
(106,673,cs)
);
}
);
userData = {
com.typemytype.robofont.mark = (
1,
0.976,
0.6,
1
);
};
width = 529;
},
{
layerId = "8E39700C-2F6D-4A17-B4B3-161F49A69C4C";
shapes = (
{
closed = 1;
nodes = (
(106,696,o),
(137,721,o),
(157,721,q,{
name = at01;
}),
(174,721,o),
(206,696,o),
(206,671,q),
(206,597,o),
(195,450,o),
(181,303,o),
(168,155,o),
(166,81,q),
(175,80,o),
(193,80,o),
(203,80,q,{
name = sv01;
}),
(235,80,o),
(306,84,o),
(375,90,o),
(438,94,o),
(463,94,q),
(488,94,o),
(517,65,o),
(517,44,q),
(517,23,o),
(488,-6,o),
(463,-6,q),
(440,-6,o),
(376,-10,o),
(307,-16,o),
(239,-20,o),
(212,-20,q,{
name = ab01;
}),
(187,-20,o),
(138,-17,o),
(113,-13,q),
(82,-5,o),
(64,37,o),
(64,81,q),
(64,156,o),
(77,303,o),
(93,450,o),
(106,598,o),
(106,673,q)
);
}
);
width = 529;
},
{
anchors = (
{
name = bottom;
pos = (288,-3);
},
{
name = top;
pos = (159,675);
}
);
background = {
shapes = (
{
closed = 1;
nodes = (
(101,472,o),
(64,252,o),
(64,81,cs),
(64,22,o),
(72,-3,o),
(113,-12,cs),
(146,-19,o),
(179,-20,o),
(212,-20,cs),
(284,-20,o),
(404,-12,o),
(463,-6,cs),
(496,-3,o),
(517,14,o),
(517,44,cs),
(517,73,o),
(496,92,o),
(463,90,cs),
(397,86,o),
(289,76,o),
(203,76,cs),
(190,76,o),
(178,76,o),
(166,77,c),
(174,276,o),
(202,471,o),
(206,671,cs),
(207,704,o),
(180,721,o),
(157,721,cs),
(130,721,o),
(107,704,o),
(106,673,cs)
);
}
);
};
hints = (
{
horizontal = 1;
options = 4;
origin = (0,36);
target = (0,22);
type = TTStem;
},
{
horizontal = 1;
origin = (0,12);
type = TTSnap;
}
);
layerId = "92936CB7-D294-4857-B41D-63B9425360A1";
shapes = (
{
closed = 1;
nodes = (
(151,-20,o),
(113,-12,qs),
(85,-6,o),
(64,32,o),
(64,81,q),
(64,128,o),
(72,248,o),
(96,499,o),
(105,622,o),
(106,673,qs),
(106,695,o),
(136,721,o),
(157,721,qs,{
name = at01;
}),
(178,721,o),
(206,693,o),
(206,671,qs),
(205,613,o),
(197,479,o),
(176,235,o),
(168,124,o),
(166,77,q),
(178,76,o),
(203,76,qs,{
name = sv01;
}),
(236,76,o),
(322,80,o),
(446,89,o),
(463,90,qs,{
name = sv03;
}),
(488,91,o),
(517,66,o),
(517,22,o),
(488,-3,o),
(463,-6,qs,{
name = sv02;
}),
(438,-9,o),
(368,-14,o),
(296,-18,o),
(235,-20,o),
(212,-20,qs,{
name = ab01;
})
);
}
);
userData = {
com.typemytype.robofont.mark = (
0.656,
1,
0.6,
1
);
};
width = 529;
}
);
unicode = 76;
},
{
glyphname = Ldot;
kernLeft = L;
kernRight = L;
layers = (
{
color = 6;
layerId = master01;
shapes = (
{
alignment = -1;
ref = L;
},
{
alignment = -1;
pos = (519,-292);
ref = dotaccentcomb;
}
);
width = 533;
},
{
layerId = "8E39700C-2F6D-4A17-B4B3-161F49A69C4C";
shapes = (
{
closed = 1;
nodes = (
(97,698,o),
(125,719,o),
(140,719,q,{
name = at01;
}),
(157,719,o),
(185,694,o),
(189,669,q),
(185,525,o),
(169,240,o),
(165,96,q,{
name = sv01;
}),
(455,100,l),
(482,97,o),
(509,67,o),
(509,50,q),
(509,33,o),
(482,2,o),
(455,0,q),
(393,-2,o),
(267,-5,o),
(204,-5,q),
(181,-5,o),
(134,-4,o),
(111,-3,q,{
name = ab01;
}),
(84,5,o),
(64,35,o),
(64,75,q),
(64,114,o),
(68,192,o),
(70,230,q),
(75,343,o),
(86,565,o),
(89,677,q)
);
},
{
closed = 1;
nodes = (
(445,444,o),
(476,407,o),
(476,385,q),
(476,362,o),
(445,323,o),
(417,323,q,{
name = dv01;
}),
(385,323,o),
(355,359,o),
(355,381,q),
(355,404,o),
(385,443,o),
(414,448,q,{
name = dv02;
})
);
}
);
width = 533;
},
{
color = 6;
layerId = "92936CB7-D294-4857-B41D-63B9425360A1";
shapes = (
{
alignment = -1;
ref = L;
},
{
alignment = -1;
pos = (519,-292);
ref = dotaccentcomb;
}
);
userData = {
com.typemytype.robofont.mark = (
0.6,
0.986,
1,
1
);
};
width = 533;
}
);
unicode = 319;
},
{
glyphname = Lslash;
kernLeft = L;
kernRight = L;
layers = (
{
layerId = master01;
shapes = (
{
closed = 1;
nodes = (
(38,171,o),
(34,127,o),
(34,80,cs),
(34,27,o),
(46,-6,o),
(105,-6,cs),
(148,-6,o),
(190,8,o),
(231,8,cs),
(303,8,o),
(373,1,o),
(445,-2,c),
(481,1,o),
(499,25,o),
(499,48,cs),
(499,71,o),
(481,94,o),
(445,98,c),
(376,101,o),
(307,108,o),
(238,108,cs),
(198,108,o),
(170,104,o),
(134,97,c),
(134,142,o),
(141,186,o),
(145,231,cs),
(149,275,l),
(209,310,o),
(319,368,o),
(319,416,cs),
(319,441,o),
(299,461,o),
(272,461,cs),
(241,461,o),
(198,422,o),
(163,400,c),
(174,493,o),
(181,585,o),
(188,680,c),
(183,713,o),
(162,730,o),
(139,730,cs),
(119,730,o),
(99,716,o),
(88,688,c),
(81,569,o),
(68,453,o),
(55,336,c),
(5,307,o),
(-71,284,o),
(-71,238,cs),
(-71,213,o),
(-51,192,o),
(-22,192,cs),
(-14,192,o),
(-5,193,o),
(6,198,cs),
(43,216,l)
);
}
);
width = 525;
},
{
layerId = "8E39700C-2F6D-4A17-B4B3-161F49A69C4C";
shapes = (
{
closed = 1;
nodes = (
(-2,194,o),
(-16,192,o),
(-22,192,q),
(-44,192,o),
(-71,219,o),
(-71,238,q),
(-71,255,o),
(-46,282,o),
(-8,305,o),
(36,325,o),
(55,336,q,{
name = sv01;
}),
(65,424,o),
(83,599,o),
(88,688,q),
(96,709,o),
(124,730,o),
(139,730,q,{
name = at01;
}),
(156,730,o),
(184,705,o),
(188,680,q),
(183,609,o),
(171,470,o),
(163,400,q,{
name = dv02;
}),
(176,408,o),
(205,429,o),
(233,448,o),
(260,461,o),
(272,461,q),
(292,461,o),
(319,435,o),
(319,416,q),
(319,398,o),
(283,359,o),
(230,322,o),
(171,288,o),
(149,275,q,{
name = dv01;
}),
(145,231,l),
(142,197,o),
(134,131,o),
(134,97,q,{
name = sv02;
}),
(161,102,o),
(208,108,o),
(238,108,q),
(290,108,o),
(393,100,o),
(445,98,q),
(472,95,o),
(499,65,o),
(499,48,q),
(499,31,o),
(472,0,o),
(445,-2,q),
(391,0,o),
(285,8,o),
(231,8,q),
(200,8,o),
(137,-6,o),
(105,-6,q,{
name = ab01;
}),
(61,-6,o),
(34,40,o),
(34,80,q),
(34,115,o),
(39,182,o),
(43,216,q,{
name = sv03;
}),
(6,198,l)
);
}
);
width = 525;
},
{
layerId = "92936CB7-D294-4857-B41D-63B9425360A1";
shapes = (
{
closed = 1;
nodes = (
(61,-6,o),
(34,40,o),
(34,80,q),
(34,115,o),
(39,182,o),
(43,216,q,{
name = sv03;
}),
(6,198,l),
(-2,194,o),
(-16,192,o),
(-22,192,q),
(-44,192,o),
(-71,219,o),
(-71,238,q),
(-71,255,o),
(-46,282,o),
(-8,305,o),
(36,325,o),
(55,336,q,{
name = sv01;
}),
(65,424,o),
(83,599,o),
(88,688,q),
(96,709,o),
(124,730,o),
(139,730,q,{
name = at01;
}),
(156,730,o),
(184,705,o),
(188,680,q),
(183,609,o),
(171,470,o),
(163,400,q,{
name = dv02;
}),
(176,408,o),
(205,429,o),
(233,448,o),
(260,461,o),
(272,461,q),
(292,461,o),
(319,435,o),
(319,416,q),
(319,398,o),
(283,359,o),
(230,322,o),
(171,288,o),
(149,275,q,{
name = dv01;
}),
(145,231,l),
(142,197,o),
(134,131,o),
(134,97,q,{
name = sv02;
}),
(161,102,o),
(208,108,o),
(238,108,q),
(290,108,o),
(393,100,o),
(445,98,q),
(472,95,o),
(499,65,o),
(499,48,q),
(499,31,o),
(472,0,o),
(445,-2,q),
(391,0,o),
(285,8,o),
(231,8,q),
(200,8,o),
(137,-6,o),
(105,-6,q,{
name = ab01;
})
);
}
);
width = 525;
}
);
unicode = 321;
},
{
color = 1;
glyphname = M;
layers = (
{
anchors = (
{
name = bottom;
pos = (336,0);
},
{
name = top;
pos = (383,725);
}
);
background = {
shapes = (
{
closed = 1;
nodes = (
(517,232,o),
(526,400,o),
(544,568,c),
(562,568,l),
(519,480,o),
(477,392,o),
(417,303,c),
(404,282,o),
(384,259,o),
(351,258,cs),
(315,256,o),
(295,282,o),
(281,318,c),
(231,407,o),
(187,503,o),
(151,595,c),
(176,596,l),
(186,425,o),
(181,228,o),
(173,46,cs),
(171,-5,o),
(153,-27,o),
(121,-29,cs),
(89,-30,o),
(70,-5,o),
(70,31,cs),
(79,266,o),
(83,455,o),
(81,671,cs),
(81,698,o),
(96,729,o),
(138,731,cs),
(176,732,o),
(193,706,o),
(208,675,c),
(256,566,o),
(315,451,o),
(379,344,c),
(336,342,l),
(404,448,o),
(473,579,o),
(536,698,c),
(549,726,o),
(567,740,o),
(591,741,cs),
(630,743,o),
(649,715,o),
(645,669,cs),
(630,435,o),
(624,233,o),
(620,30,cs),
(620,-2,o),
(607,-27,o),
(573,-28,cs),
(542,-29,o),
(517,-8,o),
(517,31,cs)
);
}
);
};
layerId = master01;
shapes = (
{
closed = 1;
nodes = (
(153,-29,o),
(171,-5,o),
(173,46,cs),
(181,228,o),
(187,425,o),
(176,596,c),
(151,595,l),
(187,503,o),
(231,407,o),
(281,318,c),
(295,282,o),
(315,258,o),
(348,258,cs),
(385,258,o),
(404,282,o),
(417,303,c),
(477,392,o),
(519,480,o),
(562,568,c),
(544,568,l),
(526,400,o),
(517,232,o),
(517,31,cs),
(517,-8,o),
(542,-28,o),
(571,-28,cs),
(607,-28,o),
(620,-2,o),
(620,30,cs),
(624,233,o),
(630,435,o),
(645,669,cs),
(649,715,o),
(630,741,o),
(594,741,cs),
(567,741,o),
(549,726,o),
(536,698,c),
(473,579,o),
(404,448,o),
(336,342,c),
(379,344,l),
(315,451,o),
(256,566,o),
(208,675,c),
(193,706,o),
(176,731,o),
(138,731,cs),
(99,731,o),
(83,698,o),
(83,671,cs),
(85,455,o),
(81,266,o),
(72,31,cs),
(72,-5,o),
(90,-29,o),
(119,-29,cs)
);
}
);
userData = {
com.typemytype.robofont.mark = (
0.619,
1,
0.6,
1
);
};
width = 727;
},
{
layerId = "8E39700C-2F6D-4A17-B4B3-161F49A69C4C";
shapes = (
{
closed = 1;
nodes = (
(124,-28,o),
(91,-52,o),
(74,-52,q,{
name = av01;
}),
(55,-52,o),
(25,-23,o),
(25,6,q),
(25,99,o),
(73,276,o),
(134,444,o),
(191,605,o),
(200,682,q),
(202,699,o),
(230,724,o),
(251,724,q,{
name = at01;
}),
(272,724,o),
(296,695,o),
(299,674,q),
(305,627,o),
(313,524,o),
(324,419,o),
(340,315,o),
(354,268,q),
(387,334,o),
(434,472,o),
(449,542,q),
(457,577,o),
(469,644,o),
(487,696,o),
(516,728,o),
(542,728,q,{
name = at02;
}),
(560,728,o),
(596,699,o),
(598,668,q),
(603,538,o),
(622,281,o),
(642,150,q),
(649,104,o),
(667,34,o),
(667,12,q),
(667,-9,o),
(638,-38,o),
(618,-38,q,{
name = ab01;
}),
(603,-38,o),
(574,-17,o),
(567,4,q),
(559,31,o),
(542,118,o),
(527,222,o),
(515,333,o),
(511,384,q),
(488,321,o),
(439,208,o),
(415,169,q),
(395,135,o),
(365,108,o),
(345,108,q),
(334,108,o),
(315,116,o),
(304,129,q),
(280,156,o),
(240,296,o),
(229,394,q),
(217,359,o),
(184,279,o),
(152,184,o),
(128,69,o),
(125,-2,q)
);
}
);
width = 727;
},
{
anchors = (
{
name = bottom;
pos = (336,0);
},
{
name = top;
pos = (383,725);
}
);
background = {
shapes = (
{
closed = 1;
nodes = (
(517,213,o),
(524,369,o),
(539,521,c),
(504,449,o),
(466,376,o),
(417,303,cs),
(404,282,o),
(385,258,o),
(348,258,cs),
(315,258,o),
(295,282,o),
(281,318,c),
(244,385,o),
(209,455,o),
(180,525,c),
(185,372,o),
(180,203,o),
(173,46,cs),
(171,-5,o),
(153,-29,o),
(119,-29,cs),
(90,-29,o),
(72,-5,o),
(72,31,cs),
(81,266,o),
(85,455,o),
(83,671,cs),
(83,698,o),
(99,731,o),
(138,731,cs),
(176,731,o),
(193,706,o),
(208,675,cs),
(251,578,o),
(303,475,o),
(359,378,c),
(419,477,o),
(480,592,o),
(536,698,cs),
(549,726,o),
(567,741,o),
(594,741,cs),
(630,741,o),
(649,715,o),
(645,669,cs),
(630,435,o),
(624,233,o),
(620,30,cs),
(620,-2,o),
(607,-28,o),
(571,-28,cs),
(542,-28,o),
(517,-8,o),
(517,31,cs)
);
}
);
};
hints = (
{
horizontal = 1;
options = 4;
origin = (0,42);
target = (0,24);
type = TTShift;
},
{
horizontal = 1;
origin = (0,7);
target = (0,16);
type = TTShift;
},
{
horizontal = 1;
options = 4;
origin = (0,42);
other1 = (0,34);
target = (0,7);
type = TTInterpolate;
},
{
horizontal = 1;
options = 4;
origin = (0,7);
other1 = (0,12);
target = (0,34);
type = TTInterpolate;
},
{
horizontal = 1;
options = 4;
origin = (0,42);
other1 = (0,38);
target = (0,7);
type = TTInterpolate;
},
{
horizontal = 1;
options = 4;
origin = (0,38);
target = (0,29);
type = TTShift;
}
);
layerId = "92936CB7-D294-4857-B41D-63B9425360A1";
shapes = (
{
closed = 1;
nodes = (
(97,-29,o),
(72,4,o),
(72,31,qs),
(86,387,o),
(83,671,qs),
(83,696,o),
(113,731,o),
(138,731,qs),
(161,731,o),
(193,706,o),
(208,675,qs),
(276,522,o),
(359,378,q),
(421,480,o),
(536,698,qs),
(556,741,o),
(594,741,qs),
(621,741,o),
(648,703,o),
(645,669,qs),
(627,390,o),
(620,30,qs),
(620,2,o),
(595,-28,o),
(571,-28,qs),
(547,-28,o),
(517,4,o),
(517,31,qs),
(517,298,o),
(539,521,q),
(475,390,o),
(417,303,qs),
(402,279,o),
(369,258,o),
(348,258,qs),
(304,258,o),
(281,318,q),
(220,428,o),
(180,525,q),
(186,339,o),
(173,46,qs),
(170,-29,o),
(119,-29,qs)
);
}
);
userData = {
com.typemytype.robofont.mark = (
0.656,
1,
0.6,
1
);
};
width = 727;
},
{
anchors = (
{
name = bottom;
pos = (336,0);
},
{
name = top;
pos = (383,725);
}
);
associatedMasterId = master01;
background = {
shapes = (
{
closed = 1;
nodes = (
(150,177,o),
(191,306,o),
(242,517,c),
(223,517,l),
(234,335,o),
(254,239,o),
(281,170,cs),
(296,131,o),
(313,108,o),
(345,108,cs),
(372,108,o),
(390,118,o),
(412,172,c),
(467,278,o),
(508,406,o),
(547,637,c),
(511,567,l),
(519,262,o),
(538,117,o),
(569,4,cs),
(577,-24,o),
(598,-38,o),
(618,-38,cs),
(645,-38,o),
(674,-16,o),
(664,33,cs),
(636,170,o),
(606,412,o),
(594,668,cs),
(592,709,o),
(571,726,o),
(542,726,cs),
(513,726,o),
(496,707,o),
(489,678,cs),
(453,521,o),
(399,372,o),
(331,208,c),
(370,208,l),
(324,377,o),
(316,484,o),
(299,668,cs),
(296,702,o),
(279,724,o),
(251,724,cs),
(223,724,o),
(208,710,o),
(204,679,c),
(136,465,o),
(59,258,o),
(26,9,cs),
(20,-33,o),
(49,-52,o),
(74,-52,cs),
(97,-52,o),
(117,-37,o),
(122,-2,cs)
);
}
);
};
layerId = "BCFBBD25-E6AE-4464-A18B-1ABD0BF3BE39";
name = "Aug 3 20, 22:57";
shapes = (
{
closed = 1;
nodes = (
(150,177,o),
(191,306,o),
(242,517,c),
(223,517,l),
(234,335,o),
(254,239,o),
(281,170,cs),
(296,131,o),
(313,108,o),
(345,108,cs),
(372,108,o),
(390,118,o),
(412,172,c),
(467,278,o),
(508,406,o),
(547,637,c),
(511,567,l),
(519,262,o),
(538,117,o),
(569,4,cs),
(577,-24,o),
(598,-38,o),
(618,-38,cs),
(645,-38,o),
(674,-16,o),
(664,33,cs),
(636,170,o),
(606,412,o),
(594,668,cs),
(592,709,o),
(571,726,o),
(542,726,cs),
(513,726,o),
(496,707,o),
(489,678,cs),
(453,521,o),
(399,372,o),
(331,208,c),
(370,208,l),
(324,377,o),
(316,484,o),
(299,668,cs),
(296,702,o),
(279,724,o),
(251,724,cs),
(223,724,o),
(208,710,o),
(204,679,c),
(136,465,o),
(59,258,o),
(26,9,cs),
(20,-33,o),
(49,-52,o),
(74,-52,cs),
(97,-52,o),
(117,-37,o),
(122,-2,cs)
);
}
);
userData = {
com.typemytype.robofont.mark = (
0.619,
1,
0.6,
1
);
};
width = 727;
},
{
anchors = (
{
name = bottom;
pos = (336,0);
},
{
name = top;
pos = (383,725);
}
);
associatedMasterId = "92936CB7-D294-4857-B41D-63B9425360A1";
background = {
shapes = (
{
closed = 1;
nodes = (
(97,-52,o),
(117,-37,o),
(122,-2,cs),
(147,159,o),
(183,280,o),
(227,457,c,{
name = sv03;
}),
(239,313,o),
(257,231,o),
(281,170,cs),
(296,131,o),
(313,108,o),
(345,108,cs),
(372,108,o),
(390,118,o),
(412,172,c),
(452,249,o),
(484,337,o),
(514,468,c,{
name = sv02;
}),
(524,229,o),
(542,104,o),
(569,4,cs),
(577,-24,o),
(598,-38,o),
(618,-38,cs),
(645,-38,o),
(674,-16,o),
(664,33,cs),
(636,170,o),
(606,412,o),
(594,668,cs),
(592,709,o),
(571,726,o),
(542,726,cs),
(513,726,o),
(496,707,o),
(489,678,cs),
(457,540,o),
(412,408,o),
(355,267,c,{
name = sv01;
}),
(322,404,o),
(314,506,o),
(299,668,cs),
(296,702,o),
(279,724,o),
(251,724,cs),
(223,724,o),
(208,710,o),
(204,679,c),
(136,465,o),
(59,258,o),
(26,9,cs),
(20,-33,o),
(49,-52,o),
(74,-52,cs)
);
}
);
};
hints = (
{
horizontal = 1;
origin = (0,51);
stem = 6;
type = TTSnap;
},
{
horizontal = 1;
origin = (0,27);
type = TTSnap;
},
{
horizontal = 1;
origin = (0,8);
type = TTSnap;
},
{
horizontal = 1;
origin = (0,18);
type = TTSnap;
},
{
horizontal = 1;
origin = (0,39);
type = TTSnap;
},
{
horizontal = 1;
options = 4;
origin = (0,39);
target = (0,14);
type = TTShift;
},
{
horizontal = 1;
options = 4;
origin = (0,8);
target = (0,45);
type = TTShift;
},
{
horizontal = 1;
options = 4;
origin = (0,18);
target = (0,33);
type = TTShift;
}
);
layerId = "26E05087-9BBB-44CB-8299-586A57C878B0";
name = "Aug 3 20, 23:09";
shapes = (
{
closed = 1;
nodes = (
(51,-52,o),
(22,-18,o),
(26,9,qs),
(41,119,o),
(98,354,o),
(193,644,o),
(204,679,q),
(210,724,o),
(251,724,qs),
(271,724,o),
(297,694,o),
(299,668,qs),
(300,659,o),
(324,395,o),
(355,267,q,{
name = sv01;
}),
(446,491,o),
(489,678,qs),
(500,726,o),
(542,726,qs),
(566,726,o),
(593,696,o),
(594,668,qs),
(602,493,o),
(641,148,o),
(664,33,qs),
(670,1,o),
(643,-38,o),
(618,-38,qs),
(602,-38,o),
(575,-16,o),
(569,4,qs),
(546,88,o),
(521,305,o),
(514,468,q,{
name = sv02;
}),
(493,375,o),
(444,233,o),
(412,172,q),
(397,136,o),
(368,108,o),
(345,108,qs),
(324,108,o),
(294,136,o),
(281,170,qs),
(261,221,o),
(235,358,o),
(227,457,q,{
name = sv03;
}),
(217,416,o),
(141,122,o),
(122,-2,qs),
(118,-26,o),
(93,-52,o),
(74,-52,qs)
);
}
);
userData = {
com.typemytype.robofont.mark = (
0.656,
1,
0.6,
1
);
};
width = 727;
}
);
unicode = 77;
},
{
color = 4;
glyphname = N;
layers = (
{
anchors = (
{
name = bottom;
pos = (318,0);
},
{
name = top;
pos = (335,700);
}
);
layerId = master01;
shapes = (
{
closed = 1;
nodes = (
(153,-26,o),
(177,-8,o),
(178,28,cs),
(182,237,o),
(180,394,o),
(185,579,c),
(118,662,l),
(208,375,o),
(331,156,o),
(454,1,cs),
(472,-22,o),
(490,-32,o),
(513,-32,cs),
(544,-32,o),
(562,-12,o),
(568,25,cs),
(593,187,o),
(597,461,o),
(586,668,cs),
(584,704,o),
(561,720,o),
(536,720,cs),
(511,720,o),
(485,702,o),
(486,668,cs),
(491,464,o),
(494,289,o),
(485,50,c),
(507,91,l),
(388,258,o),
(281,455,o),
(200,685,cs),
(188,718,o),
(170,728,o),
(147,728,cs),
(121,728,o),
(100,715,o),
(97,660,cs),
(87,449,o),
(76,238,o),
(76,32,cs),
(76,-9,o),
(101,-26,o),
(126,-26,cs)
);
}
);
userData = {
com.typemytype.robofont.mark = (
0.619,
1,
0.6,
1
);
};
width = 678;
},
{
layerId = "8E39700C-2F6D-4A17-B4B3-161F49A69C4C";
shapes = (
{
closed = 1;
nodes = (
(67,707,o),
(95,733,o),
(114,733,q),
(125,733,o),
(134,729,q),
(141,732,o),
(150,732,q,{
name = at02;
}),
(167,732,o),
(200,707,o),
(200,682,q,{
name = sv01;
}),
(200,671,o),
(200,648,o),
(199,639,q),
(234,594,o),
(287,490,o),
(333,380,o),
(381,270,o),
(411,218,q),
(428,190,o),
(464,140,o),
(483,114,q,{
name = sv02;
}),
(491,152,o),
(495,233,o),
(495,273,q),
(495,336,o),
(494,431,o),
(492,518,o),
(488,607,o),
(485,662,q),
(485,688,o),
(515,721,o),
(535,721,q,{
name = at01;
}),
(555,721,o),
(583,695,o),
(585,674,q),
(586,667,o),
(586,654,o),
(586,647,q),
(589,576,o),
(594,455,o),
(594,385,q),
(594,330,o),
(594,258,o),
(592,201,o),
(587,148,o),
(583,113,q),
(579,79,o),
(569,24,o),
(554,-14,o),
(530,-34,o),
(512,-34,q,{
name = ab02;
}),
(498,-34,o),
(470,-18,o),
(443,6,o),
(417,37,o),
(406,52,q),
(367,96,o),
(309,192,o),
(260,292,o),
(216,396,o),
(193,449,q),
(188,342,o),
(177,131,o),
(177,25,q),
(177,-1,o),
(146,-25,o),
(126,-25,q,{
name = ab01;
}),
(107,-25,o),
(77,4,o),
(77,33,q),
(79,178,o),
(94,465,o),
(98,610,q),
(89,625,o),
(67,663,o),
(67,677,q)
);
}
);
width = 678;
},
{
anchors = (
{
name = bottom;
pos = (318,0);
},
{
name = top;
pos = (335,700);
}
);
background = {
shapes = (
{
closed = 1;
nodes = (
(584,704,o),
(561,720,o),
(536,720,cs),
(511,720,o),
(485,702,o),
(486,668,cs),
(491,484,o),
(493,324,o),
(487,119,c),
(376,280,o),
(277,468,o),
(200,685,cs),
(188,718,o),
(170,728,o),
(147,728,cs),
(121,728,o),
(100,715,o),
(97,660,cs),
(87,449,o),
(76,238,o),
(76,32,cs),
(76,-9,o),
(101,-26,o),
(126,-26,cs),
(153,-26,o),
(177,-8,o),
(178,28,cs),
(181,199,o),
(181,335,o),
(183,480,c),
(263,280,o),
(358,121,o),
(454,1,cs),
(472,-22,o),
(490,-32,o),
(513,-32,cs),
(544,-32,o),
(562,-12,o),
(568,25,cs),
(593,187,o),
(597,461,o),
(586,668,cs)
);
}
);
};
hints = (
{
horizontal = 1;
origin = (0,11);
type = TTSnap;
},
{
horizontal = 1;
origin = (0,41);
type = TTSnap;
},
{
horizontal = 1;
origin = (0,20);
type = TTSnap;
},
{
horizontal = 1;
origin = (0,33);
type = TTSnap;
},
{
horizontal = 1;
options = 4;
origin = (0,11);
other1 = (0,4);
target = (0,20);
type = TTInterpolate;
},
{
horizontal = 1;
options = 4;
origin = (0,11);
other1 = (0,26);
target = (0,33);
type = TTInterpolate;
}
);
layerId = "92936CB7-D294-4857-B41D-63B9425360A1";
shapes = (
{
closed = 1;
nodes = (
(480,-32,o),
(454,1,q),
(375,100,o),
(238,342,o),
(183,480,q,{
name = sv02;
}),
(183,448,o),
(182,374,o),
(180,194,o),
(179,80,o),
(178,28,q),
(177,3,o),
(148,-26,o),
(104,-26,o),
(76,5,o),
(76,32,q),
(76,220,o),
(96,642,o),
(97,660,q),
(99,695,o),
(123,728,o),
(147,728,q,{
name = at01;
}),
(167,728,o),
(192,707,o),
(200,685,q),
(255,531,o),
(399,247,o),
(487,119,q,{
name = sv01;
}),
(490,207,o),
(491,375,o),
(489,552,o),
(486,668,q),
(485,691,o),
(515,720,o),
(558,720,o),
(585,692,o),
(586,668,q),
(592,556,o),
(592,310,o),
(579,98,o),
(568,25,q),
(559,-32,o),
(513,-32,q,{
name = ab02;
})
);
}
);
userData = {
com.typemytype.robofont.mark = (
0.656,
1,
0.6,
1
);
};
width = 678;
}
);
unicode = 78;
},
{
glyphname = Ntilde;
layers = (
{
color = 6;
layerId = master01;
shapes = (
{
alignment = -1;
ref = N;
},
{
pos = (709,10);
ref = tildecomb.case;
}
);
width = 660;
},
{
layerId = "8E39700C-2F6D-4A17-B4B3-161F49A69C4C";
shapes = (
{
closed = 1;
nodes = (
(49,620,o),
(49,629,q),
(49,651,o),
(76,678,o),
(94,678,q),
(107,678,o),
(135,665,o),
(144,648,q),
(147,649,o),
(152,649,q,{
name = av02;
}),
(169,649,o),
(197,624,o),
(201,599,q),
(201,561,l,{
name = sv01;
}),
(233,508,o),
(294,401,o),
(355,294,o),
(419,189,o),
(455,138,q,{
name = sv02;
}),
(474,235,o),
(483,431,o),
(483,530,q),
(483,649,l),
(483,678,o),
(513,707,o),
(532,707,q,{
name = av01;
}),
(549,707,o),
(579,683,o),
(583,657,q),
(583,586,l),
(583,492,o),
(577,306,o),
(566,212,q),
(563,189,o),
(558,145,o),
(553,122,q),
(548,97,o),
(543,64,o),
(534,40,o),
(515,21,o),
(496,9,q),
(482,2,o),
(469,2,q,{
name = ab02;
}),
(453,2,o),
(435,14,q),
(360,87,o),
(247,269,o),
(195,365,q,{
name = sv03;
}),
(191,282,o),
(185,118,o),
(185,35,q),
(181,9,o),
(151,-15,o),
(134,-15,q,{
name = ab01;
}),
(115,-15,o),
(85,14,o),
(85,43,q),
(85,166,o),
(97,409,o),
(100,533,q),
(89,551,o),
(66,587,o),
(54,605,q)
);
},
{
closed = 1;
nodes = (
(183,692,o),
(156,681,o),
(145,681,q,{
name = sv05;
}),
(126,681,o),
(99,708,o),
(99,730,q),
(99,743,o),
(107,761,q),
(120,790,o),
(153,803,o),
(177,803,q,{
name = sv06;
}),
(206,803,o),
(270,785,o),
(308,775,q),
(324,770,o),
(361,762,o),
(374,762,q,{
name = dv02;
}),
(388,762,o),
(391,785,o),
(393,794,q),
(401,816,o),
(429,836,o),
(444,836,q,{
name = sv07;
}),
(462,836,o),
(491,809,o),
(491,783,q),
(491,781,o),
(489,763,o),
(485,739,o),
(476,714,o),
(470,706,q),
(451,682,o),
(401,664,o),
(373,664,q,{
name = dv01;
}),
(347,664,o),
(297,674,o),
(275,681,q),
(254,687,o),
(212,704,o),
(189,704,q,{
name = sv04;
})
);
}
);
width = 660;
},
{
color = 6;
layerId = "92936CB7-D294-4857-B41D-63B9425360A1";
shapes = (
{
alignment = -1;
ref = N;
},
{
pos = (709,10);
ref = tildecomb.case;
}
);
userData = {
com.typemytype.robofont.mark = (
0.6,
0.986,
1,
1
);
};
width = 660;
}
);
unicode = 209;
},
{
color = 4;
glyphname = Eng;
layers = (
{
anchors = (
{
name = bottom;
pos = (353,-196);
},
{
name = top;
pos = (325,725);
}
);
layerId = master01;
shapes = (
{
closed = 1;
nodes = (
(153,-26,o),
(177,-8,o),
(178,28,cs),
(182,237,o),
(180,394,o),
(185,579,c),
(118,662,l),
(208,374,o),
(346,159,o),
(471,1,cs),
(489,-22,o),
(507,-32,o),
(530,-32,c),
(493,35,l),
(469,-69,o),
(431,-106,o),
(353,-150,cs),
(307,-176,o),
(325,-239,o),
(406,-218,cs),
(485,-198,o),
(583,-104,o),
(599,53,cs),
(618,240,o),
(601,504,o),
(586,668,cs),
(583,704,o),
(561,720,o),
(536,720,cs),
(511,720,o),
(484,702,o),
(486,668,cs),
(501,456,o),
(511,232,o),
(502,50,c),
(524,91,l),
(403,261,o),
(282,454,o),
(200,685,cs),
(188,718,o),
(170,728,o),
(147,728,cs),
(121,728,o),
(100,715,o),
(97,660,cs),
(87,449,o),
(76,238,o),
(76,32,cs),
(76,-9,o),
(101,-26,o),
(126,-26,cs)
);
}
);
userData = {
com.typemytype.robofont.mark = (
0.619,
1,
0.6,
1
);
};
width = 678;
},
{
layerId = "8E39700C-2F6D-4A17-B4B3-161F49A69C4C";
shapes = (
{
closed = 1;
nodes = (
(489,707,o),
(519,736,o),
(538,736,q,{
name = at02;
}),
(555,736,o),
(585,712,o),
(589,686,q),
(590,635,o),
(595,518,o),
(601,395,o),
(605,270,o),
(605,209,q),
(605,145,o),
(601,41,o),
(580,-47,o),
(537,-126,o),
(498,-164,q),
(475,-187,o),
(412,-222,o),
(380,-222,q,{
name = av01;
}),
(353,-222,o),
(325,-193,o),
(325,-174,q),
(325,-158,o),
(347,-129,o),
(371,-123,q,{
name = sv01;
}),
(416,-115,o),
(471,-50,o),
(485,-2,q,{
name = ab02;
}),
(482,0,o),
(477,7,q),
(457,53,o),
(405,138,o),
(379,180,q),
(335,250,o),
(246,386,o),
(200,454,q),
(180,482,l,{
name = sv02;
}),
(176,429,o),
(174,326,o),
(174,273,q),
(174,213,o),
(175,93,o),
(176,33,q),
(172,8,o),
(144,-17,o),
(127,-17,q,{
name = ab01;
}),
(112,-17,o),
(84,3,o),
(76,25,q),
(75,84,o),
(74,201,o),
(74,260,q),
(74,307,o),
(76,400,o),
(78,447,q),
(80,491,o),
(89,576,o),
(93,620,q),
(80,643,l),
(78,645,o),
(74,649,o),
(72,651,q),
(64,660,o),
(58,680,o),
(58,689,q),
(58,709,o),
(85,736,o),
(106,736,q),
(121,736,o),
(134,729,q),
(142,731,o,{
name = at03;
}),
(146,731,q,{
name = at01;
}),
(163,731,o),
(191,706,o),
(196,681,q),
(194,639,l),
(200,628,l),
(217,599,o),
(266,534,o),
(284,508,q),
(330,440,o),
(418,304,o),
(462,235,q),
(508,162,l,{
name = sv03;
}),
(508,181,l),
(508,231,o),
(503,318,o),
(502,346,q),
(498,439,o),
(491,603,o),
(489,678,q)
);
}
);
width = 678;
},
{
anchors = (
{
name = bottom;
pos = (353,-196);
},
{
name = top;
pos = (325,725);
}
);
background = {
shapes = (
{
closed = 1;
nodes = (
(583,704,o),
(561,720,o),
(536,720,cs),
(511,720,o),
(484,702,o),
(486,668,cs),
(499,482,o),
(508,287,o),
(504,119,c),
(390,282,o),
(278,466,o),
(200,685,cs),
(188,718,o),
(170,728,o),
(147,728,cs),
(121,728,o),
(100,715,o),
(97,660,cs),
(87,449,o),
(76,238,o),
(76,32,cs),
(76,-9,o),
(101,-26,o),
(126,-26,cs),
(153,-26,o),
(177,-8,o),
(178,28,cs),
(181,200,o),
(181,338,o),
(183,484,c),
(267,283,o),
(373,125,o),
(471,1,cs),
(474,-3,o),
(477,-7,o),
(480,-10,c),
(456,-81,o),
(419,-113,o),
(353,-150,cs),
(307,-176,o),
(325,-239,o),
(406,-218,cs),
(485,-198,o),
(583,-104,o),
(599,53,cs),
(618,240,o),
(601,504,o),
(586,668,cs)
);
}
);
};
hints = (
{
horizontal = 1;
origin = (0,19);
type = TTSnap;
},
{
horizontal = 1;
options = 4;
origin = (0,19);
target = (0,9);
type = TTShift;
},
{
horizontal = 1;
origin = (0,0);
type = TTSnap;
},
{
horizontal = 1;
origin = (0,28);
type = TTSnap;
},
{
horizontal = 1;
origin = (0,39);
type = TTSnap;
},
{
horizontal = 1;
options = 4;
origin = (0,19);
other1 = (0,34);
target = (0,39);
type = TTInterpolate;
},
{
horizontal = 1;
options = 4;
origin = (0,19);
other1 = (0,12);
target = (0,28);
type = TTInterpolate;
}
);
layerId = "92936CB7-D294-4857-B41D-63B9425360A1";
shapes = (
{
closed = 1;
nodes = (
(379,-225,o,{
name = av01;
}),
(340,-216,o),
(325,-189,o),
(337,-159,o),
(353,-150,q),
(383,-133,o),
(422,-104,o),
(450,-73,o),
(472,-35,o),
(480,-10,q,{
name = ab02;
}),
(381,114,o),
(238,352,o),
(183,484,q,{
name = sv03;
}),
(183,451,o),
(182,377,o),
(180,196,o),
(179,81,o),
(178,28,q),
(177,3,o),
(148,-26,o),
(104,-26,o),
(76,5,o),
(76,32,q),
(76,220,o),
(96,642,o),
(97,660,q),
(99,695,o),
(123,728,o),
(147,728,q,{
name = at02;
}),
(167,728,o),
(192,707,o),
(200,685,q),
(249,548,o),
(395,275,o),
(504,119,q,{
name = sv01;
}),
(507,228,o),
(498,501,o),
(486,668,q),
(485,691,o),
(515,720,o),
(557,720,o),
(584,693,o),
(586,668,q),
(594,577,o),
(605,401,o),
(608,243,o),
(605,108,o),
(594,2,o),
(560,-88,o),
(506,-161,o),
(439,-210,o),
(406,-218,q)
);
}
);
userData = {
com.typemytype.robofont.mark = (
0.656,
1,
0.6,
1
);
};
width = 678;
}
);
unicode = 330;
},
{
color = 4;
glyphname = O;
kernLeft = O;
kernRight = O;
layers = (
{
anchors = (
{
name = bottom;
pos = (330,10);
},
{
name = top;
pos = (371,700);
}
);
layerId = master01;
shapes = (
{
closed = 1;
nodes = (
(180,715,o),
(41,556,o),
(35,356,cs),
(29,130,o),
(155,-7,o),
(347,-7,cs),
(535,-7,o),
(685,144,o),
(696,333,cs),
(704,465,o),
(637,592,o),
(532,637,c),
(503,680,o),
(434,715,o),
(349,715,cs)
);
},
{
closed = 1;
nodes = (
(578,194,o),
(477,89,o),
(341,89,cs),
(225,89,o),
(146,176,o),
(145,350,cs),
(144,492,o),
(234,620,o),
(361,620,cs),
(385,620,o),
(410,614,o),
(431,601,cs),
(447,592,o),
(464,586,o),
(476,584,c),
(481,553,o),
(527,528,o),
(553,486,cs),
(583,437,o),
(590,393,o),
(587,339,cs)
);
}
);
userData = {
com.typemytype.robofont.mark = (
0.619,
1,
0.6,
1
);
};
width = 730;
},
{
layerId = "8E39700C-2F6D-4A17-B4B3-161F49A69C4C";
shapes = (
{
closed = 1;
nodes = (
(508,672,o),
(526,655,o),
(529,644,q),
(534,642,o),
(545,638,o),
(547,636,q),
(571,619,o),
(625,571,o),
(651,527,q),
(672,491,o),
(697,403,o),
(697,349,q),
(697,306,o),
(657,187,o),
(605,118,q),
(560,58,o),
(425,-7,o),
(329,-7,q,{
name = ab01;
}),
(288,-7,o),
(232,-1,o),
(187,18,o),
(148,52,o),
(124,80,q),
(73,140,o),
(35,283,o),
(35,352,q),
(35,388,o),
(51,468,o),
(86,546,o),
(140,618,o),
(179,647,q),
(193,657,o),
(234,682,o),
(285,703,o),
(344,717,o),
(374,717,q,{
name = av01;
}),
(411,717,o),
(473,695,o),
(493,682,q)
);
},
{
closed = 1;
nodes = (
(472,564,o),
(464,582,o),
(463,587,q),
(453,588,o),
(432,594,o),
(422,599,q),
(403,608,o),
(379,614,o),
(361,614,q,{
name = sv01;
}),
(345,614,o),
(275,594,o),
(234,562,q),
(191,528,o),
(138,420,o),
(138,350,q),
(138,315,o),
(150,243,o),
(177,177,o),
(218,120,o),
(247,102,q),
(251,99,o),
(273,95,o),
(299,93,o),
(325,92,o),
(333,92,q,{
name = sv02;
}),
(389,92,o),
(495,137,o),
(533,190,q),
(558,225,o),
(594,314,o),
(594,359,q),
(594,391,o),
(569,467,o),
(546,502,q),
(541,510,o),
(529,522,o),
(513,534,o),
(493,548,o),
(480,559,q)
);
}
);
width = 730;
},
{
anchors = (
{
name = bottom;
pos = (330,10);
},
{
name = top;
pos = (371,700);
}
);
background = {
shapes = (
{
closed = 1;
nodes = (
(180,715,o),
(41,556,o),
(35,356,cs),
(29,130,o),
(155,-7,o),
(347,-7,cs),
(535,-7,o),
(685,144,o),
(696,333,cs),
(704,465,o),
(637,592,o),
(532,637,c),
(503,680,o),
(434,715,o),
(349,715,cs)
);
},
{
closed = 1;
nodes = (
(578,194,o),
(477,89,o),
(341,89,cs),
(225,89,o),
(146,176,o),
(145,350,cs),
(144,492,o),
(234,620,o),
(361,620,cs),
(385,620,o),
(410,614,o),
(431,601,cs),
(447,592,o),
(464,586,o),
(476,584,c),
(481,553,o),
(527,528,o),
(553,486,cs),
(583,437,o),
(590,393,o),
(587,339,cs)
);
}
);
};
hints = (
{
horizontal = 1;
options = 4;
origin = (0,4);
target = (1,12);
type = TTStem;
},
{
horizontal = 1;
options = 4;
origin = (0,14);
target = (1,17);
type = TTStem;
}
);
layerId = "92936CB7-D294-4857-B41D-63B9425360A1";
shapes = (
{
closed = 1;
nodes = (
(200,-7,o),
(31,190,o),
(39,506,o),
(222,715,o),
(349,715,q,{
name = at01;
}),
(409,715,o),
(509,672,o),
(532,637,q),
(584,615,o),
(662,521,o),
(700,397,o),
(696,333,qs),
(688,190,o),
(487,-7,o),
(347,-7,q,{
name = ab01;
})
);
},
{
closed = 1;
nodes = (
(443,89,o),
(581,230,o),
(587,339,qs),
(590,399,o),
(562,474,o),
(530,516,o),
(491,555,o),
(477,575,o),
(476,584,q),
(456,587,o),
(415,610,o),
(380,620,o),
(361,620,q,{
name = sv01;
}),
(269,620,o),
(144,461,o),
(146,225,o),
(250,89,o),
(341,89,q,{
name = sv02;
})
);
}
);
userData = {
com.typemytype.robofont.mark = (
0.656,
1,
0.6,
1
);
};
width = 730;
}
);
unicode = 79;
},
{
glyphname = Oacute;
kernLeft = O;
kernRight = O;
layers = (
{
color = 6;
layerId = master01;
shapes = (
{
ref = O;
},
{
pos = (724,15);
ref = acutecomb.case;
}
);
userData = {
com.typemytype.robofont.mark = (
0.6,
0.741,
1,
1
);
};
width = 730;
},
{
layerId = "8E39700C-2F6D-4A17-B4B3-161F49A69C4C";
shapes = (
{
closed = 1;
nodes = (
(550,829,o),
(500,798,o),
(444,769,o),
(390,747,o),
(371,747,q,{
name = sv01;
}),
(344,747,o),
(316,776,o),
(316,795,q),
(316,811,o),
(338,840,o),
(362,846,q),
(371,846,o),
(416,867,o),
(466,895,o),
(510,921,o),
(518,926,q),
(523,928,o),
(532,928,o),
(537,928,q,{
name = sv02;
}),
(560,928,o),
(587,902,o),
(587,883,q),
(587,872,o),
(576,849,o),
(565,838,q)
);
},
{
closed = 1;
nodes = (
(508,672,o),
(526,655,o),
(529,644,q),
(534,642,o),
(545,638,o),
(547,636,q),
(571,619,o),
(625,571,o),
(651,527,q),
(672,491,o),
(697,403,o),
(697,349,q),
(697,306,o),
(657,187,o),
(605,118,q),
(560,58,o),
(425,-7,o),
(329,-7,q,{
name = ab01;
}),
(288,-7,o),
(232,-1,o),
(187,18,o),
(148,52,o),
(124,80,q),
(98,110,o),
(64,183,o),
(44,258,o),
(35,327,o),
(35,352,q),
(35,388,o),
(51,468,o),
(86,546,o),
(140,618,o),
(179,647,q),
(193,657,o),
(234,682,o),
(285,703,o),
(344,717,o),
(374,717,q,{
name = av01;
}),
(411,717,o),
(473,695,o),
(493,682,q)
);
},
{
closed = 1;
nodes = (
(472,564,o),
(464,582,o),
(463,587,q),
(453,588,o),
(432,594,o),
(422,599,q),
(403,608,o),
(383,614,o),
(361,614,q,{
name = sv03;
}),
(345,614,o),
(275,594,o),
(234,562,q),
(191,528,o),
(138,420,o),
(138,350,q),
(138,315,o),
(150,243,o),
(177,177,o),
(218,120,o),
(247,102,q),
(251,99,o),
(273,95,o),
(299,93,o),
(325,92,o),
(333,92,q,{
name = sv04;
}),
(389,92,o),
(495,137,o),
(533,190,q),
(558,225,o),
(594,314,o),
(594,359,q),
(594,391,o),
(569,467,o),
(546,502,q),
(541,510,o),
(529,522,o),
(513,534,o),
(493,548,o),
(480,559,q)
);
}
);
width = 730;
},
{
color = 6;
layerId = "92936CB7-D294-4857-B41D-63B9425360A1";
shapes = (
{
ref = O;
},
{
pos = (724,15);
ref = acutecomb.case;
}
);
userData = {
com.typemytype.robofont.mark = (
0.6,
0.986,
1,
1
);
};
width = 730;
}
);
unicode = 211;
},
{
glyphname = Ocircumflex;
kernLeft = O;
kernRight = O;
layers = (
{
color = 6;
layerId = master01;
shapes = (
{
ref = O;
},
{
pos = (729,20);
ref = circumflexcomb.case;
}
);
userData = {
com.typemytype.robofont.mark = (
0.6,
0.741,
1,
1
);
};
width = 730;
},
{
layerId = "8E39700C-2F6D-4A17-B4B3-161F49A69C4C";
shapes = (
{
closed = 1;
nodes = (
(251,740,o),
(234,733,o),
(224,733,q,{
name = sv02;
}),
(205,733,o),
(178,760,o),
(178,782,q),
(178,792,o),
(183,807,q),
(191,819,o),
(230,847,o),
(278,873,o),
(332,896,o),
(380,914,o),
(417,924,o),
(425,924,q,{
name = sv04;
}),
(446,924,o),
(473,907,o),
(493,881,o),
(510,852,o),
(521,840,q),
(528,832,o),
(543,818,o),
(557,802,o),
(566,784,o),
(566,773,q),
(566,753,o),
(538,726,o),
(518,726,q,{
name = sv01;
}),
(505,726,o),
(475,744,o),
(446,772,o),
(421,805,o),
(412,819,q,{
name = sv03;
}),
(386,808,o),
(335,784,o),
(309,773,q),
(294,766,o),
(270,751,o),
(256,743,q)
);
},
{
closed = 1;
nodes = (
(508,672,o),
(526,655,o),
(529,644,q),
(534,642,o),
(545,638,o),
(547,636,q),
(571,619,o),
(625,571,o),
(651,527,q),
(672,491,o),
(697,403,o),
(697,349,q),
(697,306,o),
(657,187,o),
(605,118,q),
(560,58,o),
(425,-7,o),
(329,-7,q,{
name = ab01;
}),
(288,-7,o),
(232,-1,o),
(187,18,o),
(148,52,o),
(124,80,q),
(98,110,o),
(64,183,o),
(44,258,o),
(35,327,o),
(35,352,q),
(35,388,o),
(51,468,o),
(86,546,o),
(140,618,o),
(179,647,q),
(193,657,o),
(234,682,o),
(285,703,o),
(344,717,o),
(374,717,q,{
name = av01;
}),
(411,717,o),
(473,695,o),
(493,682,q)
);
},
{
closed = 1;
nodes = (
(472,564,o),
(464,582,o),
(463,587,q),
(453,588,o),
(432,594,o),
(422,599,q),
(403,608,o),
(381,614,o),
(361,614,q,{
name = sv05;
}),
(345,614,o),
(275,594,o),
(234,562,q),
(191,528,o),
(138,420,o),
(138,350,q),
(138,315,o),
(150,243,o),
(177,177,o),
(218,120,o),
(247,102,q),
(251,99,o),
(273,95,o),
(299,93,o),
(325,92,o),
(333,92,q,{
name = sv06;
}),
(389,92,o),
(495,137,o),
(533,190,q),
(558,225,o),
(594,314,o),
(594,359,q),
(594,391,o),
(569,467,o),
(546,502,q),
(541,510,o),
(529,522,o),
(513,534,o),
(493,548,o),
(480,559,q)
);
}
);
width = 730;
},
{
color = 6;
layerId = "92936CB7-D294-4857-B41D-63B9425360A1";
shapes = (
{
ref = O;
},
{
pos = (729,20);
ref = circumflexcomb.case;
}
);
userData = {
com.typemytype.robofont.mark = (
0.6,
0.986,
1,
1
);
};
width = 730;
}
);
unicode = 212;
},
{
glyphname = Odieresis;
kernLeft = O;
kernRight = O;
layers = (
{
color = 6;
layerId = master01;
shapes = (
{
alignment = -1;
pos = (7,0);
ref = O;
},
{
pos = (512,-37);
ref = dieresiscomb.case;
}
);
userData = {
com.typemytype.robofont.mark = (
0.6,
0.741,
1,
1
);
};
width = 744;
},
{
anchors = (
{
name = bottom;
pos = (324,0);
},
{
name = top;
pos = (320,967);
}
);
layerId = "8E39700C-2F6D-4A17-B4B3-161F49A69C4C";
shapes = (
{
closed = 1;
nodes = (
(523,665,o),
(529,644,q),
(533,643,o),
(541,640,o),
(543,638,q),
(564,622,o),
(608,589,o),
(625,566,q),
(657,524,o),
(697,408,o),
(697,349,q),
(697,266,o),
(634,134,o),
(528,42,o),
(385,-7,o),
(306,-7,q,{
name = ab01;
}),
(280,-7,o),
(224,0,o),
(203,12,q),
(161,35,o),
(98,111,o),
(56,202,o),
(35,304,o),
(35,352,q),
(35,422,o),
(87,554,o),
(179,656,o),
(302,717,o),
(374,717,q,{
name = av01;
}),
(404,717,o),
(469,695,o),
(493,682,q)
);
},
{
closed = 1;
nodes = (
(470,568,o),
(463,583,o),
(461,588,q),
(441,593,l),
(430,598,o),
(390,614,o),
(376,614,q,{
name = sv01;
}),
(373,614,o),
(341,612,o),
(325,608,q),
(276,595,o),
(206,542,o),
(160,472,o),
(138,391,o),
(138,350,q),
(138,318,o),
(150,246,o),
(177,178,o),
(218,120,o),
(247,102,q),
(256,96,o),
(291,92,o),
(308,92,q,{
name = sv02;
}),
(371,92,o),
(477,128,o),
(552,197,o),
(594,296,o),
(594,359,q),
(594,398,o),
(571,472,o),
(546,502,q),
(531,519,o),
(495,547,o),
(477,562,q)
);
},
{
closed = 1;
nodes = (
(171,891,o),
(200,920,o),
(220,920,q,{
name = sv03;
}),
(253,920,o),
(274,859,o),
(274,808,q),
(274,782,o),
(240,758,o),
(223,758,q,{
name = av02;
}),
(197,758,o),
(186,777,q),
(176,794,o),
(171,844,o),
(171,867,q)
);
},
{
closed = 1;
nodes = (
(414,949,o),
(444,978,o),
(463,978,q,{
name = sv04;
}),
(485,978,o),
(509,947,o),
(511,938,q),
(513,927,o),
(525,897,o),
(537,866,o),
(547,838,o),
(547,830,q),
(547,811,o),
(520,784,o),
(500,784,q,{
name = sv05;
}),
(476,784,o),
(444,816,o),
(423,860,o),
(414,906,o),
(414,920,q)
);
}
);
width = 744;
},
{
color = 6;
layerId = "92936CB7-D294-4857-B41D-63B9425360A1";
shapes = (
{
alignment = -1;
pos = (7,0);
ref = O;
},
{
pos = (512,-37);
ref = dieresiscomb.case;
}
);
userData = {
com.typemytype.robofont.mark = (
0.6,
0.986,
1,
1
);
};
width = 744;
}
);
unicode = 214;
},
{
glyphname = Ograve;
kernLeft = O;
kernRight = O;
layers = (
{
color = 6;
layerId = master01;
shapes = (
{
ref = O;
},
{
pos = (726,7);
ref = gravecomb.case;
}
);
userData = {
com.typemytype.robofont.mark = (
0.6,
0.741,
1,
1
);
};
width = 730;
},
{
layerId = "8E39700C-2F6D-4A17-B4B3-161F49A69C4C";
shapes = (
{
closed = 1;
nodes = (
(242,851,o),
(242,871,q),
(242,891,o),
(269,918,o),
(288,918,q,{
name = sv02;
}),
(310,918,o),
(330,899,q),
(342,884,o),
(374,860,o),
(402,836,o),
(422,810,o),
(422,794,q),
(422,776,o),
(395,749,o),
(372,749,q,{
name = sv01;
}),
(358,749,o),
(326,766,o),
(295,791,o),
(267,820,o),
(257,832,q)
);
},
{
closed = 1;
nodes = (
(508,672,o),
(526,655,o),
(529,644,q),
(534,642,o),
(545,638,o),
(547,636,q),
(571,619,o),
(625,571,o),
(651,527,q),
(672,491,o),
(697,403,o),
(697,349,q),
(697,306,o),
(657,187,o),
(605,118,q),
(560,58,o),
(425,-7,o),
(329,-7,q,{
name = ab01;
}),
(288,-7,o),
(232,-1,o),
(187,18,o),
(148,52,o),
(124,80,q),
(98,110,o),
(64,183,o),
(44,258,o),
(35,327,o),
(35,352,q),
(35,388,o),
(51,468,o),
(86,546,o),
(140,618,o),
(179,647,q),
(193,657,o),
(234,682,o),
(285,703,o),
(344,717,o),
(374,717,q,{
name = av01;
}),
(411,717,o),
(473,695,o),
(493,682,q)
);
},
{
closed = 1;
nodes = (
(472,564,o),
(464,582,o),
(463,587,q),
(453,588,o),
(432,594,o),
(422,599,q),
(403,608,o),
(383,614,o),
(361,614,q,{
name = sv03;
}),
(345,614,o),
(275,594,o),
(234,562,q),
(191,528,o),
(138,420,o),
(138,350,q),
(138,315,o),
(150,243,o),
(177,177,o),
(218,120,o),
(247,102,q),
(251,99,o),
(273,95,o),
(299,93,o),
(325,92,o),
(333,92,q,{
name = sv04;
}),
(389,92,o),
(495,137,o),
(533,190,q),
(558,225,o),
(594,314,o),
(594,359,q),
(594,391,o),
(569,467,o),
(546,502,q),
(541,510,o),
(529,522,o),
(513,534,o),
(493,548,o),
(480,559,q)
);
}
);
width = 730;
},
{
color = 6;
layerId = "92936CB7-D294-4857-B41D-63B9425360A1";
shapes = (
{
ref = O;
},
{
pos = (726,7);
ref = gravecomb.case;
}
);
userData = {
com.typemytype.robofont.mark = (
0.6,
0.986,
1,
1
);
};
width = 730;
}
);
unicode = 210;
},
{
glyphname = Oslash;
kernLeft = O;
kernRight = O;
layers = (
{
anchors = (
{
name = bottom;
pos = (330,0);
},
{
name = top;
pos = (366,686);
}
);
layerId = master01;
shapes = (
{
closed = 1;
nodes = (
(486,684,o),
(459,692,o),
(453,695,cs),
(430,710,o),
(406,717,o),
(374,717,cs),
(182,717,o),
(35,538,o),
(35,351,cs),
(35,256,o),
(64,153,o),
(124,78,c),
(98,49,o),
(55,9,o),
(55,-23,cs),
(55,-54,o),
(77,-74,o),
(102,-74,cs),
(117,-74,o),
(133,-68,o),
(145,-51,cs),
(152,-42,o),
(158,-31,o),
(161,-28,cs),
(172,-15,o),
(179,-9,o),
(192,4,cs),
(201,13,l),
(220,-3,o),
(275,-7,o),
(306,-7,cs),
(518,-7,o),
(697,128,o),
(697,349,cs),
(697,428,o),
(668,510,o),
(625,566,cs),
(622,569,l),
(690,635,l),
(696,646,o),
(699,656,o),
(699,666,cs),
(699,694,o),
(678,714,o),
(651,714,cs),
(641,714,o),
(630,710,o),
(617,703,c),
(546,634,l),
(538,641,l),
(529,644,l),
(524,661,o),
(512,673,o),
(493,682,c)
);
},
{
closed = 1;
nodes = (
(145,273,o),
(138,311,o),
(138,350,cs),
(138,459,o),
(195,574,o),
(325,608,cs),
(346,613,o),
(379,614,o),
(391,614,c),
(408,604,o),
(424,597,o),
(441,594,c),
(461,588,l),
(468,581,o),
(468,572,o),
(475,563,c),
(412,499,o),
(353,435,o),
(301,363,cs),
(257,302,o),
(222,236,o),
(183,172,c),
(173,191,o),
(164,213,o),
(157,236,cs)
);
},
{
closed = 1;
nodes = (
(546,154,o),
(466,110,o),
(339,94,cs),
(332,93,o),
(321,92,o),
(306,92,cs),
(289,92,o),
(269,93,o),
(256,98,c),
(308,186,o),
(354,273,o),
(418,353,cs),
(458,404,o),
(502,450,o),
(549,497,c),
(580,458,o),
(594,409,o),
(594,358,cs),
(594,331,o),
(591,307,o),
(584,284,cs)
);
}
);
width = 731;
},
{
layerId = "8E39700C-2F6D-4A17-B4B3-161F49A69C4C";
shapes = (
{
closed = 1;
nodes = (
(522,669,o),
(529,644,q),
(538,641,l),
(546,634,l,{
name = sv01;
}),
(617,703,l),
(636,714,o),
(651,714,q),
(671,714,o),
(699,687,o),
(699,666,q),
(699,651,o),
(690,635,q),
(622,569,l,{
name = sv02;
}),
(625,566,l),
(657,524,o),
(697,408,o),
(697,349,q),
(697,266,o),
(634,134,o),
(528,42,o),
(385,-7,o),
(306,-7,q,{
name = ab01;
}),
(294,-7,o),
(264,-5,o),
(234,-1,o),
(208,7,o),
(201,13,q,{
name = sv03;
}),
(192,4,l),
(182,-6,o),
(169,-18,o),
(161,-28,q),
(159,-30,o),
(150,-44,o),
(145,-51,q),
(136,-64,o),
(113,-74,o),
(102,-74,q),
(83,-74,o),
(55,-46,o),
(55,-23,q),
(55,-11,o),
(69,15,o),
(90,42,o),
(114,67,o),
(124,78,q,{
name = sv04;
}),
(79,134,o),
(35,280,o),
(35,351,q),
(35,421,o),
(87,553,o),
(178,655,o),
(302,717,o),
(374,717,q,{
name = av01;
}),
(398,717,o),
(436,706,o),
(453,695,q),
(455,694,o),
(466,690,o),
(479,687,o),
(490,683,o),
(493,682,q)
);
},
{
closed = 1;
nodes = (
(168,201,o),
(183,172,q,{
name = sv07;
}),
(212,220,o),
(268,317,o),
(301,363,q),
(340,417,o),
(428,515,o),
(475,563,q,{
name = sv09;
}),
(470,570,o),
(466,583,o),
(461,588,q),
(441,594,l),
(416,599,o),
(391,614,q,{
name = sv08;
}),
(382,614,o),
(341,612,o),
(325,608,q),
(276,595,o),
(206,542,o),
(160,472,o),
(138,391,o),
(138,350,q),
(138,321,o),
(148,264,o),
(157,236,q)
);
},
{
closed = 1;
nodes = (
(589,301,o),
(594,338,o),
(594,358,q),
(594,396,o),
(572,468,o),
(549,497,q,{
name = sv10;
}),
(514,462,o),
(448,391,o),
(418,353,q),
(370,293,o),
(295,164,o),
(256,98,q,{
name = sv06;
}),
(266,94,o),
(293,92,o),
(306,92,q,{
name = sv05;
}),
(317,92,o),
(334,93,o),
(339,94,q),
(386,100,o),
(464,124,o),
(526,168,o),
(570,236,o),
(584,284,q)
);
}
);
width = 731;
},
{
anchors = (
{
name = bottom;
pos = (330,0);
},
{
name = top;
pos = (366,686);
}
);
layerId = "92936CB7-D294-4857-B41D-63B9425360A1";
shapes = (
{
closed = 1;
nodes = (
(83,-74,o),
(55,-46,o),
(55,-23,q),
(55,-11,o),
(69,15,o),
(90,42,o),
(114,67,o),
(124,78,q,{
name = sv04;
}),
(79,134,o),
(35,280,o),
(35,351,q),
(35,421,o),
(87,553,o),
(178,655,o),
(302,717,o),
(374,717,q,{
name = av01;
}),
(398,717,o),
(436,706,o),
(453,695,q),
(455,694,o),
(466,690,o),
(479,687,o),
(490,683,o),
(493,682,q),
(522,669,o),
(529,644,q),
(538,641,l),
(546,634,l,{
name = sv01;
}),
(617,703,l),
(636,714,o),
(651,714,q),
(671,714,o),
(699,687,o),
(699,666,q),
(699,651,o),
(690,635,q),
(622,569,l,{
name = sv02;
}),
(625,566,l),
(657,524,o),
(697,408,o),
(697,349,q),
(697,266,o),
(634,134,o),
(528,42,o),
(385,-7,o),
(306,-7,q,{
name = ab01;
}),
(294,-7,o),
(264,-5,o),
(234,-1,o),
(208,7,o),
(201,13,q,{
name = sv03;
}),
(192,4,l),
(182,-6,o),
(169,-18,o),
(161,-28,q),
(159,-30,o),
(150,-44,o),
(145,-51,q),
(136,-64,o),
(113,-74,o),
(102,-74,q)
);
},
{
closed = 1;
nodes = (
(212,220,o),
(268,317,o),
(301,363,q),
(340,417,o),
(428,515,o),
(475,563,q,{
name = sv09;
}),
(470,570,o),
(466,583,o),
(461,588,q),
(441,594,l),
(416,599,o),
(391,614,q,{
name = sv08;
}),
(382,614,o),
(341,612,o),
(325,608,q),
(276,595,o),
(206,542,o),
(160,472,o),
(138,391,o),
(138,350,q),
(138,321,o),
(148,264,o),
(157,236,q),
(168,201,o),
(183,172,q,{
name = sv07;
})
);
},
{
closed = 1;
nodes = (
(317,92,o),
(334,93,o),
(339,94,q),
(386,100,o),
(464,124,o),
(526,168,o),
(570,236,o),
(584,284,q),
(589,301,o),
(594,338,o),
(594,358,q),
(594,396,o),
(572,468,o),
(549,497,q,{
name = sv10;
}),
(514,462,o),
(448,391,o),
(418,353,q),
(370,293,o),
(295,164,o),
(256,98,q,{
name = sv06;
}),
(266,94,o),
(293,92,o),
(306,92,q,{
name = sv05;
})
);
}
);
width = 731;
}
);
unicode = 216;
},
{
glyphname = OE;
kernLeft = O;
kernRight = E;
layers = (
{
anchors = (
{
name = bottom;
pos = (521,0);
},
{
name = top;
pos = (516,745);
}
);
layerId = master01;
shapes = (
{
closed = 1;
nodes = (
(879,27,o),
(897,51,o),
(897,74,cs),
(897,97,o),
(879,120,o),
(843,124,c),
(752,120,o),
(665,109,o),
(574,109,c),
(577,173,o),
(581,229,o),
(581,285,cs),
(581,300,o),
(581,315,o),
(580,330,c),
(624,329,o),
(669,326,o),
(713,326,cs),
(748,326,o),
(767,347,o),
(767,372,cs),
(767,425,o),
(696,430,o),
(631,430,cs),
(576,430,l),
(572,511,o),
(568,591,o),
(567,674,c),
(583,676,o),
(599,677,o),
(616,677,cs),
(689,677,o),
(763,656,o),
(839,652,c),
(875,655,o),
(893,679,o),
(893,702,cs),
(893,725,o),
(875,748,o),
(839,752,c),
(755,755,o),
(682,776,o),
(604,776,cs),
(572,776,o),
(538,773,o),
(503,762,c),
(472,774,o),
(438,779,o),
(403,779,cs),
(168,779,o),
(66,539,o),
(66,364,cs),
(66,126,o),
(183,-31,o),
(362,-31,cs),
(409,-31,o),
(472,-19,o),
(521,9,c),
(542,7,o),
(563,6,o),
(584,6,cs),
(671,6,o),
(758,21,o),
(843,24,c)
);
},
{
closed = 1;
nodes = (
(482,190,o),
(476,144,o),
(472,96,c),
(462,93,ls),
(420,80,o),
(397,66,o),
(362,66,cs),
(210,66,o),
(164,258,o),
(164,359,cs),
(164,489,o),
(219,631,o),
(347,671,c),
(366,678,o),
(380,679,o),
(393,679,cs),
(410,679,o),
(440,676,o),
(455,671,cs),
(467,667,l),
(470,522,o),
(482,379,o),
(482,234,cs)
);
}
);
width = 924;
},
{
layerId = "8E39700C-2F6D-4A17-B4B3-161F49A69C4C";
shapes = (
{
closed = 1;
nodes = (
(779,22,o),
(649,6,o),
(584,6,q,{
name = ab02;
}),
(552,6,o),
(521,9,q),
(484,-12,o),
(397,-31,o),
(362,-31,q,{
name = ab01;
}),
(295,-31,o),
(186,25,o),
(108,129,o),
(66,275,o),
(66,364,q),
(66,408,o),
(83,503,o),
(119,595,o),
(174,679,o),
(249,742,o),
(344,779,o),
(403,779,q,{
name = at02;
}),
(429,779,o),
(480,771,o),
(503,762,q),
(529,770,o),
(580,776,o),
(604,776,q,{
name = at01;
}),
(633,776,o),
(690,769,o),
(748,761,o),
(807,753,o),
(839,752,q,{
name = sv03;
}),
(866,749,o),
(893,719,o),
(893,702,q),
(893,685,o),
(866,654,o),
(839,652,q,{
name = sv02;
}),
(782,655,o),
(671,677,o),
(616,677,q,{
name = sv01;
}),
(591,677,o),
(567,674,q),
(568,612,o),
(573,491,o),
(576,430,q,{
name = dv01;
}),
(631,430,l),
(655,430,o),
(704,427,o),
(743,415,o),
(767,392,o),
(767,372,q),
(767,353,o),
(739,326,o),
(713,326,q),
(680,326,o),
(613,329,o),
(580,330,q,{
name = dv02;
}),
(581,319,o),
(581,296,o),
(581,285,q),
(581,243,o),
(576,157,o),
(574,109,q,{
name = sv04;
}),
(642,109,o),
(775,121,o),
(843,124,q),
(870,121,o),
(897,91,o),
(897,74,q),
(897,57,o),
(870,26,o),
(843,24,q)
);
},
{
closed = 1;
nodes = (
(482,343,o),
(469,558,o),
(467,667,q),
(455,671,l),
(444,675,o),
(406,679,o),
(393,679,q,{
name = sv05;
}),
(383,679,o),
(361,676,o),
(347,671,q),
(299,656,o),
(230,591,o),
(185,506,o),
(164,408,o),
(164,359,q),
(164,321,o),
(183,220,o),
(229,129,o),
(305,66,o),
(362,66,q,{
name = sv06;
}),
(375,66,o),
(398,71,o),
(421,78,o),
(446,88,o),
(462,93,q),
(472,96,l),
(475,132,o),
(482,201,o),
(482,234,q)
);
}
);
width = 924;
},
{
anchors = (
{
name = bottom;
pos = (521,0);
},
{
name = top;
pos = (516,745);
}
);
layerId = "92936CB7-D294-4857-B41D-63B9425360A1";
shapes = (
{
closed = 1;
nodes = (
(295,-31,o),
(186,25,o),
(108,129,o),
(66,275,o),
(66,364,q),
(66,408,o),
(83,503,o),
(119,595,o),
(174,679,o),
(249,742,o),
(344,779,o),
(403,779,q,{
name = at02;
}),
(429,779,o),
(480,771,o),
(503,762,q),
(529,770,o),
(580,776,o),
(604,776,q,{
name = at01;
}),
(633,776,o),
(690,769,o),
(748,761,o),
(807,753,o),
(839,752,q,{
name = sv03;
}),
(866,749,o),
(893,719,o),
(893,702,q),
(893,685,o),
(866,654,o),
(839,652,q,{
name = sv02;
}),
(782,655,o),
(671,677,o),
(616,677,q,{
name = sv01;
}),
(591,677,o),
(567,674,q),
(568,612,o),
(573,491,o),
(576,430,q,{
name = dv01;
}),
(631,430,l),
(655,430,o),
(704,427,o),
(743,415,o),
(767,392,o),
(767,372,q),
(767,353,o),
(739,326,o),
(713,326,q),
(680,326,o),
(613,329,o),
(580,330,q,{
name = dv02;
}),
(581,319,o),
(581,296,o),
(581,285,q),
(581,243,o),
(576,157,o),
(574,109,q,{
name = sv04;
}),
(642,109,o),
(775,121,o),
(843,124,q),
(870,121,o),
(897,91,o),
(897,74,q),
(897,57,o),
(870,26,o),
(843,24,q),
(779,22,o),
(649,6,o),
(584,6,q,{
name = ab02;
}),
(552,6,o),
(521,9,q),
(484,-12,o),
(397,-31,o),
(362,-31,q,{
name = ab01;
})
);
},
{
closed = 1;
nodes = (
(375,66,o),
(398,71,o),
(421,78,o),
(446,88,o),
(462,93,q),
(472,96,l),
(475,132,o),
(482,201,o),
(482,234,q),
(482,343,o),
(469,558,o),
(467,667,q),
(455,671,l),
(444,675,o),
(406,679,o),
(393,679,q,{
name = sv05;
}),
(383,679,o),
(361,676,o),
(347,671,q),
(299,656,o),
(230,591,o),
(185,506,o),
(164,408,o),
(164,359,q),
(164,321,o),
(183,220,o),
(229,129,o),
(305,66,o),
(362,66,q,{
name = sv06;
})
);
}
);
width = 924;
}
);
unicode = 338;
},
{
color = 4;
glyphname = P;
kernLeft = P;
kernRight = P;
layers = (
{
anchors = (
{
name = bottom;
pos = (98,-5);
},
{
name = top;
pos = (326,725);
}
);
layerId = master01;
shapes = (
{
closed = 1;
nodes = (
(42,-47,o),
(140,-42,o),
(147,21,cs),
(171,242,o),
(187,463,o),
(193,684,cs),
(195,750,o),
(97,747,o),
(94,692,cs),
(83,472,o),
(66,251,o),
(48,31,cs)
);
},
{
closed = 1;
nodes = (
(361,274,o),
(556,337,o),
(571,512,cs),
(585,672,o),
(466,736,o),
(348,736,cs),
(257,736,o),
(187,712,o),
(123,671,c),
(152,605,l),
(207,629,o),
(265,641,o),
(317,641,cs),
(417,641,o),
(471,604,o),
(464,520,cs),
(455,417,o),
(344,358,o),
(132,384,c),
(120,301,l)
);
}
);
userData = {
com.typemytype.robofont.mark = (
1,
0.976,
0.6,
1
);
};
width = 597;
},
{
layerId = "8E39700C-2F6D-4A17-B4B3-161F49A69C4C";
shapes = (
{
closed = 1;
nodes = (
(58,201,o),
(69,517,o),
(77,677,q),
(76,680,o),
(76,687,q,{
name = sv01;
}),
(76,706,o),
(104,735,o),
(129,735,q,{
name = at01;
}),
(149,735,o),
(171,704,o),
(175,690,q,{
name = sv02;
}),
(203,716,o),
(276,740,o),
(316,740,q,{
name = at02;
}),
(356,740,o),
(445,719,o),
(520,673,o),
(569,602,o),
(569,552,q),
(569,482,o),
(507,381,o),
(414,315,o),
(304,284,o),
(256,284,q,{
name = dv01;
}),
(236,284,o),
(198,286,o),
(179,286,q),
(177,268,o),
(173,234,o),
(171,217,q),
(168,193,o),
(162,136,o),
(156,80,o),
(150,34,o),
(147,21,q),
(143,-5,o),
(113,-29,o),
(96,-29,q,{
name = ab01;
}),
(77,-29,o),
(47,0,o),
(47,29,q),
(47,36,o),
(48,40,q)
);
},
{
closed = 1;
nodes = (
(197,491,o),
(188,421,o),
(186,386,q),
(204,385,o),
(242,383,o),
(261,383,q,{
name = dv02;
}),
(296,383,o),
(368,405,o),
(427,448,o),
(465,511,o),
(465,551,q),
(465,576,o),
(440,610,o),
(399,632,o),
(348,642,o),
(321,642,q,{
name = sv03;
}),
(288,642,o),
(246,621,o),
(222,587,o),
(209,545,o),
(205,524,q)
);
}
);
width = 597;
},
{
anchors = (
{
name = bottom;
pos = (98,-5);
},
{
name = top;
pos = (326,725);
}
);
hints = (
{
horizontal = 1;
options = 4;
origin = (0,14);
target = (1,5);
type = TTStem;
},
{
horizontal = 1;
origin = (0,10);
type = TTSnap;
},
{
horizontal = 1;
options = 4;
origin = (0,22);
target = (1,12);
type = TTStem;
},
{
horizontal = 1;
origin = (0,2);
type = TTSnap;
},
{
horizontal = 1;
origin = (0,2);
other1 = (0,22);
target = (0,14);
type = TTInterpolate;
}
);
layerId = "92936CB7-D294-4857-B41D-63B9425360A1";
shapes = (
{
closed = 1;
nodes = (
(145,-2,o),
(115,-27,o),
(72,-27,o),
(46,5,o),
(48,31,q),
(66,254,o),
(87,560,o),
(94,692,q),
(95,711,o),
(124,733,o),
(143,733,q,{
name = sv01;
}),
(176,733,o),
(189,706,q),
(263,736,o),
(348,736,q,{
name = at01;
}),
(420,736,o),
(528,679,o),
(577,579,o),
(571,512,q),
(565,441,o),
(477,344,o),
(324,295,o),
(222,295,q,{
name = dv01;
}),
(199,295,o),
(173,297,q),
(168,234,o),
(155,98,o),
(147,21,q)
);
},
{
closed = 1;
nodes = (
(335,377,o),
(458,453,o),
(464,520,q),
(469,581,o),
(395,641,o),
(317,641,q,{
name = sv02;
}),
(256,641,o),
(191,620,q),
(188,551,o),
(182,432,o),
(178,379,q),
(196,377,o),
(224,377,q,{
name = dv02;
})
);
}
);
userData = {
com.typemytype.robofont.mark = (
0.656,
1,
0.6,
1
);
};
width = 597;
}
);
unicode = 80;
},
{
glyphname = Thorn;
kernLeft = P;
kernRight = P;
layers = (
{
layerId = master01;
shapes = (
{
closed = 1;
nodes = (
(81,538,o),
(79,399,o),
(78,258,cs),
(78,238,o),
(73,156,o),
(73,91,cs),
(73,42,o),
(74,20,o),
(87,-4,cs),
(95,-19,o),
(117,-29,o),
(130,-29,cs),
(161,-29,o),
(177,-9,o),
(177,30,cs),
(177,41,o),
(176,51,o),
(173,59,c),
(176,68,o),
(177,83,o),
(177,104,cs),
(177,191,l),
(192,191,o),
(207,190,o),
(222,190,cs),
(278,190,o),
(332,193,o),
(384,209,cs),
(453,230,o),
(530,292,o),
(530,388,cs),
(530,537,o),
(342,571,o),
(235,571,cs),
(216,571,o),
(200,570,o),
(181,570,c),
(181,687,l),
(176,722,o),
(153,737,o),
(130,737,cs),
(105,737,o),
(81,718,o),
(81,679,cs)
);
},
{
closed = 1;
nodes = (
(199,471,o),
(221,472,o),
(241,472,cs),
(312,472,o),
(426,442,o),
(426,390,cs),
(426,354,o),
(407,324,o),
(379,313,cs),
(331,294,o),
(278,292,o),
(226,292,cs),
(177,292,l),
(180,470,l)
);
}
);
width = 599;
},
{
layerId = "8E39700C-2F6D-4A17-B4B3-161F49A69C4C";
shapes = (
{
closed = 1;
nodes = (
(81,708,o),
(111,737,o),
(130,737,q,{
name = at01;
}),
(147,737,o),
(177,713,o),
(181,687,q),
(181,570,l,{
name = dv03;
}),
(195,570,o),
(221,571,o),
(235,571,q),
(275,571,o),
(377,556,o),
(468,515,o),
(530,444,o),
(530,388,q),
(530,352,o),
(504,293,o),
(462,248,o),
(410,217,o),
(384,209,q),
(345,197,o),
(264,190,o),
(222,190,q),
(211,190,o),
(188,191,o),
(177,191,q,{
name = dv01;
}),
(177,104,l),
(177,72,o),
(173,59,q),
(177,47,o),
(177,30,q),
(177,-29,o),
(130,-29,q,{
name = ab01;
}),
(120,-29,o),
(93,-15,o),
(87,-4,q),
(77,14,o),
(73,54,o),
(73,91,q),
(73,115,o),
(75,168,o),
(76,215,o),
(78,250,o),
(78,258,q),
(79,364,o),
(81,573,o),
(81,679,q)
);
},
{
closed = 1;
nodes = (
(226,292,l),
(265,292,o),
(343,299,o),
(379,313,q),
(400,321,o),
(426,363,o),
(426,390,q),
(426,409,o),
(388,440,o),
(332,461,o),
(268,472,o),
(241,472,q),
(226,472,o),
(194,471,o),
(180,470,q,{
name = dv04;
}),
(177,292,l,{
name = dv02;
})
);
}
);
width = 599;
},
{
layerId = "92936CB7-D294-4857-B41D-63B9425360A1";
shapes = (
{
closed = 1;
nodes = (
(120,-29,o),
(93,-15,o),
(87,-4,q),
(77,14,o),
(73,54,o),
(73,91,q),
(73,115,o),
(75,168,o),
(76,215,o),
(78,250,o),
(78,258,q),
(79,364,o),
(81,573,o),
(81,679,q),
(81,708,o),
(111,737,o),
(130,737,q,{
name = at01;
}),
(147,737,o),
(177,713,o),
(181,687,q),
(181,570,l,{
name = dv03;
}),
(195,570,o),
(221,571,o),
(235,571,q),
(275,571,o),
(377,556,o),
(468,515,o),
(530,444,o),
(530,388,q),
(530,352,o),
(504,293,o),
(462,248,o),
(410,217,o),
(384,209,q),
(345,197,o),
(264,190,o),
(222,190,q),
(211,190,o),
(188,191,o),
(177,191,q,{
name = dv01;
}),
(177,104,l),
(177,72,o),
(173,59,q),
(177,47,o),
(177,30,q),
(177,-29,o),
(130,-29,q,{
name = ab01;
})
);
},
{
closed = 1;
nodes = (
(226,292,l),
(265,292,o),
(343,299,o),
(379,313,q),
(400,321,o),
(426,363,o),
(426,390,q),
(426,409,o),
(388,440,o),
(332,461,o),
(268,472,o),
(241,472,q),
(226,472,o),
(194,471,o),
(180,470,q,{
name = dv04;
}),
(177,292,l,{
name = dv02;
})
);
}
);
width = 599;
}
);
unicode = 222;
},
{
color = 4;
glyphname = Q;
layers = (
{
anchors = (
{
name = bottom;
pos = (239,44);
},
{
name = top;
pos = (385,700);
}
);
layerId = master01;
shapes = (
{
closed = 1;
nodes = (
(381,23,o),
(540,123,o),
(589,343,cs),
(642,581,o),
(562,733,o),
(384,733,cs),
(228,733,o),
(86,595,o),
(45,386,cs),
(-4,140,o),
(106,23,o),
(255,23,cs)
);
},
{
closed = 1;
nodes = (
(158,120,o),
(114,198,o),
(149,371,cs),
(181,532,o),
(277,637,o),
(380,637,cs),
(482,637,o),
(520,534,o),
(488,369,cs),
(451,181,o),
(347,120,o),
(258,120,cs)
);
},
{
closed = 1;
nodes = (
(618,-60,o),
(647,22,o),
(582,49,cs),
(478,92,o),
(410,133,o),
(358,234,cs),
(323,302,o),
(256,273,o),
(275,204,cs),
(308,83,o),
(433,-7,o),
(548,-40,cs)
);
}
);
userData = {
com.typemytype.robofont.mark = (
1,
0.976,
0.6,
1
);
};
width = 638;
},
{
layerId = "8E39700C-2F6D-4A17-B4B3-161F49A69C4C";
shapes = (
{
closed = 1;
nodes = (
(264,251,o),
(293,275,o),
(311,275,q),
(325,275,o),
(350,260,o),
(359,241,q),
(366,227,o),
(384,193,o),
(398,177,q,{
name = sv03;
}),
(444,211,o),
(495,313,o),
(495,370,q),
(495,394,o),
(487,420,q),
(482,434,o),
(465,455,o),
(447,476,o),
(434,500,o),
(434,517,q),
(434,539,o),
(462,565,o),
(480,565,q,{
name = sv05;
}),
(503,565,o),
(533,531,o),
(548,513,q),
(573,483,o),
(595,409,o),
(595,369,q),
(595,331,o),
(577,256,o),
(544,188,o),
(500,130,o),
(473,109,q,{
name = sv07;
}),
(501,89,o),
(559,61,o),
(582,53,q,{
name = dv02;
}),
(602,46,o),
(620,19,o),
(620,5,q),
(620,-13,o),
(592,-42,o),
(569,-42,q,{
name = dv01;
}),
(553,-42,o),
(505,-25,o),
(452,3,o),
(400,37,o),
(380,55,q,{
name = sv06;
}),
(345,40,o),
(270,23,o),
(235,23,q,{
name = av01;
}),
(189,23,o),
(116,53,o),
(65,117,o),
(38,218,o),
(38,289,q),
(38,322,o),
(48,400,o),
(74,482,o),
(117,565,o),
(150,603,q),
(172,628,o),
(222,675,o),
(281,711,o),
(352,733,o),
(395,733,q,{
name = at01;
}),
(414,733,o),
(444,732,o),
(470,728,o),
(496,720,o),
(510,714,q),
(534,703,o),
(565,666,o),
(565,643,q),
(565,617,o),
(536,590,o),
(518,590,q),
(505,590,o),
(480,604,o),
(472,619,q),
(456,626,o),
(422,635,o),
(404,635,q,{
name = sv04;
}),
(377,635,o),
(324,618,o),
(274,590,o),
(231,550,o),
(214,528,q),
(172,471,o),
(137,350,o),
(137,289,q),
(137,260,o),
(144,200,o),
(166,152,o),
(207,121,o),
(242,121,q,{
name = sv01;
}),
(273,121,o),
(308,133,q,{
name = sv02;
}),
(293,153,o),
(264,202,o),
(264,225,q)
);
}
);
width = 638;
},
{
anchors = (
{
name = bottom;
pos = (239,44);
},
{
name = top;
pos = (385,700);
}
);
background = {
shapes = (
{
closed = 1;
nodes = (
(536,68,o),
(496,87,o),
(463,111,c,{
name = iv02;
}),
(519,163,o),
(566,240,o),
(589,343,cs),
(642,581,o),
(562,733,o),
(384,733,cs),
(228,733,o),
(86,595,o),
(45,386,cs),
(-3,140,o),
(106,23,o),
(255,23,cs),
(294,23,o),
(336,33,o),
(377,52,c,{
name = iv01;
}),
(427,9,o),
(489,-23,o),
(548,-40,cs),
(555,-42,o),
(562,-43,o),
(569,-43,cs),
(623,-43,o),
(640,25,o),
(582,49,cs)
);
},
{
closed = 1;
nodes = (
(182,532,o),
(277,637,o),
(380,637,cs),
(482,637,o),
(520,534,o),
(488,369,cs),
(470,276,o),
(436,215,o),
(395,176,c,{
name = iv04;
}),
(382,193,o),
(369,212,o),
(358,234,cs),
(323,302,o),
(256,273,o),
(275,204,cs),
(282,177,o),
(295,151,o),
(310,127,c,{
name = iv03;
}),
(293,122,o),
(275,120,o),
(258,120,cs),
(158,120,o),
(114,198,o),
(149,371,cs)
);
}
);
};
hints = (
{
horizontal = 1;
options = 4;
origin = (0,6);
target = (1,20);
type = TTStem;
},
{
horizontal = 1;
options = 4;
origin = (0,12);
target = (1,14);
type = TTStem;
},
{
horizontal = 1;
options = 4;
origin = (0,6);
other1 = (0,17);
target = (0,12);
type = TTInterpolate;
},
{
horizontal = 1;
options = 4;
origin = (0,6);
other1 = (0,4);
target = (0,12);
type = TTInterpolate;
},
{
horizontal = 1;
options = 4;
origin = (1,20);
other1 = (1,1);
target = (1,14);
type = TTInterpolate;
},
{
horizontal = 1;
options = 4;
origin = (1,20);
other1 = (1,9);
target = (1,14);
type = TTInterpolate;
},
{
horizontal = 1;
origin = (0,6);
type = TTSnap;
},
{
horizontal = 1;
origin = (0,23);
stem = -1;
type = TTSnap;
}
);
layerId = "92936CB7-D294-4857-B41D-63B9425360A1";
shapes = (
{
closed = 1;
nodes = (
(559,-43,o),
(548,-40,qs),
(502,-27,o),
(413,21,o),
(377,52,q,{
name = iv01;
}),
(314,23,o),
(255,23,qs),
(129,23,o),
(12,219,o),
(45,386,qs),
(75,539,o),
(264,733,o),
(384,733,qs),
(518,733,o),
(628,521,o),
(589,343,qs),
(557,198,o),
(463,111,q,{
name = iv02;
}),
(504,81,o),
(582,49,qs),
(608,38,o),
(623,-6,o),
(595,-43,o),
(569,-43,qs)
);
},
{
closed = 1;
nodes = (
(286,120,o),
(310,127,q,{
name = iv03;
}),
(285,169,o),
(275,204,qs),
(266,236,o),
(293,276,o),
(342,265,o),
(358,234,qs),
(372,206,o),
(395,176,q,{
name = iv04;
}),
(463,241,o),
(488,369,qs),
(512,494,o),
(456,637,o),
(380,637,qs),
(301,637,o),
(173,490,o),
(149,371,qs),
(124,247,o),
(179,120,o),
(258,120,qs)
);
}
);
userData = {
com.typemytype.robofont.mark = (
0.656,
1,
0.6,
1
);
};
width = 638;
}
);
unicode = 81;
},
{
color = 4;
glyphname = R;
kernRight = R;
layers = (
{
anchors = (
{
name = bottom;
pos = (318,0);
},
{
name = top;
pos = (361,725);
}
);
layerId = master01;
shapes = (
{
closed = 1;
nodes = (
(165,-19,o),
(186,-1,o),
(188,36,cs),
(198,232,o),
(206,428,o),
(203,624,c),
(102,626,l),
(103,429,o),
(93,231,o),
(89,34,cs),
(88,-1,o),
(113,-19,o),
(138,-19,cs)
);
},
{
closed = 1;
nodes = (
(453,302,o),
(571,395,o),
(588,523,cs),
(604,641,o),
(535,726,o),
(399,726,cs),
(268,726,o),
(140,681,o),
(72,640,cs),
(22,610,o),
(51,542,o),
(103,566,cs),
(196,609,o),
(290,636,o),
(372,636,cs),
(452,636,o),
(491,599,o),
(480,524,cs),
(467,433,o),
(348,374,o),
(136,360,c),
(145,278,l)
);
},
{
closed = 1;
nodes = (
(593,-27,o),
(617,14,o),
(589,54,cs),
(523,146,o),
(407,251,o),
(311,328,c),
(228,295,l),
(334,199,o),
(427,86,o),
(511,-5,cs),
(525,-20,o),
(541,-27,o),
(555,-27,cs)
);
}
);
userData = {
com.typemytype.robofont.mark = (
0.619,
1,
0.6,
1
);
};
width = 645;
},
{
layerId = "8E39700C-2F6D-4A17-B4B3-161F49A69C4C";
shapes = (
{
closed = 1;
nodes = (
(82,705,o),
(112,734,o),
(131,734,q,{
name = at01;
}),
(148,734,o),
(182,710,o),
(182,684,q),
(182,633,l),
(211,677,o),
(311,731,o),
(391,731,q,{
name = at02;
}),
(449,731,o),
(530,707,o),
(581,664,o),
(603,605,o),
(603,571,q),
(603,522,o),
(559,423,o),
(522,388,q),
(510,376,o),
(475,349,o),
(434,326,o),
(388,308,o),
(366,305,q,{
name = sv01;
}),
(388,269,o),
(436,200,o),
(488,137,o),
(546,86,o),
(579,68,q),
(598,59,o),
(617,32,o),
(617,18,q),
(617,0,o),
(589,-29,o),
(566,-29,q,{
name = ab02;
}),
(557,-29,o),
(547,-26,q),
(503,-10,o),
(418,66,o),
(342,159,o),
(279,256,o),
(256,294,q,{
name = dv01;
}),
(242,301,o),
(229,326,o),
(229,343,q),
(229,363,o),
(258,394,o),
(293,394,q,{
name = dv02;
}),
(305,394,o),
(339,398,o),
(377,408,o),
(415,425,o),
(432,438,q),
(464,463,o),
(503,527,o),
(503,569,q),
(503,583,o),
(499,605,o),
(496,608,q),
(483,621,o),
(436,632,o),
(408,632,q,{
name = sv02;
}),
(370,632,o),
(317,622,o),
(280,602,o),
(256,571,o),
(248,551,q),
(234,517,o),
(217,443,o),
(207,367,o),
(199,290,o),
(195,254,q),
(180,158,l),
(177,122,o),
(177,84,q),
(177,32,l),
(177,9,o),
(149,-20,o),
(128,-20,q,{
name = ab01;
}),
(76,-20,o),
(76,40,q),
(76,66,o),
(76,109,o),
(78,136,q),
(80,165,l),
(77,235,o),
(77,308,q),
(77,401,o),
(82,583,o),
(82,676,q)
);
}
);
width = 645;
},
{
anchors = (
{
name = bottom;
pos = (318,0);
},
{
name = top;
pos = (361,725);
}
);
background = {
shapes = (
{
closed = 1;
nodes = (
(529,138,o),
(427,233,o),
(337,307,c),
(504,349,o),
(575,426,o),
(588,523,cs),
(604,641,o),
(535,726,o),
(399,726,cs),
(268,726,o),
(140,681,o),
(72,640,cs),
(22,610,o),
(51,543,o),
(102,566,c),
(101,389,o),
(93,211,o),
(89,34,cs),
(88,-1,o),
(113,-19,o),
(138,-19,cs),
(165,-19,o),
(186,-1,o),
(188,36,cs),
(192,118,o),
(196,201,o),
(199,283,c),
(212,285,o),
(224,286,o),
(236,288,c),
(339,193,o),
(429,84,o),
(511,-5,cs),
(525,-20,o),
(541,-27,o),
(555,-27,cs),
(593,-27,o),
(617,14,o),
(589,54,cs)
);
},
{
closed = 1;
nodes = (
(262,625,o),
(320,636,o),
(372,636,cs),
(452,636,o),
(491,599,o),
(480,524,cs),
(468,443,o),
(372,387,o),
(201,366,c),
(203,446,o),
(204,526,o),
(203,606,c)
);
}
);
};
hints = (
{
horizontal = 1;
origin = (0,10);
type = TTSnap;
},
{
horizontal = 1;
origin = (0,39);
type = TTSnap;
},
{
horizontal = 1;
options = 4;
origin = (0,24);
target = (1,5);
type = TTStem;
},
{
horizontal = 1;
options = 4;
origin = (0,10);
other1 = (0,5);
target = (0,24);
type = TTInterpolate;
},
{
horizontal = 1;
options = 4;
origin = (0,5);
target = (1,9);
type = TTStem;
},
{
horizontal = 1;
options = 4;
origin = (0,24);
other1 = (0,30);
target = (0,5);
type = TTInterpolate;
},
{
horizontal = 1;
options = 4;
origin = (0,10);
other1 = (0,21);
target = (0,24);
type = TTInterpolate;
},
{
horizontal = 1;
options = 4;
origin = (0,21);
target = (0,16);
type = TTStem;
}
);
layerId = "92936CB7-D294-4857-B41D-63B9425360A1";
shapes = (
{
closed = 1;
nodes = (
(532,-27,o),
(511,-5,q),
(488,20,o),
(310,219,o),
(236,288,q),
(199,283,l,{
name = dv01;
}),
(197,237,o),
(193,130,o),
(188,36,q),
(187,10,o),
(160,-19,o),
(117,-19,o),
(88,10,o),
(89,34,q),
(90,98,o),
(101,453,o),
(102,566,q,{
name = sv02;
}),
(84,558,o),
(55,569,o),
(43,598,o),
(55,630,o),
(72,640,q),
(135,678,o),
(314,726,o),
(399,726,q,{
name = at01;
}),
(497,726,o),
(600,615,o),
(588,523,q),
(577,443,o),
(452,336,o),
(337,307,q,{
name = sv03;
}),
(392,262,o),
(489,171,o),
(564,89,o),
(589,54,q),
(599,40,o),
(603,11,o),
(591,-13,o),
(569,-27,o),
(555,-27,q,{
name = ab02;
})
);
},
{
closed = 1;
nodes = (
(329,382,o),
(471,463,o),
(480,524,q),
(488,580,o),
(433,636,o),
(372,636,q,{
name = sv01;
}),
(296,636,o),
(203,606,q),
(204,499,o),
(201,366,q,{
name = dv02;
})
);
}
);
userData = {
com.typemytype.robofont.mark = (
0.656,
1,
0.6,
1
);
};
width = 645;
}
);
unicode = 82;
},
{
glyphname = Rcaron;
kernRight = R;
layers = (
{
color = 6;
layerId = master01;
shapes = (
{
ref = R;
},
{
pos = (712,97);
ref = caroncomb.case;
}
);
userData = {
com.typemytype.robofont.mark = (
0.6,
0.741,
1,
1
);
};
width = 645;
},
{
layerId = "8E39700C-2F6D-4A17-B4B3-161F49A69C4C";
shapes = (
{
closed = 1;
nodes = (
(200,889,o),
(229,917,o),
(247,917,q),
(256,917,o),
(271,911,o),
(279,906,q),
(290,899,l),
(307,884,o),
(331,848,o),
(347,831,q),
(362,818,l,{
name = sv01;
}),
(365,818,o),
(366,819,q),
(379,829,o),
(410,853,o),
(443,875,o),
(476,893,o),
(493,897,q),
(503,903,o),
(517,903,q),
(534,903,o),
(567,879,o),
(567,853,q),
(567,836,o),
(546,808,o),
(522,802,q),
(493,788,o),
(465,764,q),
(440,744,o),
(414,730,q,{
name = at01;
}),
(457,728,o),
(489,719,q),
(530,707,o),
(581,664,o),
(603,605,o),
(603,571,q),
(603,522,o),
(559,423,o),
(522,388,q),
(510,376,o),
(475,349,o),
(434,326,o),
(388,308,o),
(366,305,q,{
name = sv02;
}),
(388,269,o),
(436,200,o),
(488,137,o),
(546,86,o),
(579,68,q,{
name = sv03;
}),
(598,59,o),
(617,32,o),
(617,18,q),
(617,0,o),
(589,-29,o),
(566,-29,q,{
name = ab02;
}),
(557,-29,o),
(547,-26,q),
(503,-10,o),
(418,66,o),
(342,159,o),
(279,256,o),
(256,294,q,{
name = dv01;
}),
(242,301,o),
(229,326,o),
(229,343,q),
(229,363,o),
(258,394,o),
(293,394,q,{
name = dv02;
}),
(305,394,o),
(339,398,o),
(377,408,o),
(415,425,o),
(432,438,q),
(464,463,o),
(503,527,o),
(503,569,q),
(503,583,o),
(499,605,o),
(496,608,q),
(483,621,o),
(436,632,o),
(408,632,q,{
name = sv04;
}),
(370,632,o),
(317,622,o),
(280,602,o),
(256,571,o),
(248,551,q),
(234,517,o),
(217,443,o),
(207,367,o),
(199,290,o),
(195,254,q),
(180,158,l),
(177,122,o),
(177,84,q),
(177,32,l),
(177,9,o),
(149,-20,o),
(128,-20,q,{
name = ab01;
}),
(76,-20,o),
(76,40,q),
(76,87,l),
(76,109,o),
(78,136,q),
(80,165,l),
(77,235,o),
(77,308,q),
(77,401,o),
(82,583,o),
(82,676,q),
(82,705,o),
(112,734,o),
(131,734,q,{
name = at02;
}),
(148,734,o),
(182,710,o),
(182,684,q),
(182,633,l,{
name = sv05;
}),
(211,677,o),
(261,704,q),
(285,717,o),
(317,724,q,{
name = sv06;
}),
(304,734,o),
(293,744,q),
(275,763,l),
(273,765,o),
(263,778,o),
(256,786,q),
(243,803,l),
(237,812,o),
(233,817,q),
(226,821,o),
(200,844,o),
(200,866,q)
);
}
);
width = 645;
},
{
color = 6;
layerId = "92936CB7-D294-4857-B41D-63B9425360A1";
shapes = (
{
ref = R;
},
{
pos = (712,97);
ref = caroncomb.case;
}
);
userData = {
com.typemytype.robofont.mark = (
0.6,
0.986,
1,
1
);
};
width = 645;
}
);
unicode = 344;
},
{
color = 4;
glyphname = S;
kernLeft = S;
kernRight = S;
layers = (
{
anchors = (
{
name = bottom;
pos = (253,-15);
},
{
name = top;
pos = (275,710);
}
);
layerId = master01;
shapes = (
{
closed = 1;
nodes = (
(415,-27,o),
(488,61,o),
(488,168,cs),
(488,297,o),
(394,366,o),
(310,424,cs),
(241,472,o),
(178,512,o),
(178,571,cs),
(178,622,o),
(215,640,o),
(278,640,cs),
(322,640,o),
(358,627,o),
(388,606,cs),
(447,564,o),
(484,609,o),
(459,653,cs),
(436,694,o),
(367,731,o),
(275,731,cs),
(149,731,o),
(74,672,o),
(74,568,cs),
(74,470,o),
(156,409,o),
(236,352,cs),
(311,299,o),
(384,249,o),
(384,172,cs),
(384,95,o),
(337,65,o),
(270,65,cs),
(191,65,o),
(147,97,o),
(117,162,cs),
(89,222,o),
(17,196,o),
(35,125,cs),
(55,44,o),
(137,-27,o),
(271,-27,cs)
);
}
);
userData = {
com.typemytype.robofont.mark = (
0.619,
1,
0.6,
1
);
};
width = 541;
},
{
layerId = "8E39700C-2F6D-4A17-B4B3-161F49A69C4C";
shapes = (
{
closed = 1;
nodes = (
(454,672,o),
(470,648,o),
(470,628,q),
(470,606,o),
(443,579,o),
(424,579,q),
(414,579,o),
(391,587,o),
(383,598,q),
(369,618,o),
(322,640,o),
(278,640,q,{
name = sv01;
}),
(260,640,o),
(224,635,o),
(197,624,o),
(180,608,o),
(180,596,q),
(180,561,o),
(232,505,o),
(268,474,q,{
name = iv01;
}),
(288,457,o),
(330,421,o),
(369,386,o),
(401,356,o),
(412,344,q),
(452,299,o),
(488,216,o),
(488,168,q),
(488,126,o),
(461,52,o),
(406,-3,o),
(325,-36,o),
(271,-36,q,{
name = ab01;
}),
(209,-36,o),
(117,0,o),
(57,55,o),
(28,121,o),
(28,151,q),
(28,177,o),
(54,204,o),
(74,204,q),
(111,204,o),
(123,173,q),
(127,163,o),
(130,146,o),
(135,136,q),
(152,98,o),
(223,67,o),
(261,67,q,{
name = sv02;
}),
(318,67,o),
(380,115,o),
(380,172,q),
(380,215,o),
(313,299,o),
(257,347,q,{
name = iv02;
}),
(232,368,o),
(169,419,o),
(113,478,o),
(74,548,o),
(74,589,q),
(74,635,o),
(114,691,o),
(177,721,o),
(254,731,o),
(291,731,q,{
name = at01;
}),
(335,731,o),
(418,710,o),
(444,683,q)
);
}
);
width = 541;
},
{
anchors = (
{
name = bottom;
pos = (253,-15);
},
{
name = top;
pos = (275,710);
}
);
background = {
shapes = (
{
closed = 1;
nodes = (
(415,-27,o),
(488,61,o),
(488,168,cs),
(488,297,o),
(394,366,o),
(310,424,cs),
(241,472,o),
(178,512,o),
(178,571,cs),
(178,622,o),
(215,640,o),
(278,640,cs),
(322,640,o),
(358,627,o),
(388,606,cs),
(447,564,o),
(484,609,o),
(459,653,cs),
(436,694,o),
(367,731,o),
(275,731,cs),
(149,731,o),
(74,672,o),
(74,568,cs),
(74,470,o),
(156,409,o),
(236,352,cs),
(311,299,o),
(384,249,o),
(384,172,cs),
(384,95,o),
(337,65,o),
(270,65,cs),
(191,65,o),
(147,97,o),
(117,162,cs),
(89,222,o),
(17,196,o),
(35,125,cs),
(55,44,o),
(137,-27,o),
(271,-27,cs)
);
}
);
};
hints = (
{
horizontal = 1;
options = 4;
origin = (0,42);
target = (0,10);
type = TTStem;
},
{
horizontal = 1;
options = 4;
origin = (0,21);
target = (0,31);
type = TTStem;
},
{
horizontal = 1;
options = 4;
origin = (0,42);
other1 = (0,15);
target = (0,31);
type = TTInterpolate;
},
{
horizontal = 1;
options = 4;
origin = (0,10);
other1 = (0,36);
target = (0,21);
type = TTInterpolate;
}
);
layerId = "92936CB7-D294-4857-B41D-63B9425360A1";
shapes = (
{
closed = 1;
nodes = (
(179,-27,o),
(52,57,o),
(35,125,qs),
(29,150,o),
(43,187,o),
(76,199,o),
(108,182,o),
(117,162,qs),
(140,111,o),
(213,65,o),
(270,65,qs,{
name = sv01;
}),
(326,65,o),
(384,119,o),
(384,172,qs),
(384,207,o),
(337,281,o),
(140,420,o),
(74,515,o),
(74,568,qs),
(74,645,o),
(180,731,o),
(275,731,qs,{
name = at01;
}),
(339,731,o),
(440,687,o),
(459,653,qs),
(469,636,o),
(464,603,o),
(440,587,o),
(406,593,o),
(388,606,qs),
(339,640,o),
(278,640,qs,{
name = sv02;
}),
(227,640,o),
(178,607,o),
(178,571,qs),
(178,533,o),
(247,465,o),
(402,362,o),
(488,243,o),
(488,168,qs),
(488,80,o),
(371,-27,o),
(271,-27,qs,{
name = ab01;
})
);
}
);
userData = {
com.typemytype.robofont.mark = (
0.656,
1,
0.6,
1
);
};
width = 541;
}
);
unicode = 83;
},
{
color = 6;
glyphname = Scaron;
kernLeft = S;
kernRight = S;
layers = (
{
background = {
shapes = (
{
closed = 1;
nodes = (
(123,859,o),
(165,791,o),
(197,751,c),
(189,747,ls),
(126,710,o),
(95,610,o),
(95,561,cs),
(95,389,o),
(294,306,o),
(370,163,cs),
(377,151,o),
(380,141,o),
(380,133,cs),
(380,96,o),
(305,87,o),
(272,87,cs),
(231,87,o),
(185,101,o),
(158,126,cs),
(147,135,o),
(148,154,o),
(145,165,c),
(132,188,o),
(114,199,o),
(95,199,cs),
(71,199,o),
(48,178,o),
(48,141,cs),
(48,108,o),
(61,79,o),
(88,54,cs),
(132,13,o),
(208,-11,o),
(284,-11,cs),
(372,-11,o),
(484,28,o),
(484,125,cs),
(484,172,o),
(452,227,o),
(428,259,c),
(348,371,o),
(198,456,o),
(198,564,cs),
(198,591,o),
(215,640,o),
(238,658,c),
(242,658,o),
(377,658,o),
(393,600,c),
(404,571,o),
(424,558,o),
(444,558,cs),
(468,558,o),
(491,577,o),
(491,610,cs),
(491,681,o),
(417,728,o),
(306,753,c),
(345,772,o),
(392,783,o),
(435,798,cs),
(462,807,o),
(473,829,o),
(473,848,cs),
(473,871,o),
(451,897,o),
(419,897,cs),
(390,897,o),
(311,863,o),
(253,839,c),
(220,880,o),
(156,969,o),
(102,969,cs),
(70,969,o),
(50,946,o),
(50,921,cs),
(50,905,o),
(58,887,o),
(78,875,c)
);
}
);
};
color = 6;
layerId = master01;
shapes = (
{
ref = S;
},
{
pos = (541,0);
ref = caroncomb.case;
}
);
width = 541;
},
{
layerId = "8E39700C-2F6D-4A17-B4B3-161F49A69C4C";
shapes = (
{
closed = 1;
nodes = (
(63,884,o),
(50,909,o),
(50,921,q),
(50,940,o),
(78,969,o),
(102,969,q),
(122,969,o),
(165,940,o),
(206,899,o),
(241,854,o),
(253,839,q,{
name = sv01;
}),
(275,848,o),
(324,868,o),
(370,886,o),
(408,897,o),
(419,897,q),
(443,897,o),
(473,865,o),
(473,848,q),
(473,834,o),
(455,805,o),
(435,798,q),
(403,787,o),
(335,767,o),
(306,753,q,{
name = av01;
}),
(389,734,o),
(491,663,o),
(491,610,q),
(491,585,o),
(462,558,o),
(444,558,q),
(429,558,o),
(401,578,o),
(393,600,q),
(387,622,o),
(338,645,o),
(284,656,o),
(239,658,o,{
name = sv02;
}),
(238,658,q),
(229,651,o),
(215,628,o),
(204,601,o),
(198,574,o),
(198,564,q),
(198,523,o),
(247,450,o,{
name = iv01;
}),
(319,377,o),
(398,301,o),
(428,259,q),
(437,247,o),
(456,215,o),
(473,180,o),
(484,143,o),
(484,125,q),
(484,89,o),
(446,37,o),
(388,4,o),
(317,-11,o),
(284,-11,q,{
name = ab01;
}),
(227,-11,o),
(121,23,o),
(88,54,q),
(48,91,o),
(48,141,q),
(48,169,o),
(77,199,o),
(95,199,q),
(109,199,o),
(135,182,o),
(145,165,q),
(147,157,o),
(150,133,o),
(158,126,q),
(178,107,o),
(241,87,o),
(272,87,q,{
name = sv03;
}),
(284,87,o),
(321,91,o),
(356,101,o),
(380,119,o),
(380,133,q),
(380,145,o),
(370,163,q),
(351,199,o),
(296,262,o),
(235,322,o,{
name = iv02;
}),
(174,381,o),
(125,445,o),
(95,518,o),
(95,561,q),
(95,579,o),
(107,632,o),
(130,686,o),
(165,733,o),
(189,747,q),
(197,751,l,{
name = sv04;
}),
(185,766,o),
(157,804,o),
(127,840,o),
(95,869,o),
(78,875,q)
);
}
);
width = 541;
},
{
color = 6;
layerId = "92936CB7-D294-4857-B41D-63B9425360A1";
shapes = (
{
ref = S;
},
{
pos = (541,0);
ref = caroncomb.case;
}
);
width = 541;
}
);
unicode = 352;
},
{
glyphname = Scedilla;
kernLeft = S;
kernRight = S;
layers = (
{
color = 6;
layerId = master01;
shapes = (
{
ref = S;
},
{
pos = (407,-15);
ref = cedillacomb;
}
);
userData = {
com.typemytype.robofont.mark = (
0.6,
0.741,
1,
1
);
};
width = 541;
},
{
layerId = "8E39700C-2F6D-4A17-B4B3-161F49A69C4C";
shapes = (
{
closed = 1;
nodes = (
(454,672,o),
(470,648,o),
(470,628,q),
(470,606,o),
(443,579,o),
(424,579,q),
(414,579,o),
(391,587,o),
(383,598,q),
(369,618,o),
(322,640,o),
(278,640,q,{
name = sv01;
}),
(260,640,o),
(224,635,o),
(197,624,o),
(180,608,o),
(180,596,q),
(180,561,o),
(232,505,o),
(268,474,q,{
name = iv01;
}),
(288,457,o),
(330,421,o),
(369,386,o),
(401,356,o),
(412,344,q),
(452,299,o),
(488,216,o),
(488,168,q),
(488,130,o),
(466,62,o),
(421,8,o),
(354,-27,o),
(310,-33,q,{
name = ab01;
}),
(308,-47,o),
(303,-59,q,{
name = dv01;
}),
(338,-67,o),
(388,-118,o),
(388,-156,q),
(388,-183,o),
(361,-226,o),
(319,-256,o),
(267,-273,o),
(242,-273,q,{
name = sv04;
}),
(204,-273,o),
(152,-243,o),
(152,-216,q),
(152,-197,o),
(179,-167,o),
(199,-167,q),
(208,-167,o),
(241,-170,o),
(253,-172,q,{
name = sv03;
}),
(260,-170,o),
(277,-164,o),
(284,-157,q,{
name = dv02;
}),
(235,-157,o),
(194,-119,o),
(194,-89,q),
(194,-64,o),
(207,-30,q,{
name = sv05;
}),
(161,-21,o),
(94,18,o),
(50,68,o),
(28,125,o),
(28,151,q),
(28,177,o),
(54,204,o),
(74,204,q),
(111,204,o),
(123,173,q),
(127,163,o),
(130,146,o),
(135,136,q),
(152,98,o),
(223,67,o),
(261,67,q,{
name = sv02;
}),
(318,67,o),
(380,115,o),
(380,172,q),
(380,215,o),
(313,299,o),
(257,347,q,{
name = iv02;
}),
(232,368,o),
(169,419,o),
(113,478,o),
(74,548,o),
(74,589,q),
(74,635,o),
(114,691,o),
(177,721,o),
(254,731,o),
(291,731,q,{
name = at01;
}),
(335,731,o),
(418,710,o),
(444,683,q)
);
}
);
width = 541;
},
{
color = 6;
layerId = "92936CB7-D294-4857-B41D-63B9425360A1";
shapes = (
{
ref = S;
},
{
pos = (407,-15);
ref = cedillacomb;
}
);
userData = {
com.typemytype.robofont.mark = (
0.6,
0.986,
1,
1
);
};
width = 541;
}
);
unicode = 350;
},
{
glyphname = Germandbls;
layers = (
{
layerId = master01;
shapes = (
{
closed = 1;
nodes = (
(92,465,o),
(70,263,o),
(67,44,cs),
(67,5,o),
(89,-14,o),
(116,-14,cs),
(140,-14,o),
(167,3,o),
(167,36,cs),
(170,237,o),
(189,427,o),
(194,628,c),
(287,628,o),
(380,631,o),
(476,631,c),
(428,563,o),
(378,512,o),
(331,445,c),
(324,437,o),
(318,424,o),
(318,408,cs),
(318,384,o),
(334,360,o),
(369,357,c),
(453,352,o),
(533,291,o),
(533,199,cs),
(533,115,o),
(446,72,o),
(376,72,cs),
(355,72,o),
(343,76,o),
(340,83,cs),
(327,106,o),
(309,117,o),
(290,117,cs),
(266,117,o),
(244,98,o),
(244,67,cs),
(244,57,o),
(247,47,o),
(252,36,cs),
(275,-9,o),
(323,-28,o),
(376,-28,cs),
(523,-28,o),
(636,78,o),
(636,197,cs),
(636,318,o),
(546,408,o),
(453,443,c),
(504,508,o),
(559,569,o),
(600,641,cs),
(607,652,o),
(610,662,o),
(610,679,cs),
(610,720,o),
(574,733,o),
(527,733,cs),
(500,733,o),
(482,731,o),
(463,731,cs),
(359,730,o),
(261,728,o),
(157,728,cs),
(114,728,o),
(95,707,o),
(95,678,cs)
);
}
);
width = 690;
},
{
layerId = "8E39700C-2F6D-4A17-B4B3-161F49A69C4C";
shapes = (
{
closed = 1;
nodes = (
(95,700,o),
(125,728,o),
(157,728,q,{
name = at01;
}),
(235,728,o),
(385,730,o),
(463,731,q),
(477,731,o),
(507,733,o),
(527,733,q,{
name = at02;
}),
(562,733,o),
(610,710,o),
(610,679,q),
(610,666,o),
(605,649,o),
(600,641,q),
(569,587,o),
(491,492,o),
(453,443,q,{
name = iv01;
}),
(488,430,o),
(554,384,o),
(605,321,o),
(636,242,o),
(636,197,q),
(636,152,o),
(596,71,o),
(526,9,o),
(431,-28,o),
(376,-28,q,{
name = ab01;
}),
(336,-28,o),
(269,2,o),
(252,36,q),
(244,52,o),
(244,67,q),
(244,90,o),
(272,117,o),
(290,117,q),
(304,117,o),
(330,100,o),
(340,83,q),
(345,72,o),
(376,72,q,{
name = sv01;
}),
(402,72,o),
(458,88,o),
(504,120,o),
(533,167,o),
(533,199,q),
(533,233,o),
(505,290,o),
(460,331,o),
(400,355,o),
(369,357,q,{
name = iv02;
}),
(343,359,o),
(318,390,o),
(318,408,q),
(318,420,o),
(326,439,o),
(331,445,q),
(366,495,o),
(440,580,o),
(476,631,q,{
name = sv02;
}),
(404,631,o),
(264,628,o),
(194,628,q,{
name = sv03;
}),
(190,477,o),
(169,187,o),
(167,36,q),
(167,11,o),
(134,-14,o),
(116,-14,q,{
name = ab02;
}),
(96,-14,o),
(67,15,o),
(67,44,q),
(68,126,o),
(77,285,o),
(86,442,o),
(94,598,o),
(95,678,q)
);
}
);
width = 690;
},
{
layerId = "92936CB7-D294-4857-B41D-63B9425360A1";
shapes = (
{
closed = 1;
nodes = (
(336,-28,o),
(269,2,o),
(252,36,q),
(244,52,o),
(244,67,q),
(244,90,o),
(272,117,o),
(290,117,q),
(304,117,o),
(330,100,o),
(340,83,q),
(345,72,o),
(376,72,q,{
name = sv01;
}),
(402,72,o),
(458,88,o),
(504,120,o),
(533,167,o),
(533,199,q),
(533,233,o),
(505,290,o),
(460,331,o),
(400,355,o),
(369,357,q,{
name = iv02;
}),
(343,359,o),
(318,390,o),
(318,408,q),
(318,420,o),
(326,439,o),
(331,445,q),
(366,495,o),
(440,580,o),
(476,631,q,{
name = sv02;
}),
(404,631,o),
(264,628,o),
(194,628,q,{
name = sv03;
}),
(190,477,o),
(169,187,o),
(167,36,q),
(167,11,o),
(134,-14,o),
(116,-14,q,{
name = ab02;
}),
(96,-14,o),
(67,15,o),
(67,44,q),
(68,126,o),
(77,285,o),
(86,442,o),
(94,598,o),
(95,678,q),
(95,700,o),
(125,728,o),
(157,728,q,{
name = at01;
}),
(235,728,o),
(385,730,o),
(463,731,q),
(477,731,o),
(507,733,o),
(527,733,q,{
name = at02;
}),
(562,733,o),
(610,710,o),
(610,679,q),
(610,666,o),
(605,649,o),
(600,641,q),
(569,587,o),
(491,492,o),
(453,443,q,{
name = iv01;
}),
(488,430,o),
(554,384,o),
(605,321,o),
(636,242,o),
(636,197,q),
(636,152,o),
(596,71,o),
(526,9,o),
(431,-28,o),
(376,-28,q,{
name = ab01;
})
);
}
);
width = 690;
}
);
unicode = 7838;
},
{
color = 4;
glyphname = T;
kernLeft = T;
kernRight = T;
layers = (
{
anchors = (
{
name = bottom;
pos = (266,14);
},
{
name = top;
pos = (290,695);
}
);
layerId = master01;
shapes = (
{
closed = 1;
nodes = (
(219,599,o),
(376,608,o),
(534,613,c),
(569,614,o),
(585,630,o),
(585,654,cs),
(585,683,o),
(566,702,o),
(525,703,cs),
(409,707,o),
(216,701,o),
(62,690,cs),
(22,687,o),
(6,668,o),
(6,639,cs),
(6,612,o),
(23,590,o),
(61,592,cs)
);
},
{
closed = 1;
nodes = (
(292,-9,o),
(314,5,o),
(316,44,cs),
(324,248,o),
(333,441,o),
(338,646,c),
(240,639,l),
(231,440,o),
(222,249,o),
(216,49,cs),
(215,10,o),
(240,-9,o),
(265,-9,cs)
);
}
);
userData = {
com.typemytype.robofont.mark = (
0.619,
1,
0.6,
1
);
};
width = 599;
},
{
layerId = "8E39700C-2F6D-4A17-B4B3-161F49A69C4C";
shapes = (
{
closed = 1;
nodes = (
(28,590,o),
(6,624,o),
(6,640,q),
(6,648,o),
(11,665,o),
(23,680,o),
(43,690,o),
(57,690,q),
(90,690,o),
(163,698,o),
(241,708,o),
(321,716,o),
(360,716,q,{
name = av01;
}),
(390,716,o),
(460,713,o),
(491,705,q),
(506,701,o),
(538,693,o),
(542,693,q),
(569,693,o),
(591,660,o),
(591,644,q),
(591,626,o),
(563,594,o),
(537,594,q),
(517,594,o),
(482,606,o),
(463,609,q),
(432,614,o),
(369,617,o),
(337,617,q,{
name = sv01;
}),
(335,540,o),
(329,399,o),
(321,261,o),
(316,120,o),
(316,44,q),
(316,15,o),
(285,-9,o),
(265,-9,q,{
name = ab01;
}),
(246,-9,o),
(216,20,o),
(216,49,q),
(217,124,o),
(223,261,o),
(230,397,o),
(236,535,o),
(237,610,q,{
name = sv02;
}),
(190,604,o),
(99,590,o),
(55,590,q)
);
}
);
width = 599;
},
{
anchors = (
{
name = bottom;
pos = (266,14);
},
{
name = top;
pos = (290,695);
}
);
hints = (
{
horizontal = 1;
origin = (0,2);
type = TTSnap;
},
{
horizontal = 1;
options = 4;
origin = (0,17);
target = (0,7);
type = TTStem;
},
{
horizontal = 1;
options = 4;
origin = (0,7);
target = (0,28);
type = TTShift;
},
{
horizontal = 1;
origin = (0,17);
type = TTSnap;
}
);
layerId = "92936CB7-D294-4857-B41D-63B9425360A1";
shapes = (
{
closed = 1;
nodes = (
(314,15,o),
(285,-9,o),
(246,-9,o),
(215,20,o),
(216,49,q),
(220,190,o),
(232,460,o),
(238,600,q,{
name = sv01;
}),
(193,598,o),
(106,594,o),
(61,592,q),
(32,590,o),
(6,619,o),
(6,661,o),
(32,688,o),
(62,690,q),
(120,694,o),
(246,700,o,{
name = av01;
}),
(369,704,o),
(481,704,o),
(525,703,q),
(556,702,o),
(585,676,o),
(585,637,o),
(560,614,o),
(534,613,q),
(484,611,o),
(386,607,o),
(337,605,q,{
name = sv02;
}),
(333,462,o),
(321,187,o),
(316,44,q)
);
}
);
userData = {
com.typemytype.robofont.mark = (
0.656,
1,
0.6,
1
);
};
width = 599;
}
);
unicode = 84;
},
{
glyphname = Tbar;
kernLeft = T;
kernRight = T;
layers = (
{
color = 6;
layerId = master01;
shapes = (
{
ref = T;
},
{
pos = (546,175);
ref = macroncomb;
}
);
width = 599;
},
{
layerId = "8E39700C-2F6D-4A17-B4B3-161F49A69C4C";
shapes = (
{
closed = 1;
nodes = (
(28,590,o),
(6,624,o),
(6,640,q),
(6,648,o),
(11,665,o),
(23,680,o),
(43,690,o),
(57,690,q,{
name = sv04;
}),
(90,690,o),
(163,698,o),
(241,708,o),
(321,716,o),
(360,716,q,{
name = av01;
}),
(390,716,o),
(460,713,o),
(491,705,q),
(506,701,o),
(538,693,o,{
name = sv06;
}),
(542,693,q),
(569,693,o),
(591,660,o),
(591,644,q),
(591,626,o),
(563,594,o),
(537,594,q,{
name = sv05;
}),
(517,594,o),
(482,606,o),
(463,609,q),
(432,614,o),
(369,617,o),
(337,617,q,{
name = sv01;
}),
(335,540,o),
(332,469,q),
(330,422,l,{
name = dv02;
}),
(344,422,o),
(358,421,q),
(395,419,o),
(427,419,q),
(454,416,o),
(481,386,o),
(481,369,q),
(481,352,o),
(454,321,o),
(427,319,q),
(405,319,o),
(366,321,q),
(346,322,o),
(324,322,q,{
name = dv01;
}),
(321,257,o),
(318,190,q),
(316,120,o),
(316,44,q),
(316,15,o),
(285,-9,o),
(265,-9,q,{
name = ab01;
}),
(246,-9,o),
(216,20,o),
(216,49,q),
(217,124,o),
(220,192,q),
(223,257,o),
(226,321,q,{
name = sv07;
}),
(221,321,o),
(217,320,q),
(185,318,o),
(167,310,q),
(159,306,o),
(145,304,o),
(139,304,q),
(117,304,o),
(90,331,o),
(90,350,q),
(90,374,o),
(128,403,o),
(186,418,o),
(220,420,q),
(231,421,l,{
name = sv08;
}),
(232,444,o),
(233,466,q),
(236,535,o),
(237,610,q,{
name = sv02;
}),
(190,604,o),
(99,590,o),
(55,590,q,{
name = sv03;
})
);
}
);
width = 599;
},
{
color = 6;
layerId = "92936CB7-D294-4857-B41D-63B9425360A1";
shapes = (
{
ref = T;
},
{
pos = (546,175);
ref = macroncomb;
}
);
width = 599;
}
);
unicode = 358;
},
{
glyphname = Tcedilla;
kernLeft = T;
kernRight = T;
layers = (
{
background = {
shapes = (
{
closed = 1;
nodes = (
(104,602,o),
(151,618,o),
(228,623,c),
(228,504,o),
(226,388,o),
(226,269,cs),
(226,226,o),
(230,185,o),
(230,142,cs),
(230,74,o),
(212,22,o),
(212,-38,cs),
(212,-109,o),
(247,-94,o),
(266,-132,cs),
(270,-139,o),
(271,-148,o),
(272,-157,c),
(251,-166,l),
(235,-147,o),
(214,-136,o),
(197,-136,cs),
(172,-136,o),
(151,-156,o),
(151,-180,cs),
(151,-221,o),
(209,-268,o),
(250,-268,cs),
(292,-268,o),
(363,-235,o),
(371,-192,cs),
(372,-185,o),
(373,-178,o),
(373,-171,cs),
(373,-114,o),
(353,-69,o),
(312,-37,c),
(312,14,o),
(328,62,o),
(329,113,cs),
(329,142,ls),
(329,201,o),
(326,256,o),
(326,315,cs),
(326,419,o),
(328,521,o),
(328,625,c),
(397,622,o),
(468,618,o),
(533,618,cs),
(569,618,o),
(587,645,o),
(587,668,cs),
(587,695,o),
(570,717,o),
(527,718,cs),
(454,721,o),
(373,726,o),
(293,726,cs),
(274,726,o),
(258,726,o),
(239,725,cs),
(170,722,o),
(103,706,o),
(42,701,cs),
(3,698,o),
(-10,674,o),
(-10,651,cs),
(-10,630,o),
(4,602,o),
(39,602,cs)
);
}
);
};
color = 6;
layerId = master01;
shapes = (
{
ref = T;
},
{
pos = (125,-12);
ref = cedilla;
}
);
width = 599;
},
{
layerId = "8E39700C-2F6D-4A17-B4B3-161F49A69C4C";
shapes = (
{
closed = 1;
nodes = (
(13,602,o),
(-10,635,o),
(-10,651,q),
(-10,668,o),
(13,699,o),
(42,701,q,{
name = sv01;
}),
(88,705,o),
(187,723,o),
(239,725,q),
(253,726,o),
(279,726,o),
(293,726,q,{
name = at01;
}),
(353,726,o),
(472,720,o),
(527,718,q,{
name = sv03;
}),
(559,717,o),
(587,688,o),
(587,668,q),
(587,651,o),
(560,618,o),
(533,618,q,{
name = sv04;
}),
(484,618,o),
(380,623,o),
(328,625,q,{
name = sv05;
}),
(328,547,o),
(326,393,o),
(326,315,q),
(326,271,o),
(329,186,o),
(329,142,q),
(329,113,l),
(328,75,o),
(312,1,o),
(312,-37,q,{
name = ab02;
}),
(373,-85,o,{
name = sv06;
}),
(373,-171,q,{
name = sv09;
}),
(373,-176,o),
(372,-187,o),
(371,-192,q),
(368,-208,o),
(341,-236,o),
(305,-256,o),
(266,-268,o),
(250,-268,q),
(235,-268,o),
(200,-252,o,{
name = sv11;
}),
(170,-227,o),
(151,-195,o),
(151,-180,q),
(151,-162,o),
(178,-136,o),
(197,-136,q,{
name = sv10;
}),
(210,-136,o),
(239,-152,o),
(251,-166,q,{
name = sv08;
}),
(272,-157,l),
(271,-150,o),
(269,-137,o),
(266,-132,q),
(259,-118,o),
(240,-105,o,{
name = sv07;
}),
(224,-90,o),
(212,-65,o),
(212,-38,q,{
name = ab01;
}),
(212,7,o),
(230,91,o),
(230,142,q),
(230,174,o),
(226,237,o),
(226,269,q),
(226,358,o),
(228,534,o),
(228,623,q,{
name = sv12;
}),
(199,621,o),
(151,614,o),
(107,607,o),
(63,602,o),
(39,602,q,{
name = sv02;
})
);
}
);
width = 599;
},
{
color = 6;
layerId = "92936CB7-D294-4857-B41D-63B9425360A1";
shapes = (
{
ref = T;
},
{
pos = (125,-12);
ref = cedilla;
}
);
width = 599;
}
);
unicode = 354;
},
{
color = 4;
glyphname = U;
kernLeft = U;
kernRight = U;
layers = (
{
anchors = (
{
name = bottom;
pos = (233,10);
},
{
name = top;
pos = (302,695);
}
);
layerId = master01;
shapes = (
{
closed = 1;
nodes = (
(63,575,o),
(48,493,o),
(43,380,cs),
(34,179,o),
(79,-11,o),
(232,-11,cs),
(322,-11,o),
(411,39,o),
(464,347,c),
(424,351,l),
(396,116,o),
(446,-25,o),
(526,-25,cs),
(557,-25,o),
(577,-7,o),
(577,20,cs),
(577,33,o),
(571,44,o),
(561,53,cs),
(547,65,o),
(530,80,o),
(519,99,cs),
(492,145,o),
(493,303,o),
(514,486,c),
(525,548,o),
(535,607,o),
(534,656,cs),
(533,691,o),
(514,709,o),
(487,709,cs),
(461,709,o),
(442,693,o),
(434,661,cs),
(425,626,o),
(416,554,o),
(414,490,c),
(399,375,o),
(379,293,o),
(360,229,cs),
(329,122,o),
(293,85,o),
(241,85,cs),
(176,85,o),
(134,201,o),
(142,359,cs),
(148,468,o),
(164,546,o),
(184,654,cs),
(191,694,o),
(167,717,o),
(138,717,cs),
(116,717,o),
(94,703,o),
(86,672,cs)
);
}
);
userData = {
com.typemytype.robofont.mark = (
1,
0.976,
0.6,
1
);
};
width = 605;
},
{
layerId = "8E39700C-2F6D-4A17-B4B3-161F49A69C4C";
shapes = (
{
closed = 1;
nodes = (
(91,691,o),
(114,718,o),
(137,718,q,{
name = av01;
}),
(159,718,o),
(186,689,o),
(186,668,q),
(186,657,o),
(180,625,o),
(171,589,o),
(162,552,o),
(159,535,q),
(151,489,o),
(139,397,o),
(139,343,q),
(139,308,o),
(150,220,o),
(174,142,o),
(212,89,o),
(239,89,q,{
name = sv01;
}),
(254,89,o),
(279,105,o),
(299,130,o),
(314,158,o),
(320,170,q),
(340,213,o),
(372,342,o),
(396,477,o),
(411,599,o),
(415,635,q),
(415,643,o),
(416,662,o),
(417,667,q),
(419,684,o),
(442,709,o),
(468,709,q,{
name = av02;
}),
(488,709,o),
(516,681,o),
(516,656,q),
(516,626,o),
(508,564,o),
(502,530,q),
(499,499,o),
(495,438,o),
(492,385,o),
(490,346,o),
(490,337,q),
(489,323,o),
(489,295,o),
(489,281,q),
(489,234,o),
(496,146,o),
(502,123,q),
(505,111,o),
(520,84,o),
(528,78,q,{
name = sv02;
}),
(556,74,o),
(577,42,o),
(577,24,q),
(577,1,o),
(549,-25,o),
(526,-25,q,{
name = ab02;
}),
(480,-25,o),
(414,52,o),
(400,124,q),
(371,53,o),
(289,-11,o),
(223,-11,q,{
name = ab01;
}),
(171,-11,o),
(89,74,o),
(68,148,q),
(53,202,o),
(41,298,o),
(41,353,q),
(41,433,o),
(69,599,o),
(86,672,q)
);
}
);
width = 605;
},
{
anchors = (
{
name = bottom;
pos = (233,10);
},
{
name = top;
pos = (302,695);
}
);
background = {
shapes = (
{
closed = 1;
nodes = (
(557,-25,o),
(577,-7,o),
(577,20,cs),
(577,33,o),
(571,44,o),
(561,53,cs),
(547,65,o),
(530,80,o),
(519,99,cs),
(492,145,o),
(493,303,o),
(514,486,c),
(525,548,o),
(535,607,o),
(534,656,cs),
(533,691,o),
(514,709,o),
(487,709,cs),
(461,709,o),
(442,693,o),
(434,661,cs),
(425,626,o),
(416,554,o),
(414,490,c),
(399,375,o),
(379,293,o),
(360,229,cs),
(329,122,o),
(293,85,o),
(241,85,cs),
(176,85,o),
(134,201,o),
(142,359,cs),
(148,468,o),
(164,546,o),
(184,654,cs),
(191,694,o),
(167,717,o),
(138,717,cs),
(116,717,o),
(94,703,o),
(86,672,cs),
(63,575,o),
(48,493,o),
(43,380,cs),
(34,179,o),
(79,-11,o),
(232,-11,cs),
(300,-11,o),
(367,17,o),
(419,163,c),
(429,43,o),
(470,-25,o),
(526,-25,cs)
);
}
);
};
hints = (
{
horizontal = 1;
options = 4;
origin = (0,5);
target = (0,25);
type = TTStem;
},
{
horizontal = 1;
origin = (0,35);
type = TTSnap;
},
{
horizontal = 1;
origin = (0,51);
type = TTSnap;
},
{
horizontal = 1;
options = 4;
origin = (0,5);
other1 = (0,2);
target = (0,35);
type = TTInterpolate;
},
{
horizontal = 1;
origin = (0,35);
target = (0,14);
type = TTShift;
}
);
layerId = "92936CB7-D294-4857-B41D-63B9425360A1";
shapes = (
{
closed = 1;
nodes = (
(483,-25,o),
(426,74,o),
(419,163,q),
(387,73,o),
(299,-11,o),
(232,-11,qs),
(133,-11,o),
(35,197,o),
(43,380,qs),
(46,453,o),
(65,585,o),
(86,672,qs),
(91,693,o),
(119,717,o),
(138,717,qs),
(162,717,o),
(190,682,o),
(184,654,qs),
(178,625,ls),
(162,548,o),
(145,426,o),
(142,359,qs),
(138,282,o),
(161,156,o),
(209,85,o),
(241,85,qs),
(282,85,o),
(338,152,o),
(360,229,qs),
(396,349,o),
(414,490,q),
(415,536,o),
(427,634,o),
(434,661,qs),
(446,709,o),
(487,709,qs),
(508,709,o),
(533,682,o),
(534,656,qs),
(535,629,o),
(527,557,o),
(514,486,q),
(497,341,o),
(500,132,o),
(519,99,qs),
(530,79,o),
(561,53,qs),
(577,39,o),
(577,20,qs),
(577,0,o),
(549,-25,o),
(526,-25,qs)
);
}
);
userData = {
com.typemytype.robofont.mark = (
0.656,
1,
0.6,
1
);
};
width = 605;
}
);
unicode = 85;
},
{
glyphname = Udieresis;
kernLeft = U;
kernRight = U;
layers = (
{
color = 6;
layerId = master01;
shapes = (
{
alignment = -1;
pos = (18,0);
ref = U;
},
{
pos = (507,-10);
ref = dieresiscomb.case;
}
);
width = 648;
},
{
layerId = "8E39700C-2F6D-4A17-B4B3-161F49A69C4C";
shapes = (
{
closed = 1;
nodes = (
(99,713,o),
(127,734,o),
(142,734,q,{
name = at02;
}),
(159,734,o),
(187,709,o),
(191,684,q),
(188,648,o),
(173,552,o),
(156,446,o),
(144,336,o),
(144,285,q),
(144,236,o),
(160,152,o),
(180,123,q),
(185,115,o),
(203,104,o),
(211,98,q,{
name = sv01;
}),
(235,103,o),
(279,135,o),
(293,155,q),
(354,239,o),
(440,435,o),
(457,538,q),
(462,573,o),
(465,644,o),
(471,680,q),
(479,701,o),
(507,721,o),
(521,721,q,{
name = at01;
}),
(538,721,o),
(567,696,o),
(571,671,q),
(568,612,o),
(553,495,o),
(538,378,o),
(527,259,o),
(527,199,q),
(527,168,o),
(536,107,o),
(553,89,q),
(558,85,o),
(569,82,o),
(574,80,q,{
name = sv02;
}),
(594,72,o),
(612,44,o),
(612,30,q),
(612,12,o),
(584,-17,o),
(561,-17,q,{
name = ab02;
}),
(552,-17,o),
(542,-14,q),
(540,-13,o),
(525,-8,o),
(506,0,o),
(487,9,o),
(483,14,q),
(467,29,o),
(447,67,o),
(435,111,o),
(430,159,o),
(430,182,q,{
name = sv03;
}),
(416,157,o),
(386,111,o),
(369,89,q),
(352,66,o),
(314,33,o),
(285,16,q),
(279,12,o),
(259,4,o),
(237,-3,o),
(216,-8,o),
(209,-8,q,{
name = ab01;
}),
(162,-8,o),
(100,54,o),
(61,144,o),
(45,244,o),
(45,281,q),
(45,333,o),
(56,436,o),
(71,538,o),
(87,640,o),
(91,692,q)
);
},
{
closed = 1;
nodes = (
(377,941,o),
(407,970,o),
(426,970,q,{
name = sv05;
}),
(443,970,o),
(473,946,o),
(477,920,q),
(479,891,o),
(496,834,o),
(498,804,q),
(494,779,o),
(466,754,o),
(449,754,q,{
name = sv06;
}),
(434,754,o),
(406,774,o),
(398,796,q),
(396,826,o),
(379,882,o),
(377,912,q)
);
},
{
closed = 1;
nodes = (
(177,899,o),
(207,928,o),
(226,928,q,{
name = sv04;
}),
(243,928,o),
(273,904,o),
(277,878,q),
(277,858,o),
(298,815,o),
(298,797,q),
(298,773,o),
(270,745,o),
(251,745,q,{
name = av01;
}),
(233,745,o),
(206,770,o),
(188,807,o),
(178,851,o),
(177,870,q)
);
}
);
width = 648;
},
{
color = 6;
layerId = "92936CB7-D294-4857-B41D-63B9425360A1";
shapes = (
{
alignment = -1;
pos = (18,0);
ref = U;
},
{
pos = (507,-10);
ref = dieresiscomb.case;
}
);
userData = {
com.typemytype.robofont.mark = (
0.6,
0.986,
1,
1
);
};
width = 648;
}
);
unicode = 220;
},
{
color = 4;
glyphname = V;
layers = (
{
anchors = (
{
name = bottom;
pos = (281,-3);
},
{
name = top;
pos = (355,667);
}
);
layerId = master01;
shapes = (
{
closed = 1;
nodes = (
(126,426,o),
(175,220,o),
(236,15,cs),
(244,-12,o),
(262,-24,o),
(282,-24,cs),
(303,-24,o),
(322,-12,o),
(335,9,cs),
(457,208,o),
(570,414,o),
(661,624,cs),
(680,668,o),
(650,697,o),
(615,697,cs),
(597,697,o),
(578,688,o),
(569,667,cs),
(483,474,o),
(389,283,o),
(281,95,c),
(310,97,l),
(267,283,o),
(224,469,o),
(180,657,cs),
(173,688,o),
(152,702,o),
(129,702,cs),
(100,702,o),
(72,677,o),
(81,633,cs)
);
}
);
userData = {
com.typemytype.robofont.mark = (
1,
0.976,
0.6,
1
);
};
width = 716;
},
{
layerId = "8E39700C-2F6D-4A17-B4B3-161F49A69C4C";
shapes = (
{
closed = 1;
nodes = (
(32,641,o),
(30,657,o),
(30,665,q),
(30,688,o),
(58,711,o),
(76,711,q,{
name = av01;
}),
(89,711,o),
(117,695,o),
(126,677,q),
(151,627,o),
(195,509,o),
(233,386,o),
(267,263,o),
(281,209,q),
(285,194,o),
(292,164,o),
(295,149,q),
(331,221,o),
(402,365,o),
(447,434,q),
(490,499,o),
(582,619,o),
(617,691,q,{
name = sv01;
}),
(625,709,o),
(653,721,o),
(665,721,q,{
name = at01;
}),
(684,721,o),
(712,693,o),
(712,669,q),
(712,659,o),
(707,649,q),
(683,601,o),
(627,515,o),
(567,432,o),
(508,347,o),
(483,301,q),
(457,253,o),
(410,157,o),
(386,108,q),
(375,88,o),
(353,40,o),
(336,23,q),
(331,5,o),
(307,-24,o),
(284,-24,q,{
name = ab01;
}),
(257,-24,o),
(223,22,o),
(203,87,o),
(190,159,o),
(184,185,q),
(170,238,o),
(139,354,o),
(103,471,o),
(61,583,o),
(37,633,q)
);
}
);
width = 716;
},
{
anchors = (
{
name = bottom;
pos = (281,-3);
},
{
name = top;
pos = (355,667);
}
);
background = {
shapes = (
{
closed = 1;
nodes = (
(597,697,o),
(578,688,o),
(569,667,cs),
(489,487,o),
(401,308,o),
(302,132,c,{
name = sv01;
}),
(262,306,o),
(221,481,o),
(180,657,cs),
(173,688,o),
(152,702,o),
(129,702,cs),
(100,702,o),
(72,677,o),
(81,633,cs),
(126,426,o),
(175,220,o),
(236,15,cs),
(244,-12,o),
(262,-24,o),
(282,-24,cs),
(303,-24,o),
(322,-12,o),
(335,9,cs),
(457,208,o),
(570,414,o),
(661,624,cs),
(680,668,o),
(650,697,o),
(615,697,cs)
);
}
);
};
hints = (
{
horizontal = 1;
origin = (0,23);
type = TTSnap;
},
{
horizontal = 1;
origin = (0,15);
type = TTSnap;
},
{
horizontal = 1;
origin = (0,15);
target = (0,6);
type = TTShift;
},
{
horizontal = 1;
options = 4;
origin = (0,23);
other1 = (0,11);
target = (0,15);
type = TTInterpolate;
}
);
layerId = "92936CB7-D294-4857-B41D-63B9425360A1";
shapes = (
{
closed = 1;
nodes = (
(315,-24,o),
(335,9,qs),
(538,340,o),
(661,624,qs),
(674,654,o),
(644,697,o),
(615,697,qs),
(600,697,o),
(575,681,o),
(569,667,qs),
(441,380,o),
(302,132,q,{
name = sv01;
}),
(180,657,ls),
(175,679,o),
(148,702,o),
(129,702,qs),
(104,702,o),
(75,663,o),
(81,633,qs),
(159,273,o),
(236,15,qs),
(242,-4,o),
(266,-24,o),
(282,-24,qs)
);
}
);
userData = {
com.typemytype.robofont.mark = (
0.656,
1,
0.6,
1
);
};
width = 716;
}
);
unicode = 86;
},
{
color = 4;
glyphname = W;
kernLeft = W;
kernRight = W;
layers = (
{
anchors = (
{
name = bottom;
pos = (342,16);
},
{
name = top;
pos = (391,640);
}
);
layerId = master01;
shapes = (
{
closed = 1;
nodes = (
(68,446,o),
(107,242,o),
(157,41,cs),
(164,13,o),
(183,0,o),
(207,0,cs),
(228,0,o),
(249,13,o),
(256,36,c),
(315,174,o),
(376,309,o),
(434,443,c),
(407,435,l),
(447,291,o),
(497,144,o),
(556,19,c),
(566,-9,o),
(584,-23,o),
(607,-23,cs),
(636,-23,o),
(655,-5,o),
(665,29,cs),
(724,237,o),
(764,447,o),
(793,656,cs),
(799,697,o),
(773,719,o),
(742,719,cs),
(719,719,o),
(697,705,o),
(693,676,cs),
(668,478,o),
(629,279,o),
(580,83,c),
(632,63,l),
(572,216,o),
(527,373,o),
(482,533,cs),
(474,561,o),
(455,576,o),
(428,576,cs),
(402,576,o),
(382,562,o),
(373,532,c),
(310,396,o),
(247,262,o),
(199,122,c),
(231,121,l),
(196,304,o),
(160,486,o),
(139,670,cs),
(136,700,o),
(116,714,o),
(94,714,cs),
(61,714,o),
(34,690,o),
(40,649,cs)
);
}
);
userData = {
com.typemytype.robofont.mark = (
1,
0.976,
0.6,
1
);
};
width = 839;
},
{
layerId = "8E39700C-2F6D-4A17-B4B3-161F49A69C4C";
shapes = (
{
closed = 1;
nodes = (
(39,573,o),
(69,599,o),
(88,599,q,{
name = av01;
}),
(111,599,o),
(135,570,o),
(140,540,q),
(151,461,o),
(191,303,o),
(218,214,q),
(235,243,o),
(268,301,o),
(282,330,q),
(288,343,o),
(300,376,o),
(316,406,o),
(341,426,o),
(360,426,q,{
name = av04;
}),
(373,426,o),
(394,416,o),
(401,404,q),
(444,347,o),
(509,199,o),
(525,116,q),
(570,178,o),
(635,301,o),
(677,433,o),
(699,579,o),
(703,665,q,{
name = sv01;
}),
(704,686,o),
(733,714,o),
(754,714,q,{
name = av02;
}),
(774,714,o),
(803,687,o),
(803,664,q,{
name = sv02;
}),
(803,568,o),
(764,368,o),
(727,276,q),
(700,208,o),
(629,92,o),
(592,47,q),
(583,36,o),
(564,11,o),
(543,-10,o),
(519,-25,o),
(505,-25,q,{
name = ab01;
}),
(462,-25,o),
(447,41,q),
(441,70,o),
(424,132,o),
(402,191,o),
(376,244,o),
(361,265,q),
(349,242,o),
(321,194,o),
(294,149,o),
(269,110,o),
(260,95,q),
(255,88,o),
(248,71,o),
(236,56,o),
(217,46,o),
(201,46,q,{
name = av03;
}),
(181,46,o),
(161,61,o),
(153,77,q),
(149,85,o),
(137,121,o),
(123,169,o),
(107,226,o),
(100,255,q),
(74,361,o),
(39,505,o),
(39,541,q)
);
}
);
width = 839;
},
{
anchors = (
{
name = bottom;
pos = (342,16);
},
{
name = top;
pos = (391,640);
}
);
background = {
shapes = (
{
closed = 1;
nodes = (
(719,719,o),
(697,705,o),
(693,676,cs),
(671,502,o),
(638,328,o),
(598,155,c),
(554,279,o),
(518,405,o),
(482,533,cs),
(474,561,o),
(455,576,o),
(428,576,cs),
(402,576,o),
(382,562,o),
(373,532,c),
(319,415,o),
(264,299,o),
(220,180,c),
(188,343,o),
(158,506,o),
(139,670,cs),
(136,700,o),
(116,714,o),
(94,714,cs),
(61,714,o),
(34,690,o),
(40,649,cs),
(68,446,o),
(107,242,o),
(157,41,cs),
(164,13,o),
(183,0,o),
(207,0,cs),
(228,0,o),
(249,13,o),
(256,36,c),
(309,160,o),
(364,282,o),
(416,402,c),
(455,269,o),
(501,135,o),
(556,19,c),
(566,-9,o),
(584,-23,o),
(607,-23,cs),
(636,-23,o),
(655,-5,o),
(665,29,cs),
(724,237,o),
(764,447,o),
(793,656,cs),
(799,697,o),
(773,719,o),
(742,719,cs)
);
}
);
};
hints = (
{
horizontal = 1;
origin = (0,19);
type = TTSnap;
},
{
horizontal = 1;
origin = (0,42);
type = TTSnap;
},
{
horizontal = 1;
origin = (0,10);
type = TTSnap;
},
{
horizontal = 1;
origin = (0,50);
type = TTSnap;
},
{
horizontal = 1;
origin = (0,31);
type = TTSnap;
},
{
horizontal = 1;
options = 4;
origin = (0,19);
other1 = (0,25);
target = (0,10);
type = TTInterpolate;
},
{
horizontal = 1;
options = 4;
origin = (0,42);
other1 = (0,36);
target = (0,50);
type = TTInterpolate;
},
{
horizontal = 1;
options = 4;
origin = (0,10);
other1 = (0,4);
target = (0,31);
type = TTInterpolate;
}
);
layerId = "92936CB7-D294-4857-B41D-63B9425360A1";
shapes = (
{
closed = 1;
nodes = (
(571,-23,o),
(556,19,q),
(519,96,o),
(450,286,o),
(416,402,q,{
name = sv03;
}),
(394,351,o),
(287,107,o),
(256,36,q),
(251,19,o),
(223,0,o),
(207,0,q,{
name = ab01;
}),
(188,0,o),
(162,21,o),
(157,41,q),
(120,191,o),
(61,496,o),
(40,649,q),
(36,678,o),
(67,714,o),
(94,714,q,{
name = at01;
}),
(113,714,o),
(137,690,o),
(139,670,q),
(150,572,o),
(187,346,o),
(220,180,q,{
name = sv01;
}),
(259,286,o),
(367,519,o),
(373,532,q),
(380,554,o),
(408,576,o),
(428,576,q,{
name = av01;
}),
(470,576,o),
(482,533,q),
(523,388,o),
(573,224,o),
(598,155,q,{
name = sv02;
}),
(630,295,o),
(678,554,o),
(693,676,q),
(696,696,o),
(723,719,o),
(742,719,q,{
name = at02;
}),
(768,719,o),
(797,684,o),
(793,656,q),
(769,482,o),
(705,172,o),
(665,29,q),
(650,-23,o),
(607,-23,q,{
name = ab02;
})
);
}
);
userData = {
com.typemytype.robofont.mark = (
0.656,
1,
0.6,
1
);
};
width = 839;
}
);
unicode = 87;
},
{
color = 4;
glyphname = X;
kernLeft = X;
kernRight = X;
layers = (
{
anchors = (
{
name = bottom;
pos = (344,16);
},
{
name = top;
pos = (381,651);
}
);
background = {
shapes = (
{
closed = 1;
nodes = (
(502,230,o),
(313,474,o),
(180,651,cs),
(132,715,o),
(53,654,o),
(101,588,cs),
(236,400,o),
(472,119,o),
(625,16,cs),
(683,-23,o),
(731,52,o),
(672,98,cs)
);
},
{
closed = 1;
nodes = (
(295,380,l),
(202,288,o),
(114,192,o),
(36,94,cs),
(-10,36,o),
(65,-29,o),
(110,28,cs),
(186,124,o),
(271,217,o),
(360,307,c)
);
},
{
closed = 1;
nodes = (
(396,336,l),
(493,432,o),
(595,525,o),
(698,614,cs),
(755,663,o),
(687,730,o),
(636,686,cs),
(534,598,o),
(431,506,o),
(335,412,c)
);
}
);
};
layerId = master01;
shapes = (
{
closed = 1;
nodes = (
(502,230,o),
(313,474,o),
(180,651,cs),
(132,715,o),
(53,654,o),
(101,588,cs),
(236,400,o),
(472,119,o),
(625,16,cs),
(683,-23,o),
(731,52,o),
(672,98,cs)
);
},
{
closed = 1;
nodes = (
(295,380,l),
(202,288,o),
(114,192,o),
(36,94,cs),
(-10,36,o),
(65,-29,o),
(110,28,cs),
(186,124,o),
(270,218,o),
(357,311,c)
);
},
{
closed = 1;
nodes = (
(396,336,l),
(493,432,o),
(595,525,o),
(698,614,cs),
(755,663,o),
(687,730,o),
(636,686,cs),
(534,598,o),
(432,506,o),
(340,409,c)
);
}
);
width = 724;
},
{
layerId = "8E39700C-2F6D-4A17-B4B3-161F49A69C4C";
shapes = (
{
closed = 1;
nodes = (
(95,596,o),
(86,618,o),
(86,629,q),
(86,652,o),
(112,679,o),
(131,679,q,{
name = av01;
}),
(148,679,o),
(168,662,o),
(176,651,q),
(218,597,o),
(319,486,o),
(362,428,q,{
name = iv01;
}),
(433,492,o),
(565,613,o),
(626,685,q),
(634,695,o),
(657,703,o),
(666,703,q,{
name = av02;
}),
(686,703,o),
(714,676,o),
(714,656,q),
(714,634,o),
(701,620,q),
(636,548,o),
(498,418,o),
(426,352,q),
(455,316,o),
(518,244,o),
(582,178,o),
(646,121,o),
(676,101,q),
(691,90,o),
(702,65,o),
(702,52,q),
(702,33,o),
(677,6,o),
(659,6,q,{
name = ab01;
}),
(651,6,o),
(634,9,o),
(628,13,q),
(593,35,o),
(521,98,o),
(450,170,o),
(383,247,o),
(353,285,q,{
name = iv02;
}),
(320,254,o),
(259,198,o),
(200,140,o),
(143,73,o),
(115,30,q),
(107,16,o),
(82,8,o),
(71,8,q,{
name = ab02;
}),
(52,8,o),
(26,35,o),
(26,56,q),
(26,74,o),
(35,88,q),
(57,121,o),
(93,170,o),
(131,212,o),
(174,255,o),
(203,282,q),
(288,361,l),
(262,397,o),
(217,450,o),
(173,500,o),
(128,553,o),
(101,588,q)
);
}
);
width = 724;
},
{
anchors = (
{
name = bottom;
pos = (344,16);
},
{
name = top;
pos = (381,651);
}
);
background = {
shapes = (
{
closed = 1;
nodes = (
(540,603,o),
(443,516,o),
(356,425,c),
(292,504,o),
(232,582,o),
(180,651,cs),
(166,670,o),
(149,678,o),
(133,678,cs),
(96,678,o),
(67,634,o),
(101,588,cs),
(149,520,o),
(211,441,o),
(277,362,c),
(191,276,o),
(109,186,o),
(36,94,cs),
(2,52,o),
(33,6,o),
(70,6,cs),
(84,6,o),
(98,13,o),
(110,28,cs),
(180,117,o),
(258,204,o),
(338,291,c),
(439,176,o),
(544,71,o),
(625,16,cs),
(636,8,o),
(647,5,o),
(657,5,cs),
(698,5,o),
(720,61,o),
(672,98,cs),
(588,163,o),
(499,256,o),
(415,355,c),
(506,444,o),
(602,531,o),
(698,614,cs),
(742,652,o),
(712,700,o),
(672,700,cs),
(660,700,o),
(648,696,o),
(636,686,cs)
);
}
);
};
hints = (
{
horizontal = 1;
origin = (0,7);
type = TTSnap;
},
{
horizontal = 1;
origin = (0,39);
type = TTSnap;
},
{
horizontal = 1;
origin = (0,27);
type = TTSnap;
},
{
horizontal = 1;
origin = (0,27);
target = (0,19);
type = TTShift;
},
{
horizontal = 1;
options = 4;
origin = (0,39);
other1 = (0,3);
target = (0,27);
type = TTInterpolate;
},
{
horizontal = 1;
options = 4;
origin = (0,39);
other1 = (0,23);
target = (0,27);
type = TTInterpolate;
},
{
horizontal = 1;
options = 4;
origin = (0,3);
other1 = (0,33);
target = (0,23);
type = TTInterpolate;
},
{
horizontal = 1;
options = 4;
origin = (0,3);
other1 = (0,13);
target = (0,23);
type = TTInterpolate;
}
);
layerId = "92936CB7-D294-4857-B41D-63B9425360A1";
shapes = (
{
closed = 1;
nodes = (
(640,5,o),
(625,16,qs),
(512,93,o),
(338,291,q),
(192,132,o),
(110,28,qs),
(92,6,o),
(70,6,qs),
(51,6,o),
(22,34,o),
(21,75,o),
(36,94,qs),
(140,225,o),
(277,362,q),
(171,489,o),
(101,588,qs),
(86,609,o),
(86,650,o),
(114,678,o),
(133,678,qs),
(160,678,o),
(180,651,qs),
(275,526,o),
(356,425,q),
(460,534,o),
(636,686,qs),
(653,700,o),
(672,700,qs),
(692,700,o),
(721,671,o),
(718,631,o),
(698,614,qs),
(541,478,o),
(415,355,q),
(559,186,o),
(672,98,qs),
(694,81,o),
(703,38,o),
(678,5,o),
(657,5,qs)
);
}
);
width = 724;
}
);
unicode = 88;
},
{
color = 4;
glyphname = Y;
kernLeft = Y;
kernRight = Y;
layers = (
{
anchors = (
{
name = bottom;
pos = (259,-6);
},
{
name = top;
pos = (325,682);
}
);
background = {
shapes = (
{
closed = 1;
nodes = (
(59,570,o),
(142,396,o),
(242,329,c),
(234,229,o),
(209,113,o),
(209,29,cs),
(209,-10,o),
(233,-29,o),
(258,-29,cs),
(281,-29,o),
(309,-14,o),
(309,21,cs),
(309,108,o),
(335,230,o),
(343,334,c),
(399,369,o),
(463,420,o),
(503,471,cs),
(534,510,o),
(556,551,o),
(583,591,cs),
(604,623,o),
(646,642,o),
(646,678,cs),
(646,702,o),
(630,730,o),
(599,730,cs),
(580,730,o),
(560,715,o),
(544,702,cs),
(491,659,o),
(468,586,o),
(425,533,cs),
(390,490,o),
(347,462,o),
(304,430,c),
(293,430,o),
(287,429,o),
(282,428,c),
(206,508,o),
(157,587,o),
(124,698,cs),
(116,725,o),
(95,739,o),
(72,739,cs),
(45,739,o),
(25,719,o),
(25,694,cs),
(25,687,o),
(24,681,o),
(27,674,c)
);
}
);
};
layerId = master01;
shapes = (
{
closed = 1;
nodes = (
(281,-29,o),
(303,-14,o),
(309,21,cs),
(324,116,o),
(339,254,o),
(345,363,c),
(320,320,l),
(380,355,o),
(451,418,o),
(503,471,cs),
(538,507,o),
(616,610,o),
(634,659,cs),
(648,698,o),
(631,731,o),
(596,731,cs),
(571,731,o),
(552,712,o),
(536,686,cs),
(508,640,o),
(469,585,o),
(425,533,cs),
(377,476,o),
(338,437,o),
(279,393,c),
(313,393,l),
(222,484,o),
(161,572,o),
(126,691,cs),
(116,725,o),
(97,739,o),
(70,739,cs),
(33,739,o),
(19,703,o),
(29,666,cs),
(61,543,o),
(166,379,o),
(264,316,c),
(244,358,l),
(239,252,o),
(216,126,o),
(209,29,cs),
(206,-10,o),
(233,-29,o),
(258,-29,cs)
);
}
);
width = 657;
},
{
layerId = "8E39700C-2F6D-4A17-B4B3-161F49A69C4C";
shapes = (
{
closed = 1;
nodes = (
(25,679,o),
(25,689,o),
(25,694,q),
(25,713,o),
(52,739,o),
(72,739,q,{
name = at01;
}),
(89,739,o),
(118,718,o),
(124,698,q,{
name = sv01;
}),
(149,615,o),
(225,488,o),
(282,428,q,{
name = av01;
}),
(286,429,o),
(296,430,o),
(304,430,q),
(336,454,o),
(399,501,o),
(425,533,q),
(441,553,o),
(467,599,o),
(494,644,o),
(524,686,o),
(544,702,q),
(556,712,o),
(585,730,o),
(599,730,q,{
name = at02;
}),
(622,730,o),
(646,696,o),
(646,678,q),
(646,665,o),
(632,643,o),
(613,623,o),
(591,603,o),
(583,591,q),
(563,561,o),
(526,500,o),
(503,471,q),
(488,452,o),
(450,414,o),
(408,379,o),
(364,347,o),
(343,334,q),
(340,295,o),
(329,212,o),
(317,130,o),
(309,54,o),
(309,21,q,{
name = sv02;
}),
(309,-5,o),
(275,-29,o),
(258,-29,q,{
name = ab01;
}),
(239,-29,o),
(209,0,o),
(209,29,q,{
name = sv03;
}),
(209,60,o),
(217,134,o),
(227,212,o),
(239,291,o),
(242,329,q),
(205,354,o),
(137,439,o),
(81,536,o),
(39,635,o),
(27,674,q)
);
}
);
width = 657;
},
{
anchors = (
{
name = bottom;
pos = (259,-6);
},
{
name = top;
pos = (325,682);
}
);
background = {
shapes = (
{
closed = 1;
nodes = (
(571,731,o),
(552,712,o),
(536,686,cs),
(508,640,o),
(469,585,o),
(425,533,cs),
(382,482,o),
(347,446,o),
(298,408,c),
(215,494,o),
(159,578,o),
(126,691,cs),
(116,725,o),
(97,739,o),
(70,739,cs),
(33,739,o),
(19,703,o),
(29,666,cs),
(59,552,o),
(151,403,o),
(242,331,c),
(235,231,o),
(215,118,o),
(209,29,cs),
(206,-10,o),
(233,-29,o),
(258,-29,cs),
(281,-29,o),
(303,-14,o),
(309,21,cs),
(323,108,o),
(336,231,o),
(343,335,c),
(398,371,o),
(458,425,o),
(503,471,cs),
(538,507,o),
(616,610,o),
(634,659,cs),
(648,698,o),
(631,731,o),
(596,731,cs)
);
}
);
};
hints = (
{
horizontal = 1;
origin = (0,37);
type = TTSnap;
},
{
horizontal = 1;
origin = (0,12);
type = TTSnap;
},
{
horizontal = 1;
origin = (0,24);
type = TTSnap;
},
{
horizontal = 1;
options = 4;
origin = (0,37);
other1 = (0,17);
target = (0,12);
type = TTInterpolate;
}
);
layerId = "92936CB7-D294-4857-B41D-63B9425360A1";
shapes = (
{
closed = 1;
nodes = (
(236,-29,o),
(207,3,o),
(209,29,qs),
(213,84,o),
(225,173,qs),
(236,259,o),
(242,331,q),
(175,384,o),
(52,578,o),
(29,666,qs),
(21,696,o),
(44,739,o),
(70,739,qs),
(112,739,o),
(126,691,qs),
(149,612,o),
(230,478,o),
(298,408,q),
(332,434,o),
(389,491,o),
(425,533,qs),
(489,608,o),
(536,686,qs),
(564,731,o),
(596,731,qs),
(622,731,o),
(645,688,o),
(634,659,qs),
(622,627,o),
(535,504,o),
(503,471,qs),
(418,384,o),
(343,335,q),
(331,158,o),
(309,21,qs),
(305,-3,o),
(277,-29,o),
(258,-29,qs)
);
}
);
width = 657;
}
);
unicode = 89;
},
{
glyphname = Yacute;
kernLeft = Y;
kernRight = Y;
layers = (
{
color = 6;
layerId = master01;
shapes = (
{
alignment = -1;
pos = (7,0);
ref = Y;
},
{
alignment = -1;
pos = (689,0);
ref = acutecomb.case;
}
);
width = 672;
},
{
layerId = "8E39700C-2F6D-4A17-B4B3-161F49A69C4C";
shapes = (
{
closed = 1;
nodes = (
(157,393,o),
(108,489,o),
(85,533,q),
(66,570,o),
(34,645,o),
(29,687,q),
(29,716,o),
(59,745,o),
(78,745,q,{
name = at01;
}),
(95,745,o),
(125,721,o),
(129,695,q),
(129,675,o),
(149,619,o),
(177,561,o),
(208,505,o),
(220,485,q),
(226,474,o),
(251,442,o),
(262,434,q),
(288,448,o),
(339,491,o),
(363,510,q),
(386,528,o),
(448,573,o),
(508,624,o),
(559,677,o),
(571,704,q),
(581,717,o),
(604,728,o),
(616,728,q,{
name = at02;
}),
(635,728,o),
(663,700,o),
(663,676,q),
(663,668,o),
(662,664,q),
(639,614,o),
(559,539,o),
(518,506,q),
(490,483,o),
(427,431,o),
(366,383,o),
(310,346,o),
(288,338,q),
(289,306,o),
(292,242,o),
(292,210,q),
(292,156,o),
(272,62,o),
(270,12,q),
(266,-14,o),
(236,-38,o),
(219,-38,q,{
name = ab01;
}),
(200,-38,o),
(170,-9,o),
(170,20,q),
(172,71,o),
(192,167,o),
(192,220,q),
(192,254,o),
(189,321,o),
(188,354,q),
(188,362,l)
);
},
{
closed = 1;
nodes = (
(311,662,o),
(298,662,q,{
name = av01;
}),
(277,662,o),
(250,689,o),
(250,709,q),
(250,729,o),
(264,747,q),
(280,759,o),
(311,792,o),
(343,823,o),
(380,845,o),
(404,845,q,{
name = sv01;
}),
(427,845,o),
(455,817,o),
(455,798,q),
(455,784,o),
(437,756,o),
(417,748,q),
(403,744,o),
(379,724,o),
(358,700,o),
(337,676,o),
(325,668,q)
);
}
);
width = 672;
},
{
color = 6;
layerId = "92936CB7-D294-4857-B41D-63B9425360A1";
shapes = (
{
alignment = -1;
pos = (7,0);
ref = Y;
},
{
alignment = -1;
pos = (689,0);
ref = acutecomb.case;
}
);
userData = {
com.typemytype.robofont.mark = (
0.6,
0.986,
1,
1
);
};
width = 672;
}
);
unicode = 221;
},
{
glyphname = Ydieresis;
kernLeft = Y;
kernRight = Y;
layers = (
{
color = 6;
layerId = master01;
shapes = (
{
alignment = -1;
pos = (5,0);
ref = Y;
},
{
pos = (485,-10);
ref = dieresiscomb.case;
}
);
width = 671;
},
{
layerId = "8E39700C-2F6D-4A17-B4B3-161F49A69C4C";
shapes = (
{
closed = 1;
nodes = (
(21,722,o),
(51,751,o),
(70,751,q,{
name = at01;
}),
(87,751,o),
(117,727,o),
(121,701,q),
(122,689,o),
(143,646,o),
(175,593,o),
(213,536,o),
(251,486,o),
(284,447,o),
(294,439,q),
(326,458,o),
(406,519,o),
(484,590,o),
(548,665,o),
(564,699,q),
(574,712,o),
(597,723,o),
(609,723,q,{
name = at02;
}),
(628,723,o),
(656,695,o),
(656,671,q),
(656,663,o),
(655,659,q),
(638,623,o),
(588,556,o),
(529,496,o),
(464,441,o),
(434,416,q),
(415,400,o),
(367,363,o),
(343,351,q),
(339,266,o),
(316,101,o),
(313,16,q),
(309,-10,o),
(279,-34,o),
(262,-34,q,{
name = ab01;
}),
(243,-34,o),
(213,-5,o),
(213,24,q),
(217,106,o),
(239,269,o),
(242,352,q),
(224,363,o),
(194,397,o),
(183,411,q),
(163,437,o),
(110,508,o),
(62,584,o),
(25,661,o),
(21,693,q)
);
},
{
closed = 1;
nodes = (
(150,882,o),
(180,911,o),
(199,911,q,{
name = dv02;
}),
(216,911,o),
(247,887,o),
(250,861,q),
(253,836,o),
(271,790,o),
(273,764,q),
(269,739,o),
(241,714,o),
(224,714,q,{
name = dv01;
}),
(209,714,o),
(181,734,o),
(173,756,q),
(171,781,o),
(150,832,o),
(150,853,q)
);
},
{
closed = 1;
nodes = (
(339,890,o),
(370,918,o),
(388,918,q,{
name = sv01;
}),
(404,918,o),
(432,898,o),
(437,877,q),
(447,856,o),
(466,808,o),
(469,784,q),
(465,759,o),
(437,734,o),
(420,734,q,{
name = sv02;
}),
(406,734,o),
(375,754,o),
(369,776,q),
(363,798,l),
(356,813,o),
(339,852,o),
(339,861,q)
);
}
);
width = 671;
},
{
color = 6;
layerId = "92936CB7-D294-4857-B41D-63B9425360A1";
shapes = (
{
alignment = -1;
pos = (5,0);
ref = Y;
},
{
pos = (485,-10);
ref = dieresiscomb.case;
}
);
userData = {
com.typemytype.robofont.mark = (
0.6,
0.986,
1,
1
);
};
width = 671;
}
);
unicode = 376;
},
